<?xml version="1.0" encoding="UTF-8"?>
<svg width="347px" height="531px" viewBox="0 0 347 531" version="1.1" xmlns="http://www.w3.org/2000/svg" xmlns:xlink="http://www.w3.org/1999/xlink">
    <!-- Generator: Sketch 52.2 (67145) - http://www.bohemiancoding.com/sketch -->
    <title>Group 14</title>
    <desc>Created with Sketch.</desc>
    <g id="Page-1" stroke="none" stroke-width="1" fill="none" fill-rule="evenodd">
        <g id="Group-119-Copy" transform="translate(1.000000, 0.000000)">
            <g id="Group-14">
                <path d="M144.0319,371.825 L120.3519,509.065 L85.5529,529.155 C83.8919,525.635 83.3719,520.685 84.3719,514.895 L107.5319,380.615 L144.0319,371.825 Z" id="Fill-1" fill="#F9F9FA"></path>
                <path d="M144.0319,371.825 L120.3519,509.065 L85.5529,529.155 C83.8919,525.635 83.3719,520.685 84.3719,514.895 L107.5319,380.615 L144.0319,371.825 Z" id="Stroke-3" stroke="#D2D0DB" stroke-width="2" stroke-linecap="round" stroke-linejoin="round"></path>
                <polygon id="Fill-5" fill="#F7F7F9" points="211.2423 456.5848 172.4023 479.0158 148.7323 369.1058 185.2223 335.7658"></polygon>
                <polygon id="Stroke-7" stroke="#D2D0DB" stroke-width="2" stroke-linecap="round" stroke-linejoin="round" points="211.2423 456.5848 172.4023 479.0158 148.7323 369.1058 185.2223 335.7658"></polygon>
                <path d="M168.3551,61.4637 C168.8091,63.7217 169.0501,66.2127 169.0501,68.9167 L169.0501,107.6857 C169.0501,126.2907 157.6671,147.9447 143.6261,156.0517 L135.5841,160.6937 C121.5431,168.8007 110.1601,160.2907 110.1601,141.6857 L110.1601,115.7027" id="Fill-9" fill="#FFFFFF"></path>
                <path d="M168.3551,61.4637 C168.8091,63.7217 169.0501,66.2127 169.0501,68.9167 L169.0501,107.6857 C169.0501,126.2907 157.6671,147.9447 143.6261,156.0517 L135.5841,160.6937 C121.5431,168.8007 110.1601,160.2907 110.1601,141.6857 L110.1601,115.7027" id="Stroke-11" stroke="#D2D0DB" stroke-width="2" stroke-linecap="round" stroke-linejoin="round"></path>
                <path d="M150.8356,136.4364 C149.2206,138.5624 147.3596,140.3174 145.3786,141.4604 L141.8316,143.5084 C140.0606,144.5314 138.3866,144.9554 136.8976,144.8464" id="Fill-13" fill="#FFFFFF"></path>
                <path d="M150.8356,136.4364 C149.2206,138.5624 147.3596,140.3174 145.3786,141.4604 L141.8316,143.5084 C140.0606,144.5314 138.3866,144.9554 136.8976,144.8464" id="Stroke-15" stroke="#D2D0DB" stroke-width="2" stroke-linecap="round" stroke-linejoin="round"></path>
                <path d="M161.3068,100.829 C160.4158,102.439 159.3068,103.898 158.0418,105.038 L155.7758,107.08 C154.6448,108.099 153.5118,108.752 152.4468,109.056" id="Fill-17" fill="#FFFFFF"></path>
                <path d="M161.3068,100.829 C160.4158,102.439 159.3068,103.898 158.0418,105.038 L155.7758,107.08 C154.6448,108.099 153.5118,108.752 152.4468,109.056" id="Stroke-19" stroke="#D2D0DB" stroke-width="2" stroke-linecap="round" stroke-linejoin="round"></path>
                <path d="M153.0334,99.3456 C153.7354,97.6246 154.6934,95.9686 155.8674,94.5446 L157.9714,91.9956 C159.0224,90.7246 160.1314,89.7766 161.2214,89.1606" id="Fill-21" fill="#FFFFFF"></path>
                <path d="M153.0334,99.3456 C153.7354,97.6246 154.6934,95.9686 155.8674,94.5446 L157.9714,91.9956 C159.0224,90.7246 160.1314,89.7766 161.2214,89.1606" id="Stroke-23" stroke="#D2D0DB" stroke-width="2" stroke-linecap="round" stroke-linejoin="round"></path>
                <path d="M256.8844,224.5008 L256.7894,224.6538 C246.6394,240.9498 232.0274,246.9448 224.1504,238.0448 L158.2224,163.5438 L158.3184,163.3918 C168.4674,147.0948 183.0804,141.0998 190.9574,149.9998 L256.8844,224.5008 Z" id="Fill-25" fill="#DCDBE4"></path>
                <path d="M256.8844,224.5008 L256.7894,224.6538 C246.6394,240.9498 232.0274,246.9448 224.1504,238.0448 L158.2224,163.5438 L158.3184,163.3918 C168.4674,147.0948 183.0804,141.0998 190.9574,149.9998 L256.8844,224.5008 Z" id="Stroke-27" stroke="#D2D0DB" stroke-width="2" stroke-linecap="round" stroke-linejoin="round"></path>
                <path d="M43.7731,323.2176 L63.4831,328.5086 L116.4361,190.8686 C105.5511,187.9466 91.0941,200.5236 84.1461,218.9576 L43.7731,323.2176 Z" id="Fill-29" fill="#FDFDFD"></path>
                <path d="M43.7731,323.2176 L63.4831,328.5086 L116.4361,190.8686 C105.5511,187.9466 91.0941,200.5236 84.1461,218.9576 L43.7731,323.2176 Z" id="Stroke-31" stroke="#D2D0DB" stroke-width="2" stroke-linecap="round" stroke-linejoin="round"></path>
                <polygon id="Fill-53" fill="#DCDBE4" points="31.8952 315.671687 0.0002 334.8582 0.0002 304.372755 31.8952 285.1852"></polygon>
                <polygon id="Stroke-55" stroke="#D2D0DB" stroke-width="2" stroke-linecap="round" stroke-linejoin="round" points="31.8952 315.671687 0.0002 334.8582 0.0002 304.372755 31.8952 285.1852"></polygon>
                <polygon id="Fill-57" fill="#F7F7F9" points="67.5783 330.471463 18.0163 359.858 18.0163 313.166537 67.5783 283.78"></polygon>
                <polygon id="Stroke-59" stroke="#D2D0DB" stroke-width="2" stroke-linecap="round" stroke-linejoin="round" points="67.5783 330.471463 18.0163 359.858 18.0163 313.166537 67.5783 283.78"></polygon>
                <path d="M186.3703,347.6776 L91.1073,379.7276 L91.1073,237.1556 C91.1073,217.0316 103.4203,193.6086 118.6083,184.8386 L158.8703,161.5946 C174.0573,152.8246 186.3703,162.0316 186.3703,182.1556 L186.3703,347.6776 Z" id="Fill-33" fill="#FDFDFD"></path>
                <path d="M186.3703,347.6776 L91.1073,379.7276 L91.1073,237.1556 C91.1073,217.0316 103.4203,193.6086 118.6083,184.8386 L158.8703,161.5946 C174.0573,152.8246 186.3703,162.0316 186.3703,182.1556 L186.3703,347.6776 Z" id="Stroke-35" stroke="#D2D0DB" stroke-width="2" stroke-linecap="round" stroke-linejoin="round"></path>
                <path d="M186.3703,347.6776 L140.0383,364.0996 L140.0383,208.9056 L140.0383,172.4666 L165.2013,157.9396 C172.5883,153.6736 186.3703,162.0316 186.3703,182.1556 L186.3703,347.6776 Z" id="Fill-37" fill="#DCDBE4"></path>
                <path d="M186.3703,347.6776 L140.0383,364.0996 L140.0383,208.9056 L140.0383,172.4666 L165.2013,157.9396 C172.5883,153.6736 186.3703,162.0316 186.3703,182.1556 L186.3703,347.6776 Z" id="Stroke-39" stroke="#D2D0DB" stroke-width="2" stroke-linecap="round" stroke-linejoin="round"></path>
                <polygon id="Fill-41" fill="#FEFEFE" points="168.2116 287.5995 159.0656 267.5005 294.9736 79.7675 304.8556 89.5895"></polygon>
                <polygon id="Stroke-43" stroke="#D2D0DB" stroke-width="2" stroke-linecap="round" stroke-linejoin="round" points="168.2116 287.5995 159.0656 267.5005 294.9736 79.7675 304.8556 89.5895"></polygon>
                <path d="M192.6657,291.6082 C191.5047,293.5102 190.2497,295.3882 188.9077,297.2072 C180.3687,308.7652 169.8287,315.9932 159.9127,318.1802 C158.2327,331.6912 152.1967,346.9032 142.3237,360.2752 C141.5007,361.3852 140.6607,362.4772 139.8117,363.5232 L139.8117,250.0952 C140.7647,248.5912 141.7777,247.1122 142.8437,245.6722 C159.0987,223.6672 182.5847,217.3612 195.3077,231.5902 C196.0257,232.3882 196.6847,233.2302 197.2987,234.1282 C185.2087,254.0062 183.1997,277.9542 192.6657,291.6082" id="Fill-45" fill="#FEFEFE"></path>
                <path d="M192.6657,291.6082 C191.5047,293.5102 190.2497,295.3882 188.9077,297.2072 C180.3687,308.7652 169.8287,315.9932 159.9127,318.1802 C158.2327,331.6912 152.1967,346.9032 142.3237,360.2752 C141.5007,361.3852 140.6607,362.4772 139.8117,363.5232 L139.8117,250.0952 C140.7647,248.5912 141.7777,247.1122 142.8437,245.6722 C159.0987,223.6672 182.5847,217.3612 195.3077,231.5902 C196.0257,232.3882 196.6847,233.2302 197.2987,234.1282 C185.2087,254.0062 183.1997,277.9542 192.6657,291.6082 Z" id="Stroke-47" stroke="#D2D0DB" stroke-width="2" stroke-linecap="round" stroke-linejoin="round"></path>
                <path d="M162.4113,281.0809 L255.2923,153.1919" id="Fill-49" fill="#F9F9FA"></path>
                <path d="M162.4113,281.0809 L255.2923,153.1919" id="Stroke-51" stroke="#D2D0DB" stroke-width="2" stroke-linecap="round" stroke-linejoin="round"></path>
                <polygon id="Fill-53" fill="#FDFDFD" points="104.069 395.4823 59.672 421.1153 17 396.4793 61.398 370.8453"></polygon>
                <polygon id="Stroke-55" stroke="#D2D0DB" stroke-width="2" stroke-linecap="round" stroke-linejoin="round" points="104.069 395.4823 59.672 421.1153 17 396.4793 61.398 370.8453"></polygon>
                <polygon id="Fill-57" fill="#DCDBE4" points="168.1862 360.1463 58.0032 423.7603 58.0032 322.6873 168.1862 259.0733"></polygon>
                <polygon id="Stroke-59" stroke="#D2D0DB" stroke-width="2" stroke-linecap="round" stroke-linejoin="round" points="168.1862 360.1463 58.0032 423.7603 58.0032 322.6873 168.1862 259.0733"></polygon>
                <path d="M279.5944,143.036 L287.6304,130.457 C289.3274,132.493 289.2264,136.456 287.4034,139.309 L282.6674,146.723" id="Fill-61" fill="#FFFFFF"></path>
                <path d="M279.5944,143.036 L287.6304,130.457 C289.3274,132.493 289.2264,136.456 287.4034,139.309 L282.6674,146.723" id="Stroke-63" stroke="#D2D0DB" stroke-width="2" stroke-linecap="round" stroke-linejoin="round"></path>
                <path d="M272.3239,164.9413 L264.0019,169.7463 L264.0019,115.2403 C266.9359,113.5453 269.3139,115.3243 269.3139,119.2113 L269.3139,131.1873 L278.6649,125.7883 L278.6649,113.1123 C281.5049,111.4723 284.0919,113.0293 284.0919,116.7913 L284.0919,122.6553 L284.0919,142.5533 C284.0919,151.1663 278.8229,161.1893 272.3239,164.9413" id="Fill-65" fill="#FFFFFF"></path>
                <path d="M272.3239,164.9413 L264.0019,169.7463 L264.0019,115.2403 C266.9359,113.5453 269.3139,115.3243 269.3139,119.2113 L269.3139,131.1873 L278.6649,125.7883 L278.6649,113.1123 C281.5049,111.4723 284.0919,113.0293 284.0919,116.7913 L284.0919,122.6553 L284.0919,142.5533 C284.0919,151.1663 278.8229,161.1893 272.3239,164.9413 Z" id="Stroke-67" stroke="#D2D0DB" stroke-width="2" stroke-linecap="round" stroke-linejoin="round"></path>
                <path d="M230.422,243.4481 L262.435,158.5111 L281.148,163.5341 L261.079,216.7801 C254.482,234.2821 240.756,246.2211 230.422,243.4481" id="Fill-69" fill="#DCDBE4"></path>
                <path d="M230.422,243.4481 L262.435,158.5111 L281.148,163.5341 L261.079,216.7801 C254.482,234.2821 240.756,246.2211 230.422,243.4481 Z" id="Stroke-71" stroke="#D2D0DB" stroke-width="2" stroke-linecap="round" stroke-linejoin="round"></path>
                <path d="M163.5138,29.8192 C163.5138,29.8192 172.5858,22.3362 173.3678,22.0002 L173.3678,22.7782 C173.3678,36.2032 164.0238,52.4742 152.4908,59.1332 L145.8908,62.9432 C145.0808,63.4112 144.2848,63.8212 143.5018,64.1572 L143.5018,63.3792" id="Fill-73" fill="#FFFFFF"></path>
                <path d="M163.5138,29.8192 C163.5138,29.8192 172.5858,22.3362 173.3678,22.0002 L173.3678,22.7782 C173.3678,36.2032 164.0238,52.4742 152.4908,59.1332 L145.8908,62.9432 C145.0808,63.4112 144.2848,63.8212 143.5018,64.1572 L143.5018,63.3792" id="Stroke-75" stroke="#D2D0DB" stroke-width="2" stroke-linecap="round" stroke-linejoin="round"></path>
                <path d="M177.6984,32.0653 L177.6984,32.5963 C177.6984,41.7523 170.7924,53.1563 162.2694,58.0783 C162.2694,58.0783 156.2044,61.5443 155.6264,61.7993" id="Stroke-77" stroke="#D2D0DB" stroke-width="2" stroke-linecap="round" stroke-linejoin="round"></path>
                <path d="M137.1379,49.6092 L147.7629,43.4752 C148.9619,42.7832 150.1329,42.1902 151.2729,41.7262 L151.1629,43.0922 C150.2779,54.0882 145.6009,66.3432 140.0559,76.7582 C133.7089,88.6782 125.0909,98.8422 115.9879,104.0982 C115.9879,104.0982 102.1269,112.0172 100.9869,112.4822 C100.9869,112.4822 103.2289,106.2312 103.5579,104.2652" id="Fill-79" fill="#FFFFFF"></path>
                <path d="M137.1379,49.6092 L147.7629,43.4752 C148.9619,42.7832 150.1329,42.1902 151.2729,41.7262 L151.1629,43.0922 C150.2779,54.0882 145.6009,66.3432 140.0559,76.7582 C133.7089,88.6782 125.0909,98.8422 115.9879,104.0982 C115.9879,104.0982 102.1269,112.0172 100.9869,112.4822 C100.9869,112.4822 103.2289,106.2312 103.5579,104.2652" id="Stroke-81" stroke="#D2D0DB" stroke-width="2" stroke-linecap="round" stroke-linejoin="round"></path>
                <path d="M125.3171,82.1971 C121.6741,85.6241 117.7441,88.6201 113.6801,90.9661" id="Fill-83" fill="#FFFFFF"></path>
                <path d="M125.3171,82.1971 C121.6741,85.6241 117.7441,88.6201 113.6801,90.9661" id="Stroke-85" stroke="#D2D0DB" stroke-width="2" stroke-linecap="round" stroke-linejoin="round"></path>
                <path d="M109.4318,81.1141 C113.1368,70.9061 119.8058,60.8421 127.9128,53.4391" id="Fill-87" fill="#FFFFFF"></path>
                <path d="M109.4318,81.1141 C113.1368,70.9061 119.8058,60.8421 127.9128,53.4391" id="Stroke-89" stroke="#D2D0DB" stroke-width="2" stroke-linecap="round" stroke-linejoin="round"></path>
                <path d="M319.3419,72.2811 L336.4779,48.1011 C337.9709,45.9951 338.0129,43.4651 336.6029,42.9131 C331.5469,40.9361 324.0529,44.7511 318.4609,52.6421 L317.8129,53.5561 C313.7789,59.2501 308.5959,62.9181 303.8669,63.8301 C299.3849,64.6941 294.2739,68.3461 290.1559,74.1561 L290.1529,74.1611 C284.8639,81.6231 282.4619,90.8641 284.5859,96.7331 C288.1199,106.5031 299.9469,103.3331 307.9729,92.0091 C309.2449,90.2141 310.3309,88.3421 311.2229,86.4521 C313.5459,81.5321 316.1959,76.7191 319.3419,72.2811" id="Fill-91" fill="#FEFEFE"></path>
                <path d="M319.3419,72.2811 L336.4779,48.1011 C337.9709,45.9951 338.0129,43.4651 336.6029,42.9131 C331.5469,40.9361 324.0529,44.7511 318.4609,52.6421 L317.8129,53.5561 C313.7789,59.2501 308.5959,62.9181 303.8669,63.8301 C299.3849,64.6941 294.2739,68.3461 290.1559,74.1561 L290.1529,74.1611 C284.8639,81.6231 282.4619,90.8641 284.5859,96.7331 C288.1199,106.5031 299.9469,103.3331 307.9729,92.0091 C309.2449,90.2141 310.3309,88.3421 311.2229,86.4521 C313.5459,81.5321 316.1959,76.7191 319.3419,72.2811 Z" id="Stroke-93" stroke="#D2D0DB" stroke-width="2" stroke-linecap="round" stroke-linejoin="round"></path>
                <path d="M185.7941,239.9413 L231.9101,176.4443" id="Fill-95" fill="#F9F9FA"></path>
                <path d="M185.7941,239.9413 L231.9101,176.4443" id="Stroke-97" stroke="#D2D0DB" stroke-width="2" stroke-linecap="round" stroke-linejoin="round"></path>
                <polygon id="Fill-99" fill="#F7F7F9" points="140.1701 123.1317 115.0551 137.6317 115.0551 121.7317 140.1701 107.2317"></polygon>
                <polygon id="Stroke-101" stroke="#D2D0DB" stroke-width="2" stroke-linecap="round" stroke-linejoin="round" points="140.1701 123.1317 115.0551 137.6317 115.0551 121.7317 140.1701 107.2317"></polygon>
                <path d="M122.8493,124.6844 L128.0453,119.2004" id="Fill-103" fill="#FFFFFF"></path>
                <path d="M122.8493,124.6844 L128.0453,119.2004" id="Stroke-105" stroke="#D2D0DB" stroke-width="2" stroke-linecap="round" stroke-linejoin="round"></path>
                <path d="M127.1799,125.1659 L132.3759,119.6819" id="Fill-107" fill="#FFFFFF"></path>
                <path d="M127.1799,125.1659 L132.3759,119.6819" id="Stroke-109" stroke="#D2D0DB" stroke-width="2" stroke-linecap="round" stroke-linejoin="round"></path>
                <path d="M140.1701,116.4237 L145.3661,113.1747" id="Fill-111" fill="#FFFFFF"></path>
                <path d="M140.1701,116.4237 L145.3661,113.1747" id="Stroke-113" stroke="#D2D0DB" stroke-width="2" stroke-linecap="round" stroke-linejoin="round"></path>
                <path d="M113.8122,129.075 L101.8122,122.075" id="Fill-115" fill="#FFFFFF"></path>
                <path d="M113.8122,129.075 L101.8122,122.075" id="Stroke-117" stroke="#D2D0DB" stroke-width="2" stroke-linecap="round" stroke-linejoin="round"></path>
                <path d="M337.2287,15.5243 C336.7957,12.0113 336.3607,8.4783 335.9177,4.8893 C338.9627,4.7873 342.1057,3.3793 345.4367,0.6593 C344.3547,2.5483 343.1397,4.0713 341.6947,5.2553 C340.2467,6.4423 338.8377,7.0433 337.4267,7.2493 C337.5487,7.9183 337.6577,8.5453 337.7767,9.1653 C338.2607,11.6773 338.7517,14.1843 339.2327,16.7003 C339.3577,17.3583 339.4187,18.0623 339.3247,18.8603 C339.0697,21.0133 337.5127,23.5143 335.7777,24.5613 C333.9437,25.6693 332.3777,25.1303 332.0237,23.2723 C331.5487,20.7823 333.4577,17.2293 335.9267,16.0283 C336.3567,15.8193 336.7817,15.6953 337.2287,15.5243" id="Fill-132" fill="#DCDBE4"></path>
                <path d="M337.283803,92.859 C336.846803,89.305 336.409803,85.764 335.969803,82.192 C337.469803,82.151 339.009803,81.786 340.627803,81.067 C342.237803,80.351 343.837803,79.317 345.447803,78 C343.973803,80.726 341.096803,84.033 337.485803,84.564 C337.508803,84.703 337.526803,84.822 337.548803,84.939 C338.015803,87.437 338.487803,89.931 338.948803,92.434 C339.116803,93.346 339.316803,94.24 339.399803,95.213 C339.556803,97.056 338.509803,99.427 336.896803,101.016 C335.379803,102.511 333.670803,102.881 332.732803,101.92 C331.725803,100.884 331.751803,98.776 332.840803,96.639 C333.751803,94.851 334.968803,93.762 336.347803,93.163 C336.655803,93.029 336.957803,92.963 337.283803,92.859" id="Fill-136" fill="#DCDBE4"></path>
                <path d="M310.9367,26.1717 C311.0367,26.7207 311.1267,27.2497 311.2277,27.7717 C311.7247,30.3487 312.2257,32.9227 312.7217,35.5017 C312.8567,36.2007 312.9287,36.9447 312.8307,37.7907 C312.5897,39.8597 311.1477,42.2187 309.4127,43.3927 C307.7787,44.4977 306.1917,44.1847 305.6597,42.6517 C304.7937,40.1617 306.8637,36.0657 309.6047,34.8527 C309.9777,34.6877 310.3437,34.5847 310.7377,34.4447 C310.3017,30.9117 309.8667,27.3797 309.4247,23.7997 C310.9357,23.7417 312.4737,23.3847 314.0917,22.6627 C315.7047,21.9437 317.3007,20.9097 318.8917,19.6407 C316.6107,23.5277 313.9597,25.6587 310.9367,26.1717" id="Fill-138" fill="#DCDBE4"></path>
            </g>
        </g>
    </g>
</svg>