<?xml version="1.0" encoding="UTF-8"?>
<svg width="25px" height="25px" viewBox="0 0 25 25" version="1.1" xmlns="http://www.w3.org/2000/svg" xmlns:xlink="http://www.w3.org/1999/xlink">
    <!-- Generator: Sketch 52.2 (67145) - http://www.bohemiancoding.com/sketch -->
    <title>Artboard</title>
    <desc>Created with Sketch.</desc>
    <g id="Artboard" stroke="none" stroke-width="1" fill="none" fill-rule="evenodd">
        <g id="Group-11" transform="translate(6.000000, 2.000000)">
            <path d="M7.093353,10.371324 C7.05551215,10.6166698 7.00401361,10.8832687 6.93885739,11.1711208 C4.32178849,13.2547133 3.5737512,16.3815885 3.3261958,20.1346823 C3.30996722,20.3787516 3.3401233,20.5752064 3.39266566,20.7275162 C3.36915325,20.7808163 3.34553113,20.834287 3.32179931,20.8879285 C2.37923875,21.0950219 -0.0266112469,20.342474 0.000378372505,19.2660035 C0.083527506,15.8273594 1.18582868,12.7306883 4.96390117,9.97100181 C5.58508833,10.3191295 6.33500297,10.4682188 7.093353,10.371324 Z" id="Combined-Shape" fill="#44E291"></path>
            <path d="M5.98610099,9.91821036 C4.02416327,10.2384526 2.30617019,8.453764 2.44760618,6.26293355 C2.72658541,1.93395431 6.10028784,-0.920716972 9.99561656,0.272795139" id="Stroke-1" stroke="#333161" stroke-width="1.4" stroke-linecap="round" stroke-linejoin="round"></path>
            <path d="M2.33887318,20.8468858 C1.39631263,21.0539792 -0.0266112469,20.4635813 0.000378372505,19.3871107 C0.0836828708,15.9420415 0.576762456,12.8846886 4.37191816,10.1211073" id="Stroke-3" stroke="#333161" stroke-width="1.4" stroke-linecap="round" stroke-linejoin="round"></path>
            <path d="M13.0741349,3.42397555 C13.0741349,5.51307589 11.7773356,8.0031278 10.0624567,9.36688212 C9.83771626,9.54854302 9.60389273,9.70944268 9.36565744,9.84698593 C8.44878893,10.3763977 7.61288927,10.4750136 6.96539792,10.215498 C6.94749135,10.2103077 6.9316609,10.2012247 6.91375433,10.1934392 C6.14299308,9.85477139 5.65743945,8.98539423 5.65743945,7.70598247 C5.65743945,5.34179562 7.3183391,2.46506551 9.36565744,1.28297209 C9.51176471,1.19862953 9.65346021,1.12726274 9.79489619,1.06627659 C9.99679931,0.976484198 10.1304498,0.931328488 10.2801903,0.888508419 C11.8855536,0.430982468 13.0741349,1.42518662 13.0741349,3.42397555 Z" id="Stroke-7" stroke="#333161" stroke-width="1.4" stroke-linecap="round" stroke-linejoin="round"></path>
            <path d="M14.4511093,13.8327792 C14.5071647,16.071101 11.9607979,17.0222256 8.88865255,18.7960145 C6.21174943,20.3414297 3.93527884,22.0503398 3.43181864,20.9396131 L3.429483,20.9409107 C3.35526154,20.7787135 3.30647262,20.5524159 3.3261958,20.2557896 C3.62671483,15.6997342 4.66477711,12.0665162 8.88865255,10.1022429 C9.22031345,9.9478311 9.51564217,9.77655083 9.8146041,9.67404218 C12.4305211,8.75795221 14.3724761,10.6991287 14.4511093,13.8327792 Z" id="Stroke-9" stroke="#333161" stroke-width="1.4" stroke-linecap="round" stroke-linejoin="round"></path>
        </g>
    </g>
</svg>