<?xml version="1.0" encoding="UTF-8"?>
<svg width="25px" height="25px" viewBox="0 0 25 25" version="1.1" xmlns="http://www.w3.org/2000/svg" xmlns:xlink="http://www.w3.org/1999/xlink">
    <!-- Generator: Sketch 52.2 (67145) - http://www.bohemiancoding.com/sketch -->
    <title>Artboard</title>
    <desc>Created with Sketch.</desc>
    <g id="Artboard" stroke="none" stroke-width="1" fill="none" fill-rule="evenodd" stroke-linecap="round" stroke-linejoin="round">
        <g id="Group-11" transform="translate(5.000000, 3.000000)" stroke="#333161">
            <path d="M6.01102632,8.91576316 C3.8505,8.66839474 2.17155263,6.56839474 2.17155263,4.34207895 C2.17155263,1.94471053 4.11628947,-2.63157895e-05 6.51365789,-2.63157895e-05 C7.32681579,-2.63157895e-05 8.16023684,0.196815789 9.17734211,0.731552632" id="Stroke-1"></path>
            <path d="M2.43476316,17.8947368 C1.33107895,17.5528947 -0.0312894737,16.5363158 0.000552631579,15.4605263 C0.0979210526,12.0157895 2.95055263,9.23421053 6.33476316,8.96842105" id="Stroke-3"></path>
            <path d="M9.96636842,9.58163158 C9.61636842,9.51057895 9.25321053,9.47373684 8.88215789,9.47373684 C9.16110526,9.47373684 9.43478947,9.44742105 9.69794737,9.39478947 C9.79005263,9.45268421 9.87952632,9.51584211 9.96636842,9.58163158 Z" id="Stroke-5"></path>
            <path d="M12.6979211,5.13157895 C12.6979211,7.25 11.1795,9.01578947 9.17160526,9.39473684 C8.90844737,9.44736842 8.63476316,9.47368421 8.35581579,9.47368421 C7.28213158,9.47368421 6.30318421,9.08421053 5.54528947,8.44210526 C5.52423684,8.42631579 5.50581579,8.40789474 5.48476316,8.38947368 C4.58213158,7.59473684 4.01371053,6.42894737 4.01371053,5.13157895 C4.01371053,2.73421053 5.95844737,0.789473684 8.35581579,0.789473684 C8.52686842,0.789473684 8.69265789,0.8 8.85844737,0.821052632 C9.05213158,0.843157895 9.24160526,0.878157895 9.42660526,0.925 C11.3063421,1.40078947 12.6979211,3.10473684 12.6979211,5.13157895 Z" id="Stroke-7"></path>
            <path d="M14.8689737,16.5131579 C14.9347632,18.8157895 11.9531842,18.2894737 8.35581579,18.2894737 C5.22160526,18.2894737 2.55581579,18.6894737 1.96634211,17.2684211 L1.96371053,17.2684211 C1.87686842,17.0605263 1.83476316,16.8105263 1.84265789,16.5131579 C1.94528947,12.9184211 4.75844737,9.47368421 8.35581579,9.47368421 C8.72686842,9.47368421 9.09002632,9.51052632 9.44002632,9.58157895 C12.5031842,10.1842105 14.7768684,13.2894737 14.8689737,16.5131579 Z" id="Stroke-9"></path>
        </g>
    </g>
</svg>