<?xml version="1.0" encoding="UTF-8"?>
<svg width="35px" height="35px" viewBox="0 0 35 35" version="1.1" xmlns="http://www.w3.org/2000/svg" xmlns:xlink="http://www.w3.org/1999/xlink">
    <!-- Generator: Sketch 52.2 (67145) - http://www.bohemiancoding.com/sketch -->
    <title>facebook</title>
    <desc>Created with Sketch.</desc>
    <g id="facebook" stroke="none" stroke-width="1" fill="none" fill-rule="evenodd">
        <g id="Group" transform="translate(5.000000, 4.000000)">
            <g id="Group-5" stroke="#333161" stroke-linecap="round" stroke-linejoin="round" stroke-width="1.20000005">
                <path d="M3.125,23.2638889 C1.73611111,21.875 0.347222222,20.6854167 0.347222222,19.2180556 L0.347222222,3.00416667 C0.347222222,1.53680556 1.53680556,0.347222222 3.00416667,0.347222222 L18.3208333,0.347222222 C19.2909722,0.347222222 20.2194444,0.736805556 20.9020833,1.42708333 C21.1027778,1.63055556 21.8145833,2.32291667 22.6583333,3.125" id="Stroke-1"></path>
                <path d="M21.9956944,24.6527778 L5.78180556,24.6527778 C4.31444444,24.6527778 3.12486111,23.4631944 3.12486111,21.9958333 L3.12486111,5.78194444 C3.12486111,4.31458333 4.31444444,3.125 5.78180556,3.125 L21.9956944,3.125 C23.4630556,3.125 24.6526389,4.31458333 24.6526389,5.78194444 L24.6526389,21.9958333 C24.6526389,23.4631944 23.4630556,24.6527778 21.9956944,24.6527778 Z" id="Stroke-3"></path>
            </g>
            <g id="Group-3" transform="translate(11.904762, 10.714286)" fill="#333161">
                <path d="M2.60031746,1.39997143 L2.60031746,1.80568571 L4.18285714,1.80568571 L4.18285714,2.73782857 L2.60031746,2.73782857 L2.60031746,6.44425714 L1.25190476,6.44425714 L1.25190476,2.73782857 L0.000317460317,2.73782857 L0.000317460317,1.80568571 L1.25190476,1.80568571 L1.25190476,1.48282857 C1.25190476,0.924971429 1.38047619,0.538542857 1.6384127,0.323542857 C1.89555556,0.107828571 2.37492063,-2.85714286e-05 3.07412698,-2.85714286e-05 L4.18285714,-2.85714286e-05 L4.18285714,0.932114286 L3.12968254,0.932114286 C2.92650794,0.932114286 2.78920635,0.964971429 2.71698413,1.0314 C2.64555556,1.09782857 2.60666667,1.22068571 2.60031746,1.39997143" id="Fill-1"></path>
            </g>
        </g>
    </g>
</svg>