<?xml version="1.0" encoding="UTF-8"?>
<svg width="35px" height="35px" viewBox="0 0 35 35" version="1.1" xmlns="http://www.w3.org/2000/svg" xmlns:xlink="http://www.w3.org/1999/xlink">
    <!-- Generator: Sketch 52.2 (67145) - http://www.bohemiancoding.com/sketch -->
    <title>facebook_active</title>
    <desc>Created with Sketch.</desc>
    <g id="facebook_active" stroke="none" stroke-width="1" fill="none" fill-rule="evenodd">
        <g id="Group" transform="translate(7.000000, 4.000000)">
            <polygon id="Path-3" fill="#44E291" fill-rule="nonzero" points="14.2900723 2.66453526e-14 17.7626213 1.19860423 4.15987707 9.36249405 3.04662484 26.6071789 -3.55271368e-15 24.4822292 0.601074373 7.96622745"></polygon>
            <g id="Group-5" stroke="#333161" stroke-linecap="round" stroke-linejoin="round" stroke-width="1.68000007">
                <path d="M3.70624242,27.2534957 C2.65654545,26.680713 0.277757576,25.8449739 0.277757576,24.5965391 L0.277757576,10.8016696 C0.277757576,9.55262609 1.17715152,8.01932174 2.28563636,7.37653913 L13.8626061,0.663843478 C14.5959394,0.238365217 15.2971515,0.162886957 15.8129091,0.451408696 C15.9650303,0.536017391 18.2201818,1.3754087 18.8577576,1.68827826" id="Stroke-1"></path>
                <path d="M18.0191515,20.2443043 L5.43066667,27.5443913 C4.41369697,28.1336087 3.58945455,27.5078696 3.58945455,26.1462174 L3.58945455,12.761 C3.58945455,11.3993478 4.41369697,9.81795652 5.43066667,9.22813043 L18.0191515,1.92865217 C19.0361212,1.33882609 19.8603636,1.96456522 19.8603636,3.32621739 L19.8603636,16.7114348 C19.8603636,18.073087 19.0361212,19.655087 18.0191515,20.2443043 Z" id="Stroke-3"></path>
            </g>
            <g id="Group-3" transform="translate(10.588235, 10.956522)" fill="#333161">
                <path d="M2.00181176,2.24617549 L2.00181176,2.67381186 L3.22228235,1.90143241 L3.22228235,2.88220711 L2.00181176,3.65458656 L2.00181176,7.55676838 L0.963458824,8.2152664 L0.963458824,4.31308458 L-7.05882353e-05,4.92432569 L-7.05882353e-05,3.94277628 L0.963458824,3.33153518 L0.963458824,2.99144032 C0.963458824,2.40421502 1.06298824,1.93474466 1.26134118,1.58225455 C1.45969412,1.22976443 1.82816471,0.882697233 2.36745882,0.541052964 L3.22228235,0.000309881423 L3.22228235,0.981084585 L2.40981176,1.49548775 C2.25381176,1.5946498 2.14792941,1.69613597 2.09287059,1.80072095 C2.0364,1.90608063 2.00745882,2.05404901 2.00181176,2.24617549" id="Fill-1"></path>
            </g>
        </g>
    </g>
</svg>