<?xml version="1.0" encoding="UTF-8"?>
<svg width="35px" height="35px" viewBox="0 0 35 35" version="1.1" xmlns="http://www.w3.org/2000/svg" xmlns:xlink="http://www.w3.org/1999/xlink">
    <!-- Generator: Sketch 52.2 (67145) - http://www.bohemiancoding.com/sketch -->
    <title>git_active</title>
    <desc>Created with Sketch.</desc>
    <g id="git_active" stroke="none" stroke-width="1" fill="none" fill-rule="evenodd">
        <g id="Group" transform="translate(7.000000, 4.000000)">
            <g id="Group-5">
                <polygon id="Path-3" fill="#44E291" fill-rule="nonzero" points="14.2900723 0 17.7626213 1.19860423 4.15987707 9.36249405 3.04662484 26.6071789 0 24.4822292 0.601074373 7.96622745"></polygon>
                <path d="M3.70624242,27.2534957 C2.65654545,26.680713 0.277757576,25.8449739 0.277757576,24.5965391 L0.277757576,10.8016696 C0.277757576,9.55262609 1.17715152,8.01932174 2.28563636,7.37653913 L13.8626061,0.663843478 C14.5959394,0.238365217 15.2971515,0.162886957 15.8129091,0.451408696 C15.9650303,0.536017391 18.2201818,1.3754087 18.8577576,1.68827826" id="Stroke-1" stroke="#333161" stroke-width="1.68000007" stroke-linecap="round" stroke-linejoin="round"></path>
                <path d="M18.0191515,20.2443043 L5.43066667,27.5443913 C4.41369697,28.1336087 3.58945455,27.5078696 3.58945455,26.1462174 L3.58945455,12.761 C3.58945455,11.3993478 4.41369697,9.81795652 5.43066667,9.22813043 L18.0191515,1.92865217 C19.0361212,1.33882609 19.8603636,1.96456522 19.8603636,3.32621739 L19.8603636,16.7114348 C19.8603636,18.073087 19.0361212,19.655087 18.0191515,20.2443043 Z" id="Stroke-3" stroke="#333161" stroke-width="1.68000007" stroke-linecap="round" stroke-linejoin="round"></path>
            </g>
            <g id="Group-9" transform="translate(5.882353, 7.304348)" fill="#333161">
                <path d="M2.54581699,9.24920348 C2.54581699,8.8379687 2.47679739,8.54871652 2.33947712,8.38144696 C2.20287582,8.21344696 2.02169935,8.19518609 1.79882353,8.32666435 C1.57666667,8.45668174 1.39836601,8.68457739 1.26248366,9.01108174 C1.12588235,9.33831652 1.05901961,9.70791652 1.05901961,10.1213426 C1.05901961,10.5384209 1.12588235,10.8305948 1.26248366,10.9971339 C1.39836601,11.163673 1.57666667,11.1819339 1.79882353,11.0519165 C2.02169935,10.9211687 2.20287582,10.6910817 2.33947712,10.3631165 C2.47679739,10.0344209 2.54581699,9.66262957 2.54581699,9.24920348 Z M3.60339869,10.659673 C3.60339869,11.3959513 3.45745098,12.01536 3.1648366,12.514247 C2.87150327,13.0131339 2.39699346,13.4557774 1.74130719,13.8407165 C1.51915033,13.9707339 1.30058824,14.0810296 1.08418301,14.170873 C0.866339869,14.2607165 0.647058824,14.3322991 0.422745098,14.3878122 L0.422745098,13.2812035 C0.621895425,13.2906991 0.825359477,13.2644035 1.03313725,13.203047 C1.24019608,13.1424209 1.45300654,13.0474643 1.67228758,12.9189078 C1.96993464,12.7436035 2.19065359,12.5346991 2.33228758,12.2907339 C2.47392157,12.0474991 2.54581699,11.7553252 2.54581699,11.415673 L2.54581699,10.918247 C2.44156863,11.1980035 2.30424837,11.4419687 2.13457516,11.6494122 C1.9627451,11.8553948 1.75496732,12.0314296 1.50980392,12.1753252 C1.04751634,12.4463165 0.679411765,12.4565426 0.408366013,12.2045426 C0.135882353,11.953273 0,11.4755687 0,10.7706991 C0,10.0417252 0.135882353,9.38360348 0.408366013,8.79633391 C0.679411765,8.20979478 1.04464052,7.78176 1.50261438,7.51369043 C1.73267974,7.37782957 1.93901961,7.31866435 2.11875817,7.33619478 C2.29993464,7.35372522 2.44156863,7.44429913 2.54581699,7.60864696 L2.54581699,7.02064696 L3.60339869,6.40050783 L3.60339869,10.659673 Z" id="Fill-1"></path>
                <path d="M5.93137255,2.79405913 L6.99039216,2.17318957 L6.99039216,3.57927652 L5.93137255,4.20014609 L5.93137255,2.79405913 Z M4.89679739,5.64202435 L6.99039216,4.41416348 L6.99039216,8.09336348 L8.30464052,7.32275478 L8.30464052,8.24748522 L4.61424837,10.4117635 L4.61424837,9.48703304 L5.93137255,8.71350261 L5.93137255,5.95976348 L4.89679739,6.56748522 L4.89679739,5.64202435 Z" id="Fill-4"></path>
                <path d="M11.041268,0.730434783 L11.041268,2.03791304 L12.423098,1.22713043 L12.423098,2.15186087 L11.041268,2.96337391 L11.041268,5.14153043 C11.041268,5.34751304 11.0851242,5.46876522 11.1735556,5.50674783 C11.260549,5.544 11.4064967,5.50236522 11.6113987,5.38257391 L12.423098,4.90633043 L12.423098,5.83106087 L11.5351895,6.3525913 C10.9291111,6.70831304 10.5185882,6.83833043 10.3043399,6.74337391 C10.0893725,6.64914783 9.98224837,6.3021913 9.98224837,5.70542609 L9.98224837,3.58351304 L8.95054902,4.18904348 L8.95054902,3.26431304 L9.98224837,2.65878261 L9.98224837,1.35130435 L11.041268,0.730434783 Z" id="Fill-6"></path>
            </g>
        </g>
    </g>
</svg>