<?xml version="1.0" encoding="UTF-8"?>
<svg width="288px" height="294px" viewBox="0 0 288 294" version="1.1" xmlns="http://www.w3.org/2000/svg" xmlns:xlink="http://www.w3.org/1999/xlink">
    <!-- Generator: Sketch 52.2 (67145) - http://www.bohemiancoding.com/sketch -->
    <title>Group 108</title>
    <desc>Created with Sketch.</desc>
    <defs>
        <polygon id="path-1" points="0 0.823 287.5 0.823 287.5 293.999822 0 293.999822"></polygon>
    </defs>
    <g id="Page-1" stroke="none" stroke-width="1" fill="none" fill-rule="evenodd">
        <g id="Group-108" transform="translate(0.000000, -1.000000)">
            <g id="Group-3" transform="translate(0.000000, 0.177000)">
                <mask id="mask-2" fill="white">
                    <use xlink:href="#path-1"></use>
                </mask>
                <g id="Clip-2"></g>
                <path d="M21.5889,118.9356 C28.5339,135.7766 -0.0001,157.7966 -0.0001,184.5666 C-0.0001,211.3376 63.9219,208.0566 63.0399,242.4266 C61.3139,309.7836 135.1929,309.5786 167.5319,251.0616 C203.8019,185.4306 181.2299,205.9116 234.8909,188.8846 C324.7009,160.3866 277.1309,118.5566 254.7529,95.6196 C220.2099,60.2126 260.7979,3.2176 189.9849,12.7166 C145.1099,18.7366 84.6299,-27.0074 82.9019,29.1246 C81.1759,85.2566 -12.9531,35.1696 21.5889,118.9356" id="Fill-1" fill="#F4F5F7" mask="url(#mask-2)"></path>
            </g>
            <path d="M262.7959,54.3914 C257.7059,57.1694 249.5909,56.9884 244.6709,53.9884 C239.7509,50.9874 239.8889,46.3034 244.9799,43.5254 C250.0689,40.7474 258.1849,40.9284 263.1049,43.9284 C268.0249,46.9294 267.8869,51.6134 262.7959,54.3914 M241.5859,41.4554 C234.5569,45.2914 234.3649,51.7604 241.1599,55.9044 C247.2299,59.6054 256.8119,60.1894 263.7999,57.5394 L280.1149,67.4904 L284.5049,65.0954 L268.1899,55.1444 C273.1639,51.2664 272.6859,45.7144 266.6159,42.0124 C259.8209,37.8694 248.6149,37.6194 241.5859,41.4554" id="Fill-4" fill="#E9E8F7"></path>
            <path d="M262.7959,54.3914 C257.7059,57.1694 249.5909,56.9884 244.6709,53.9884 C239.7509,50.9874 239.8889,46.3034 244.9799,43.5254 C250.0689,40.7474 258.1849,40.9284 263.1049,43.9284 C268.0249,46.9294 267.8869,51.6134 262.7959,54.3914 Z M241.5859,41.4554 C234.5569,45.2914 234.3649,51.7604 241.1599,55.9044 C247.2299,59.6054 256.8119,60.1894 263.7999,57.5394 L280.1149,67.4904 L284.5049,65.0954 L268.1899,55.1444 C273.1639,51.2664 272.6859,45.7144 266.6159,42.0124 C259.8209,37.8694 248.6149,37.6194 241.5859,41.4554 Z" id="Stroke-6" stroke="#000000"></path>
            <path d="M251.7871,63.0531 C255.5361,65.3391 255.4311,68.9081 251.5521,71.0251 C247.6741,73.1411 241.4911,73.0041 237.7421,70.7181 C233.9941,68.4311 234.1001,64.8631 237.9771,62.7461 C241.8551,60.6291 248.0391,60.7671 251.7871,63.0531" id="Fill-8" fill="#E9E8F7"></path>
            <path d="M251.7871,63.0531 C255.5361,65.3391 255.4311,68.9081 251.5521,71.0251 C247.6741,73.1411 241.4911,73.0041 237.7421,70.7181 C233.9941,68.4311 234.1001,64.8631 237.9771,62.7461 C241.8551,60.6291 248.0391,60.7671 251.7871,63.0531 Z" id="Stroke-10" stroke="#000000"></path>
            <path d="M239.4531,75.4534 C240.3901,76.0254 240.3631,76.9174 239.3941,77.4464 C238.4251,77.9754 236.8791,77.9414 235.9411,77.3694 C235.0051,76.7984 235.0311,75.9054 236.0001,75.3764 C236.9701,74.8474 238.5161,74.8824 239.4531,75.4534" id="Fill-12" fill="#E9E8F7"></path>
            <path d="M239.4531,75.4534 C240.3901,76.0254 240.3631,76.9174 239.3941,77.4464 C238.4251,77.9754 236.8791,77.9414 235.9411,77.3694 C235.0051,76.7984 235.0311,75.9054 236.0001,75.3764 C236.9701,74.8474 238.5161,74.8824 239.4531,75.4534 Z" id="Stroke-14" stroke="#000000"></path>
            <polygon id="Fill-16" fill="#433A84" points="146.6738 139.1307 46.2148 197.1307 46.2148 81.8547 146.6738 23.8547"></polygon>
            <polygon id="Stroke-18" stroke="#000000" points="146.6738 139.1307 46.2148 197.1307 46.2148 81.8547 146.6738 23.8547"></polygon>
            <path d="M88.7383,140.8172 L88.7383,149.8362 C88.7383,152.4622 90.5943,153.5202 92.8833,152.1982 L96.0763,150.3552 C98.3653,149.0332 100.2203,150.0912 100.2203,152.7182 L100.2203,160.5392" id="Stroke-20" stroke="#44E291"></path>
            <path d="M115.3203,105.9984 L121.8673,102.2184 C125.1813,100.3044 127.8683,95.6694 127.8683,91.8664 C127.8683,88.0624 130.5553,83.4284 133.8703,81.5144 L139.3263,78.3644" id="Stroke-22" stroke="#44E291"></path>
            <polygon id="Fill-24" fill="#44E291" points="115.4971 125.3807 73.0611 149.8807 73.0611 101.1867 115.4971 76.6867"></polygon>
            <polygon id="Stroke-26" stroke="#000000" points="115.4971 125.3807 73.0611 149.8807 73.0611 101.1867 115.4971 76.6867"></polygon>
            <polygon id="Fill-28" fill="#44E291" points="168.3867 88.3245 138.9417 105.3245 138.9417 71.5365 168.3867 54.5365"></polygon>
            <polygon id="Stroke-30" stroke="#000000" points="168.3867 88.3245 138.9417 105.3245 138.9417 71.5365 168.3867 54.5365"></polygon>
            <polygon id="Fill-32" fill="#44E291" points="113.7646 186.95 84.3196 203.95 84.3196 170.162 113.7646 153.162"></polygon>
            <polygon id="Stroke-34" stroke="#000000" points="113.7646 186.95 84.3196 203.95 84.3196 170.162 113.7646 153.162"></polygon>
            <polygon id="Fill-36" fill="#FFDC4A" points="120.5684 193.8851 101.9434 204.6381 101.9434 183.2661 120.5684 172.5131"></polygon>
            <polygon id="Stroke-38" stroke="#000000" points="120.5684 193.8851 101.9434 204.6381 101.9434 183.2661 120.5684 172.5131"></polygon>
            <polygon id="Fill-40" fill="#FFDC4A" points="225.6865 198.1038 125.2285 256.1038 125.4975 141.2928 225.9565 83.2928"></polygon>
            <polygon id="Stroke-42" stroke="#000000" points="225.6865 198.1038 125.2285 256.1038 125.4975 141.2928 225.9565 83.2928"></polygon>
            <path d="M146.8936,158.1741 L146.8936,158.2821 C146.8936,159.9111 146.8946,161.5411 146.8926,163.1721 C146.8926,163.3041 146.8856,163.4421 146.8676,163.5841 C146.8276,163.8841 146.7116,164.1681 146.4546,164.3811 C146.0626,164.7041 145.7906,164.7591 145.5696,164.5351 C145.5096,164.4741 145.4576,164.4021 145.4036,164.3341 C145.3906,164.3181 145.3786,164.3011 145.3636,164.2801 C145.0106,164.7291 144.6626,165.1731 144.3146,165.6151 C144.3196,165.6311 144.3216,165.6401 144.3256,165.6471 C144.5386,166.0181 144.8486,166.2221 145.2916,166.1921 C145.7986,166.1561 146.3276,165.8721 146.8606,165.4291 C147.3056,165.0591 147.6676,164.5861 147.9086,163.9901 C148.1036,163.5061 148.1826,163.0501 148.1836,162.6221 C148.1876,160.9121 148.1866,159.2051 148.1866,157.4981 C148.1866,157.4761 148.1836,157.4561 148.1816,157.4301 C147.7536,157.6771 147.3306,157.9221 146.8936,158.1741 M149.8946,161.8131 C149.9076,161.8351 149.9146,161.8511 149.9236,161.8651 C150.1296,162.1801 150.4116,162.3741 150.7886,162.3931 C151.5976,162.4351 152.4436,161.9961 153.3046,161.1441 C153.6866,160.7671 153.9886,160.3061 154.1886,159.7771 C154.3656,159.3131 154.4146,158.8911 154.3956,158.4931 C154.3696,157.9091 154.1636,157.5331 153.7526,157.3901 C153.4806,157.2941 153.1726,157.2871 152.8546,157.3061 C152.5896,157.3211 152.3196,157.3521 152.0596,157.3551 C151.9336,157.3561 151.8126,157.3311 151.7096,157.2811 C151.4736,157.1661 151.4696,156.5221 151.9506,156.0781 C152.2326,155.8171 152.6096,155.6571 152.8556,155.8831 C152.9116,155.9351 152.9606,155.9951 153.0176,156.0551 C153.3496,155.6181 153.6816,155.1811 154.0136,154.7451 C154.0106,154.7341 154.0106,154.7261 154.0066,154.7211 C153.7916,154.4141 153.5076,154.2271 153.0996,154.2711 C152.6166,154.3231 152.1146,154.5911 151.6106,155.0161 C151.1366,155.4161 150.7566,155.9261 150.5046,156.5611 C150.3176,157.0321 150.2626,157.4601 150.2866,157.8621 C150.3176,158.3801 150.4906,158.7401 150.8396,158.9051 C151.1136,159.0341 151.4356,159.0431 151.7716,159.0191 C152.0436,159.0001 152.3186,158.9731 152.5846,158.9701 C152.7106,158.9681 152.8306,158.9941 152.9346,159.0431 C153.0956,159.1191 153.1356,159.3231 153.0866,159.5921 C153.0326,159.8881 152.8666,160.1361 152.6526,160.3421 C152.3236,160.6611 151.9936,160.8331 151.6706,160.8701 C151.3706,160.9051 151.1636,160.7611 150.9906,160.5581 C150.9756,160.5421 150.9606,160.5271 150.9446,160.5081 C150.5916,160.9461 150.2466,161.3761 149.8946,161.8131 M140.6836,171.3451 L140.6836,152.4761 C145.2896,149.8171 151.3946,146.1581 155.9996,143.4991 L155.9996,162.3681 C151.3946,165.0271 145.2896,168.6861 140.6836,171.3451" id="Fill-44" fill="#FFB510"></path>
            <path d="M199.4502,123.7308 L199.4502,127.0738 C198.7782,127.4618 198.1362,127.8328 197.4732,128.2148 L197.4732,121.2318 C197.9932,120.9318 198.5012,120.6778 199.0022,120.3378 C199.4422,120.0388 199.6932,120.0668 199.8922,120.3998 C200.1422,120.8188 200.4602,121.1608 200.7492,121.5348 C200.7882,121.5848 200.8332,121.6298 200.8972,121.7038 C200.9852,121.4898 201.0572,121.3148 201.1292,121.1408 C201.4542,120.3428 201.7752,119.5458 202.1062,118.7498 C202.1502,118.6438 202.2382,118.4918 202.3062,118.4508 C202.9672,118.0558 203.6272,117.6798 204.3042,117.2888 L204.3042,124.2648 C203.6542,124.6408 202.9972,125.0198 202.3132,125.4148 L202.3132,122.0868 C202.2912,122.0888 202.2672,122.0918 202.2452,122.0938 C201.7952,123.1518 201.3452,124.2098 200.8752,125.3128 C200.4042,124.7518 199.9552,124.2148 199.5062,123.6788 C199.4872,123.6958 199.4692,123.7128 199.4502,123.7308" id="Fill-46" fill="#FFB510"></path>
            <path d="M187.7891,127.7933 L187.7891,134.7453 C187.1241,135.1283 186.4671,135.5083 185.7801,135.9043 L185.7801,133.5953 C185.1431,133.9633 184.5321,134.3163 183.9001,134.6813 L183.9001,136.9883 C183.2211,137.3803 182.5621,137.7603 181.8821,138.1533 L181.8821,131.1933 C182.5491,130.8083 183.2071,130.4283 183.9011,130.0273 L183.9011,130.7773 C183.9011,131.2243 183.8961,131.6733 183.9061,132.1143 C183.9081,132.1853 183.9761,132.2753 184.0171,132.2533 C184.5901,131.9353 185.1641,131.6003 185.7631,131.2543 L185.7631,128.9623 C186.4491,128.5663 187.1111,128.1843 187.7891,127.7933" id="Fill-48" fill="#FFB510"></path>
            <path d="M195.4316,122.9046 L195.4316,125.1826 C194.8476,125.5206 194.2686,125.8546 193.6526,126.2106 L193.6526,130.8936 C192.9566,131.2946 192.2986,131.6756 191.6116,132.0716 L191.6116,127.4036 C191.0036,127.7536 190.4246,128.0886 189.8326,128.4296 L189.8326,126.1366 C191.6966,125.0616 193.5516,123.9896 195.4316,122.9046" id="Fill-50" fill="#FFB510"></path>
            <path d="M208.5029,119.0765 C208.9779,118.8025 209.4189,118.5475 209.8609,118.2915 C210.2979,118.0395 210.7329,117.7825 211.1699,117.5435 C211.2359,117.5065 211.3569,117.5245 211.3579,117.5735 C211.3709,118.2785 211.3669,118.9935 211.3669,119.7225 C209.7259,120.6705 208.1099,121.6035 206.4709,122.5495 C206.4669,122.4515 206.4589,122.3605 206.4589,122.2645 C206.4589,120.1385 206.4629,118.0095 206.4539,115.8875 C206.4529,115.6395 206.5129,115.5335 206.7279,115.4155 C207.2409,115.1365 207.7559,114.8365 208.2699,114.5265 C208.4549,114.4145 208.5079,114.4515 208.5069,114.6635 C208.4989,116.0255 208.5029,117.3825 208.5029,118.7405 L208.5029,119.0765 Z" id="Fill-52" fill="#FFB510"></path>
            <polygon id="Fill-54" fill="#FFFFFF" points="265.4004 216.3509 164.9414 274.3509 164.9414 159.0749 265.4004 101.0749"></polygon>
            <polygon id="Stroke-56" stroke="#000000" points="265.4004 216.3509 164.9414 274.3509 164.9414 159.0749 265.4004 101.0749"></polygon>
            <path d="M185.3369,173.7996 L185.3369,177.7056 C185.8749,177.1746 186.2379,176.6946 186.4289,176.2646 C186.6179,175.8356 186.7139,175.4226 186.7139,175.0266 C186.7139,174.6416 186.6199,174.3656 186.4329,174.1996 C186.2449,174.0326 185.8799,173.8996 185.3369,173.7996 Z M184.3009,171.8836 L184.3009,167.9606 C183.8029,168.3786 183.4189,168.8156 183.1499,169.2706 C182.8809,169.7266 182.7479,170.1536 182.7479,170.5566 C182.7479,170.9356 182.8609,171.2336 183.0909,171.4486 C183.3209,171.6646 183.7249,171.8096 184.3009,171.8836 Z M184.3009,181.0816 L184.3009,179.7486 C183.9699,179.9396 183.6259,180.1176 183.2709,180.2836 C182.9139,180.4496 182.5799,180.5816 182.2689,180.6796 C181.9569,180.7776 181.5989,180.8386 181.1929,180.8626 L181.1929,179.2326 C181.5199,179.2366 181.8389,179.2166 182.1539,179.1706 C182.4679,179.1256 182.7989,179.0416 183.1479,178.9196 C183.4959,178.7976 183.8809,178.6316 184.3009,178.4236 L184.3009,173.6926 L183.5079,173.6586 C182.0039,173.6036 181.2519,172.9226 181.2519,171.6146 C181.2519,170.9186 181.5019,170.0956 182.0019,169.1486 C182.5009,168.2006 183.2679,167.3776 184.3009,166.6776 L184.3009,165.2686 L185.3369,164.6706 L185.3369,166.0796 C185.9219,165.7426 186.6119,165.4596 187.4089,165.2326 L187.4089,166.7006 L187.1489,166.7656 C186.4019,166.9606 185.7979,167.1646 185.3369,167.3796 L185.3369,171.9996 L186.1689,172.0626 C186.9499,172.1276 187.4849,172.3246 187.7749,172.6556 C188.0639,172.9876 188.2089,173.4326 188.2089,173.9926 C188.2089,174.4966 188.0989,175.0496 187.8789,175.6486 C187.6589,176.2486 187.3429,176.8366 186.9329,177.4136 C186.5229,177.9906 185.9899,178.5316 185.3369,179.0396 L185.3369,180.4836 L184.3009,181.0816 Z" id="Fill-58" fill="#C7C6CA"></path>
            <polygon id="Fill-60" fill="#C7C6CA" points="189.6221 178.0091 189.6221 176.6931 197.6601 172.0521 197.6601 173.3681"></polygon>
            <path d="M61.7998,92.0155 L64.1748,90.6435 L64.1748,90.5125 C64.1748,90.0675 64.0788,89.7675 63.8898,89.6145 C63.6988,89.4615 63.4448,89.4755 63.1258,89.6605 C62.8048,89.8465 62.5278,90.1405 62.2928,90.5435 C62.0578,90.9465 61.8938,91.4375 61.7998,92.0155 Z M64.9668,93.0905 C64.3338,93.7995 63.7338,94.3195 63.1688,94.6455 C62.7398,94.8935 62.3558,94.9925 62.0178,94.9425 C61.6798,94.8935 61.4088,94.7005 61.2048,94.3635 C61.0018,94.0255 60.9008,93.5985 60.9008,93.0805 C60.9008,92.5805 60.9968,92.0465 61.1908,91.4755 C61.3828,90.9055 61.6538,90.3915 62.0008,89.9345 C62.3478,89.4785 62.7338,89.1275 63.1588,88.8825 C63.7258,88.5555 64.1798,88.5235 64.5238,88.7875 C64.8648,89.0535 65.0348,89.6685 65.0348,90.6325 L65.0348,90.8275 L61.7528,92.7225 C61.7528,93.1015 61.8228,93.4095 61.9598,93.6425 C62.0978,93.8765 62.2788,94.0085 62.5038,94.0345 C62.7288,94.0625 62.9848,93.9935 63.2718,93.8275 C63.7828,93.5325 64.3498,93.0095 64.9668,92.2595 L64.9668,93.0905 Z" id="Fill-62" fill="#7874AA"></path>
            <polygon id="Fill-64" fill="#7874AA" points="66.7441 92.429 65.8281 92.958 67.6941 89.03 65.9461 87.424 66.9651 86.836 68.1991 87.97 69.4081 85.426 70.3081 84.906 68.6581 88.39 70.6201 90.192 69.6011 90.779 68.1541 89.452"></polygon>
            <path d="M72.2207,86.1136 L72.2207,88.4596 C72.5067,88.3786 72.7717,88.2696 73.0127,88.1296 C73.4927,87.8526 73.8987,87.4026 74.2257,86.7806 C74.5547,86.1586 74.7187,85.4706 74.7187,84.7206 C74.7187,84.1746 74.6297,83.8156 74.4497,83.6466 C74.2717,83.4746 74.0677,83.4556 73.8417,83.5866 C73.5927,83.7296 73.3217,84.0296 73.0237,84.4886 C72.7267,84.9476 72.4577,85.4896 72.2207,86.1136 Z M72.2207,85.0306 C72.4647,84.4336 72.7557,83.9216 73.0947,83.4936 C73.4327,83.0666 73.7427,82.7716 74.0287,82.6066 C74.4257,82.3776 74.7837,82.3686 75.1017,82.5796 C75.4207,82.7906 75.5807,83.2956 75.5807,84.0976 C75.5807,84.7316 75.4747,85.3576 75.2617,85.9766 C75.0507,86.5966 74.7677,87.1526 74.4167,87.6446 C74.0637,88.1376 73.6267,88.5336 73.1077,88.8346 C72.9587,88.9196 72.7317,89.0326 72.4247,89.1736 C72.3797,89.1936 72.3117,89.2256 72.2207,89.2666 L72.2207,91.3906 L71.4277,91.8486 L71.4277,84.2596 L72.2207,83.8016 L72.2207,85.0306 Z" id="Fill-66" fill="#7874AA"></path>
            <path d="M77.1328,86.431 L77.1328,80.966 L77.9268,80.508 L77.9268,81.702 C78.1728,81.11 78.4568,80.609 78.7768,80.202 C79.0958,79.792 79.4528,79.475 79.8448,79.249 C80.1308,79.083 80.4188,78.968 80.7048,78.903 L80.7048,80.875 L79.9438,81.316 L79.9438,80.068 C79.8088,80.119 79.7038,80.166 79.6268,80.211 C79.3308,80.381 79.0408,80.683 78.7568,81.114 C78.4718,81.547 78.1948,82.107 77.9268,82.798 L77.9268,85.973 L77.1328,86.431 Z" id="Fill-68" fill="#7874AA"></path>
            <path d="M82.7598,79.9144 L85.1348,78.5424 L85.1348,78.4114 C85.1348,77.9664 85.0388,77.6664 84.8498,77.5134 C84.6588,77.3604 84.4048,77.3744 84.0858,77.5594 C83.7648,77.7454 83.4878,78.0394 83.2518,78.4424 C83.0178,78.8454 82.8538,79.3364 82.7598,79.9144 Z M85.9268,80.9894 C85.2938,81.6984 84.6938,82.2184 84.1288,82.5444 C83.6988,82.7924 83.3158,82.8914 82.9778,82.8414 C82.6398,82.7924 82.3678,82.5994 82.1648,82.2624 C81.9618,81.9244 81.8608,81.4974 81.8608,80.9794 C81.8608,80.4794 81.9558,79.9454 82.1508,79.3744 C82.3428,78.8044 82.6138,78.2904 82.9608,77.8334 C83.3068,77.3774 83.6938,77.0264 84.1188,76.7814 C84.6858,76.4544 85.1398,76.4224 85.4838,76.6864 C85.8248,76.9524 85.9948,77.5674 85.9948,78.5314 L85.9948,78.7264 L82.7128,80.6214 C82.7128,81.0004 82.7808,81.3074 82.9198,81.5414 C83.0578,81.7754 83.2388,81.9074 83.4638,81.9334 C83.6888,81.9614 83.9448,81.8924 84.2318,81.7264 C84.7408,81.4314 85.3088,80.9084 85.9268,80.1584 L85.9268,80.9894 Z" id="Fill-70" fill="#7874AA"></path>
            <path d="M87.2627,80.2938 L87.2627,79.3298 C87.5807,79.3848 87.9177,79.3568 88.2727,79.2488 C88.6277,79.1398 88.9297,79.0138 89.1767,78.8708 C89.5777,78.6398 89.8667,78.3978 90.0427,78.1478 C90.2197,77.8978 90.3057,77.6628 90.3057,77.4408 C90.3057,77.2938 90.2657,77.1918 90.1837,77.1348 C90.1007,77.0788 89.8957,77.0668 89.5697,77.1028 L89.2957,77.1338 L88.7457,77.2008 C88.1557,77.2788 87.7837,77.2488 87.6287,77.1128 C87.4727,76.9818 87.3937,76.7558 87.3937,76.4358 C87.3937,75.9858 87.5457,75.5278 87.8497,75.0628 C88.1527,74.5968 88.6447,74.1688 89.3247,73.7758 C89.8337,73.4818 90.3167,73.2888 90.7717,73.1948 L90.7717,74.0218 C90.2477,74.1078 89.7547,74.2858 89.2947,74.5518 C88.9577,74.7468 88.6947,74.9648 88.5057,75.2098 C88.3167,75.4548 88.2227,75.6778 88.2227,75.8788 C88.2227,76.0748 88.3037,76.1848 88.4697,76.2058 C88.6317,76.2298 88.8957,76.2128 89.2627,76.1548 L89.8017,76.0688 C90.2927,75.9908 90.6377,76.0148 90.8377,76.1408 C91.0347,76.2678 91.1347,76.5128 91.1347,76.8758 C91.1347,77.3478 90.9757,77.8288 90.6587,78.3158 C90.3417,78.8038 89.8347,79.2498 89.1387,79.6518 C88.5307,80.0028 87.9057,80.2168 87.2627,80.2938" id="Fill-72" fill="#7874AA"></path>
            <path d="M92.502,77.2684 L92.502,76.3054 C92.82,76.3594 93.156,76.3314 93.513,76.2234 C93.867,76.1154 94.169,75.9884 94.417,75.8464 C94.816,75.6144 95.106,75.3734 95.282,75.1224 C95.459,74.8724 95.546,74.6384 95.546,74.4154 C95.546,74.2684 95.506,74.1664 95.423,74.1104 C95.341,74.0534 95.136,74.0424 94.808,74.0784 L94.535,74.1084 L93.985,74.1764 C93.395,74.2544 93.023,74.2234 92.868,74.0884 C92.712,73.9564 92.634,73.7304 92.634,73.4114 C92.634,72.9604 92.786,72.5024 93.089,72.0374 C93.391,71.5724 93.883,71.1434 94.564,70.7504 C95.073,70.4564 95.556,70.2634 96.01,70.1694 L96.01,70.9974 C95.487,71.0834 94.995,71.2604 94.533,71.5274 C94.197,71.7214 93.935,71.9394 93.746,72.1844 C93.557,72.4294 93.462,72.6524 93.462,72.8544 C93.462,73.0504 93.543,73.1594 93.708,73.1814 C93.871,73.2054 94.136,73.1874 94.502,73.1294 L95.041,73.0444 C95.533,72.9654 95.877,72.9894 96.076,73.1164 C96.274,73.2434 96.374,73.4874 96.374,73.8504 C96.374,74.3224 96.216,74.8034 95.898,75.2914 C95.582,75.7784 95.075,76.2254 94.378,76.6264 C93.771,76.9774 93.145,77.1914 92.502,77.2684" id="Fill-74" fill="#7874AA"></path>
            <path d="M182.9805,61.4344 C183.2265,61.4404 183.4065,61.4834 183.5215,61.5594 C183.6355,61.6374 183.7215,61.7334 183.7795,61.8524 C183.8355,61.9704 183.8645,62.1264 183.8645,62.3204 C183.8645,62.4944 183.8365,62.7364 183.7855,63.0474 L183.6855,63.6244 C183.6325,63.9384 183.6065,64.1634 183.6065,64.3004 C183.6065,64.4864 183.6685,64.6074 183.7945,64.6644 C183.9205,64.7204 184.1805,64.6354 184.5735,64.4084 L185.1895,64.0524 L185.1895,64.7604 L184.5665,65.1204 C183.8395,65.5394 183.3735,65.6754 183.1635,65.5294 C182.9545,65.3814 182.8495,65.1394 182.8495,64.8014 C182.8495,64.6214 182.8705,64.4174 182.9095,64.1874 L182.9805,63.7814 L183.0475,63.3444 L183.0965,63.0744 C183.1155,62.9514 183.1245,62.8364 183.1245,62.7304 C183.1245,62.4474 183.0415,62.2524 182.8765,62.1474 C182.7105,62.0414 182.4185,62.1104 182.0015,62.3514 L181.6475,62.5554 L181.6475,61.8474 L182.0015,61.6434 C182.4145,61.4054 182.7045,61.1394 182.8725,60.8434 C183.0405,60.5494 183.1245,60.2534 183.1245,59.9584 C183.1245,59.8494 183.1155,59.7484 183.0965,59.6554 L183.0475,59.4454 L182.9805,59.0874 L182.9095,58.7634 C182.8705,58.5764 182.8495,58.3924 182.8495,58.2134 C182.8495,57.8784 182.9545,57.5164 183.1635,57.1254 C183.3735,56.7354 183.8395,56.3314 184.5665,55.9124 L185.1895,55.5524 L185.1895,56.2594 L184.5735,56.6154 C184.1825,56.8404 183.9235,57.0554 183.7975,57.2584 C183.6695,57.4624 183.6065,57.6584 183.6065,57.8474 C183.6065,57.9814 183.6325,58.1764 183.6855,58.4294 L183.7855,58.8924 C183.8365,59.1424 183.8645,59.3524 183.8645,59.5264 C183.8645,59.7224 183.8355,59.9104 183.7795,60.0944 C183.7215,60.2774 183.6355,60.4744 183.5215,60.6834 C183.4065,60.8924 183.2265,61.1424 182.9805,61.4344" id="Fill-76" fill="#000000"></path>
            <path d="M188.1377,61.575 C187.9587,61.678 187.8067,61.693 187.6797,61.619 C187.5527,61.548 187.4897,61.409 187.4897,61.205 C187.4897,60.998 187.5537,60.785 187.6817,60.567 C187.8107,60.348 187.9627,60.188 188.1377,60.087 C188.3127,59.986 188.4637,59.971 188.5927,60.041 C188.7217,60.111 188.7847,60.25 188.7847,60.457 C188.7847,60.661 188.7217,60.872 188.5957,61.091 C188.4677,61.311 188.3157,61.472 188.1377,61.575" id="Fill-78" fill="#000000"></path>
            <path d="M193.0264,58.7523 C192.8484,58.8553 192.6964,58.8703 192.5694,58.7963 C192.4414,58.7253 192.3784,58.5863 192.3784,58.3823 C192.3784,58.1753 192.4424,57.9623 192.5714,57.7443 C192.6994,57.5253 192.8514,57.3653 193.0264,57.2643 C193.2024,57.1633 193.3534,57.1483 193.4814,57.2183 C193.6104,57.2883 193.6744,57.4273 193.6744,57.6343 C193.6744,57.8383 193.6114,58.0493 193.4844,58.2683 C193.3564,58.4883 193.2044,58.6493 193.0264,58.7523" id="Fill-80" fill="#000000"></path>
            <path d="M197.917,55.929 C197.738,56.032 197.586,56.047 197.459,55.973 C197.332,55.902 197.269,55.763 197.269,55.559 C197.269,55.352 197.332,55.139 197.461,54.921 C197.59,54.702 197.742,54.542 197.917,54.441 C198.092,54.34 198.243,54.325 198.372,54.395 C198.5,54.465 198.564,54.604 198.564,54.811 C198.564,55.015 198.501,55.226 198.374,55.445 C198.247,55.665 198.095,55.826 197.917,55.929" id="Fill-82" fill="#000000"></path>
            <path d="M203.0732,49.8338 C202.8262,49.8268 202.6452,49.7848 202.5302,49.7088 C202.4142,49.6318 202.3292,49.5348 202.2732,49.4168 C202.2182,49.2978 202.1892,49.1418 202.1892,48.9468 C202.1892,48.7728 202.2152,48.5318 202.2652,48.2228 L202.3642,47.6458 C202.4182,47.3308 202.4442,47.1048 202.4442,46.9668 C202.4442,46.7798 202.3822,46.6588 202.2562,46.6018 C202.1302,46.5448 201.8702,46.6288 201.4772,46.8558 L200.8602,47.2118 L200.8602,46.5048 L201.4852,46.1438 C202.2122,45.7248 202.6802,45.5878 202.8922,45.7348 C203.1022,45.8828 203.2092,46.1238 203.2092,46.4588 C203.2092,46.6418 203.1872,46.8488 203.1442,47.0808 L203.0732,47.4868 L203.0062,47.9228 L202.9572,48.1888 C202.9382,48.3148 202.9292,48.4318 202.9292,48.5378 C202.9292,48.8178 203.0122,49.0108 203.1772,49.1148 C203.3442,49.2208 203.6362,49.1518 204.0552,48.9098 L204.4092,48.7058 L204.4092,49.4138 L204.0552,49.6178 C203.6412,49.8568 203.3502,50.1248 203.1822,50.4208 C203.0132,50.7178 202.9292,51.0138 202.9292,51.3098 C202.9292,51.4158 202.9382,51.5148 202.9572,51.6078 L203.0062,51.8218 L203.0732,52.1808 L203.1442,52.5048 C203.1872,52.6898 203.2092,52.8718 203.2092,53.0518 C203.2092,53.3898 203.1022,53.7518 202.8922,54.1408 C202.6802,54.5288 202.2122,54.9328 201.4852,55.3518 L200.8602,55.7128 L200.8602,55.0048 L201.4772,54.6488 C201.8702,54.4218 202.1302,54.2078 202.2562,54.0058 C202.3822,53.8038 202.4442,53.6078 202.4442,53.4198 C202.4442,53.2858 202.4182,53.0928 202.3642,52.8408 L202.2652,52.3768 C202.2152,52.1258 202.1892,51.9148 202.1892,51.7408 C202.1892,51.5458 202.2182,51.3568 202.2732,51.1748 C202.3292,50.9908 202.4142,50.7948 202.5302,50.5848 C202.6452,50.3758 202.8262,50.1248 203.0732,49.8338" id="Fill-84" fill="#000000"></path>
            <path d="M168.8516,75.4554 L172.1756,73.5364 C173.8586,72.5644 175.2226,70.2114 175.2226,68.2804 C175.2226,66.3504 176.5866,63.9974 178.2696,63.0254 L181.0396,61.4264" id="Stroke-86" stroke="#000000" stroke-width="0.928"></path>
            <path d="M150.2822,205.366 C150.2872,205.358 150.2912,205.35 150.2962,205.343 C149.9882,205.1 149.6812,204.858 149.3622,204.605 C149.0422,205.229 148.7322,205.83 148.4182,206.442 C149.0532,206.076 149.6682,205.721 150.2822,205.366 Z M145.1302,215.416 C145.6122,215.239 146.0962,215.061 146.5862,214.882 C146.2662,214.422 145.9552,213.975 145.6452,213.53 C145.5902,213.64 145.1522,215.233 145.1302,215.416 Z M153.6202,210.513 C153.4392,210.069 153.2652,209.642 153.0912,209.212 C152.7702,210.042 152.4572,210.851 152.1372,211.678 C152.6302,211.291 153.1162,210.909 153.6202,210.513 Z M145.0312,209.832 C145.2052,210.387 145.4072,210.904 145.6402,211.404 C145.9952,210.408 146.3802,209.429 146.8062,208.438 C146.1992,208.876 145.6142,209.334 145.0312,209.832 Z M153.6982,204.824 C153.0922,205.01 152.5032,205.229 151.8922,205.494 C152.3272,205.991 152.7132,206.53 153.0642,207.111 C153.0722,207.106 153.0802,207.101 153.0882,207.097 C153.2902,206.344 153.4922,205.591 153.6982,204.824 Z M149.3492,216.001 C149.7722,215.231 150.1642,214.46 150.5402,213.658 C149.7412,214.174 148.9602,214.62 148.1642,215.029 C148.5412,215.395 148.9292,215.715 149.3492,216.001 Z M144.3582,215.615 C144.3642,215.595 144.3692,215.582 144.3722,215.57 C144.5982,214.636 144.8742,213.696 145.1782,212.752 C145.1892,212.719 145.1842,212.677 145.1732,212.655 C144.8432,212.012 144.5522,211.329 144.3152,210.59 C144.3052,210.559 144.2952,210.529 144.2822,210.491 C144.0532,210.713 143.8302,210.923 143.6102,211.143 C143.1032,211.652 142.6172,212.197 142.1732,212.811 C141.8952,213.195 141.6402,213.595 141.4582,214.035 C141.3242,214.358 141.2552,214.661 141.2882,214.934 C141.3172,215.171 141.4152,215.333 141.5492,215.455 C141.7642,215.651 142.0372,215.74 142.3322,215.785 C142.9592,215.881 143.6442,215.787 144.3582,215.615 Z M154.3512,209.857 C154.4572,209.759 154.5562,209.667 154.6562,209.574 C155.2742,208.992 155.8702,208.366 156.4172,207.647 C156.7282,207.239 157.0152,206.81 157.2332,206.335 C157.5322,205.685 157.5392,205.178 157.2512,204.857 C157.0892,204.677 156.8772,204.579 156.6452,204.519 C156.1352,204.385 155.5642,204.416 154.9702,204.517 C154.7982,204.546 154.6232,204.585 154.4482,204.619 C154.4392,204.65 154.4322,204.671 154.4282,204.691 C154.1882,205.737 153.8852,206.792 153.5432,207.852 C153.5302,207.889 153.5322,207.936 153.5442,207.96 C153.8052,208.47 154.0442,209.002 154.2512,209.568 C154.2852,209.661 154.3172,209.757 154.3512,209.857 Z M153.8862,203.845 C153.8912,203.826 153.8962,203.808 153.9002,203.791 C154.0832,202.809 154.2102,201.852 154.1582,200.976 C154.1382,200.635 154.0872,200.317 153.9672,200.057 C153.8622,199.83 153.7112,199.674 153.4612,199.673 C153.2132,199.671 152.9512,199.822 152.6852,200.031 C152.3212,200.317 151.9892,200.68 151.6692,201.072 C151.0672,201.807 150.5382,202.61 150.0402,203.442 C149.9942,203.519 149.9472,203.596 149.9002,203.674 C149.9142,203.685 149.9202,203.691 149.9272,203.695 C150.4092,204.019 150.8552,204.397 151.2732,204.817 C151.3032,204.848 151.3372,204.849 151.3862,204.826 C151.6412,204.711 151.8972,204.59 152.1512,204.487 C152.5372,204.33 152.9212,204.183 153.3042,204.04 C153.4992,203.967 153.6912,203.909 153.8862,203.845 Z M148.8082,204.295 C148.7932,204.285 148.7802,204.276 148.7652,204.269 C148.5842,204.183 148.4052,204.09 148.2192,204.013 C147.7932,203.839 147.3392,203.726 146.8342,203.731 C146.5192,203.734 146.1932,203.783 145.8392,203.957 C145.5302,204.109 145.2532,204.354 145.0252,204.738 C144.8572,205.022 144.7582,205.314 144.6892,205.607 C144.5322,206.274 144.5242,206.871 144.5592,207.446 C144.5852,207.848 144.6362,208.231 144.7132,208.596 C144.7472,208.761 144.7852,208.924 144.8222,209.087 C145.0582,208.893 145.2862,208.701 145.5152,208.517 C146.1062,208.041 146.7022,207.602 147.3022,207.191 C147.3622,207.149 147.3992,207.104 147.4342,207.028 C147.7682,206.305 148.1212,205.588 148.4972,204.878 C148.5982,204.685 148.7032,204.492 148.8082,204.295 Z M148.8102,216.953 C148.7962,216.941 148.7862,216.932 148.7752,216.925 C148.6642,216.845 148.5512,216.768 148.4412,216.686 C147.9942,216.351 147.5782,215.97 147.1862,215.553 C147.1712,215.536 147.1372,215.534 147.1102,215.545 C147.0392,215.571 146.9662,215.608 146.8932,215.64 C146.2462,215.924 145.6022,216.174 144.9672,216.369 C144.9462,216.376 144.9252,216.385 144.9082,216.391 C144.9012,216.404 144.8992,216.407 144.8992,216.409 C144.8672,216.571 144.8332,216.734 144.8032,216.895 C144.6512,217.72 144.5462,218.526 144.5502,219.284 C144.5532,219.742 144.5912,220.173 144.7362,220.522 C144.8272,220.74 144.9592,220.9 145.1742,220.936 C145.4282,220.979 145.7102,220.832 145.9982,220.611 C146.3862,220.314 146.7372,219.927 147.0762,219.511 C147.5762,218.897 148.0282,218.235 148.4522,217.547 C148.5722,217.351 148.6892,217.153 148.8102,216.953 Z M149.9072,216.331 C149.9112,216.336 149.9142,216.34 149.9192,216.343 C150.4472,216.637 151.0122,216.854 151.6632,216.898 C152.0382,216.924 152.4282,216.896 152.8652,216.688 C153.1782,216.539 153.4652,216.297 153.6972,215.903 C153.9132,215.536 154.0172,215.166 154.0862,214.798 C154.2052,214.162 154.1992,213.592 154.1542,213.042 C154.1172,212.587 154.0472,212.157 153.9522,211.746 C153.9142,211.577 153.8712,211.412 153.8302,211.241 C153.8032,211.263 153.7832,211.279 153.7632,211.295 C153.5202,211.493 153.2792,211.701 153.0342,211.887 C152.5612,212.245 152.0872,212.591 151.6132,212.945 C151.5862,212.965 151.5532,213.006 151.5372,213.041 C151.1892,213.812 150.8242,214.578 150.4302,215.336 C150.2592,215.666 150.0842,215.995 149.9072,216.331 Z M149.3532,206.767 C148.8752,207.07 148.3722,207.387 147.8692,207.708 C147.8442,207.723 147.8102,207.763 147.7972,207.795 C147.1432,209.247 146.5702,210.706 146.0762,212.172 C146.0652,212.202 146.0662,212.242 146.0762,212.261 C146.4882,213.003 146.9542,213.679 147.4732,214.29 C147.5532,214.383 147.6292,214.44 147.7852,214.326 C147.8052,214.31 147.8292,214.307 147.8502,214.295 C148.4002,213.998 148.9502,213.719 149.5002,213.399 C150.0172,213.098 150.5342,212.757 151.0522,212.433 C151.0902,212.409 151.1172,212.38 151.1412,212.325 C151.6992,211.046 152.1962,209.763 152.6342,208.475 C152.6532,208.418 152.6552,208.382 152.6352,208.345 C152.1492,207.476 151.5902,206.699 150.9602,206.012 C150.9202,205.968 150.8792,205.962 150.8092,205.999 C150.3322,206.253 149.8552,206.502 149.3532,206.767 Z M140.5002,215.127 C140.5142,215.02 140.5252,214.915 140.5432,214.808 C140.6302,214.306 140.8322,213.809 141.1022,213.317 C141.5112,212.574 142.0102,211.926 142.5442,211.314 C143.0332,210.752 143.5452,210.243 144.0752,209.756 C144.0682,209.719 144.0642,209.681 144.0552,209.647 C143.9472,209.215 143.8672,208.76 143.8182,208.281 C143.7612,207.71 143.7462,207.114 143.8272,206.464 C143.8912,205.95 144.0112,205.427 144.2492,204.886 C144.5952,204.102 145.0802,203.529 145.6922,203.158 C146.1362,202.887 146.5552,202.781 146.9592,202.749 C147.5022,202.706 147.9952,202.79 148.4512,202.955 C148.7512,203.064 149.0332,203.207 149.3242,203.335 C149.3312,203.339 149.3392,203.342 149.3482,203.347 C149.4572,203.168 149.5632,202.989 149.6722,202.812 C150.2582,201.856 150.8842,200.941 151.6052,200.127 C151.9642,199.722 152.3382,199.358 152.7362,199.082 C153.3042,198.691 153.8172,198.538 154.2372,198.765 C154.5002,198.907 154.6672,199.17 154.7772,199.503 C154.9412,199.997 154.9742,200.585 154.9542,201.21 C154.9292,201.969 154.8182,202.762 154.6632,203.574 C154.6592,203.596 154.6572,203.617 154.6542,203.638 C154.8632,203.597 155.0692,203.552 155.2722,203.518 C155.8882,203.415 156.4802,203.386 157.0172,203.51 C157.3892,203.595 157.7192,203.754 157.9582,204.068 C158.1482,204.322 158.2542,204.654 158.2372,205.091 C158.2192,205.55 158.0752,206.032 157.8472,206.524 C157.5662,207.134 157.2002,207.686 156.7972,208.211 C156.1462,209.056 155.4382,209.786 154.7052,210.463 C154.6632,210.502 154.6212,210.542 154.5752,210.585 C154.6122,210.737 154.6502,210.886 154.6852,211.036 C154.8052,211.545 154.8932,212.078 154.9322,212.649 C154.9732,213.248 154.9662,213.873 154.8382,214.558 C154.7302,215.134 154.5472,215.709 154.2042,216.275 C153.8822,216.809 153.4932,217.196 153.0542,217.464 C152.4972,217.804 151.9882,217.895 151.5002,217.894 C150.8802,217.893 150.3312,217.734 149.8152,217.503 C149.6642,217.434 149.5152,217.358 149.3602,217.283 C149.3442,217.31 149.3262,217.338 149.3092,217.366 C148.8512,218.144 148.3642,218.899 147.8272,219.612 C147.4222,220.15 146.9962,220.655 146.5302,221.085 C146.1772,221.411 145.8162,221.68 145.4472,221.832 C144.8482,222.077 144.4202,221.947 144.1332,221.514 C143.9452,221.231 143.8512,220.86 143.8032,220.448 C143.7292,219.834 143.7602,219.162 143.8372,218.465 C143.9012,217.88 144.0022,217.283 144.1242,216.679 C144.1292,216.654 144.1332,216.63 144.1372,216.604 C143.9412,216.643 143.7472,216.686 143.5542,216.72 C142.9032,216.837 142.2802,216.873 141.7152,216.741 C141.3442,216.655 141.0162,216.496 140.7812,216.181 C140.6342,215.983 140.5362,215.735 140.5112,215.417 C140.5102,215.398 140.5042,215.381 140.5002,215.364 L140.5002,215.127 Z" id="Fill-88" fill="#FFB510"></path>
            <path d="M151.2969,209.1966 C151.2969,210.4116 150.4269,211.9106 149.3699,212.5176 C148.3029,213.1306 147.4439,212.6346 147.4449,211.4056 C147.4449,210.1936 148.3179,208.7036 149.3869,208.0876 C150.4339,207.4836 151.2969,207.9846 151.2969,209.1966" id="Fill-90" fill="#FFB510"></path>
            <path d="M74.8389,165.9471 C74.6499,166.5411 74.3299,167.0431 73.9259,167.5401 C72.2949,169.5441 70.6759,171.5651 69.0609,173.5901 C68.5459,174.2341 68.0649,174.5321 67.5539,174.4571 C66.9649,174.3701 66.3599,174.3221 65.6999,174.2511 C66.0619,173.8431 66.3439,173.5041 66.6419,173.2001 C66.7279,173.1131 66.8679,173.0961 66.9629,173.1011 C67.2369,173.1151 67.5189,173.1211 67.7639,173.1961 C68.1039,173.3011 68.3829,173.1271 68.7599,172.6491 C70.3019,170.6921 71.8639,168.7611 73.4289,166.8351 C73.7209,166.4751 73.8489,166.1961 73.8449,165.7951 C73.8249,163.6711 73.8279,161.5331 73.8429,159.3881 C73.8459,159.0291 73.7399,158.8981 73.4739,158.8771 C71.8439,158.7541 70.2219,158.6121 68.6039,158.4581 C68.3729,158.4361 68.1999,158.5121 67.9569,158.8171 C66.3279,160.8571 64.6919,162.8871 63.0489,164.9081 C62.7959,165.2191 62.6979,165.4611 62.6999,165.7951 C62.7119,167.9581 62.7109,170.1291 62.7009,172.3051 C62.6989,172.6131 62.7659,172.7761 63.0159,172.7801 C63.4389,172.7881 63.8409,172.8491 64.2569,172.8751 C64.9799,172.9211 65.5919,172.1311 65.5719,171.2261 C65.5259,169.1011 65.5689,166.9221 65.5479,164.7811 C65.5429,164.2961 65.7189,164.1331 66.0789,163.9201 C66.4589,163.6941 66.6029,163.7261 66.5979,164.1941 C66.5789,166.3921 66.5969,168.5691 66.5869,170.7611 C66.5799,172.5391 65.5199,173.9751 64.0979,174.0941 C63.4449,174.1491 62.8049,174.1201 62.2379,173.9631 C61.9719,173.8891 61.7589,173.5001 61.7519,173.1151 C61.7069,170.8011 61.7259,168.4491 61.7329,166.1041 C61.7349,165.5051 61.9989,164.9361 62.4539,164.3721 C64.2929,162.0931 66.1239,159.8001 67.9579,157.5121 C68.1669,157.3911 68.3749,157.2711 68.5839,157.1511 C70.3509,157.3091 72.1129,157.4781 73.8879,157.6171 C74.2989,157.6501 74.6439,157.7631 74.8389,158.1541 L74.8389,165.9471 Z" id="Fill-92" fill="#7874AA"></path>
            <path d="M68.9551,168.8548 C68.6841,168.9438 68.4281,169.0188 68.1791,169.0618 C67.6841,169.1468 67.3121,168.8738 67.1731,168.3728 C67.0241,167.8378 67.0441,167.5868 67.4311,167.3508 C67.8241,167.1108 68.1251,166.9378 68.2341,167.4718 C68.2831,167.7098 68.6411,167.8508 68.8891,167.7428 C69.5581,167.4528 70.2421,167.0148 70.9211,166.6108 C71.0431,166.5388 71.2141,166.3628 71.2741,166.2198 C71.4041,165.9168 71.5571,165.5518 71.5461,165.3108 C71.5381,165.1328 71.3101,164.9938 71.1391,165.0388 C70.6401,165.1678 70.1181,165.4048 69.6071,165.5898 C69.1701,165.7488 68.7261,165.9328 68.3001,166.0368 C67.7251,166.1768 67.3521,165.9518 67.2891,165.2728 C67.2261,164.5908 67.4281,163.8808 67.9541,163.1538 C68.8381,161.9338 70.8451,160.7868 71.7121,161.0048 C72.1511,161.1158 72.3541,161.5138 72.4261,162.0728 C72.4571,162.3218 72.3611,162.4768 72.1311,162.6168 C71.7491,162.8498 71.3801,163.1008 71.3041,162.5408 C71.2871,162.4178 71.1671,162.3548 71.0691,162.3128 C70.6111,162.1158 69.0491,162.9598 68.6031,163.6828 C68.4641,163.9088 68.3741,164.2648 68.3921,164.4728 C68.4031,164.6218 68.6131,164.7208 68.7671,164.6738 C69.3301,164.5018 69.9061,164.2548 70.4761,164.0458 C70.8271,163.9178 71.1821,163.7788 71.5231,163.6948 C72.1201,163.5488 72.5701,163.6688 72.6411,164.4068 C72.7151,165.1818 72.5191,166.0348 71.8641,166.7698 C71.5991,167.0678 71.3161,167.3368 71.0321,167.5908 C70.3561,168.1968 69.6421,168.6298 68.9551,168.8548" id="Fill-94" fill="#7874AA"></path>
            <path d="M134.4912,124.2093 C134.8272,124.0153 135.1532,123.8323 135.4782,123.6373 C135.6652,123.5253 135.8522,123.4053 136.0372,123.2703 C136.4032,123.0013 136.7042,122.6413 136.8872,122.1493 C137.0282,121.7713 137.0872,121.4133 137.0862,121.0793 C137.0852,120.6973 136.9212,120.5413 136.6042,120.6093 C136.4792,120.6363 136.3452,120.6803 136.2142,120.7513 C135.7922,120.9813 135.3702,121.2283 134.9472,121.4683 C134.9332,121.4763 134.9202,121.4883 134.8992,121.5023 C134.7642,122.4003 134.6292,123.2973 134.4912,124.2093 M133.6732,120.9673 C133.7052,120.9493 133.7302,120.9343 133.7562,120.9193 C134.7082,120.3703 135.6602,119.8173 136.6122,119.2723 C137.0002,119.0493 137.3732,118.9253 137.7092,118.9603 C138.2752,119.0213 138.5192,119.4743 138.4992,120.2223 C138.4802,120.8573 138.3192,121.5343 138.0192,122.2313 C137.7202,122.9273 137.2822,123.4803 136.7662,123.9403 C136.2712,124.3833 135.7622,124.7113 135.2522,125.0113 C134.9342,125.1983 134.6182,125.3783 134.2912,125.5673 C134.1962,126.2393 134.1012,126.9083 134.0072,127.5823 C133.5322,127.8553 133.0632,128.1263 132.5792,128.4063 C132.9432,125.9253 133.3072,123.4493 133.6732,120.9673" id="Fill-96" fill="#7874AA"></path>
            <path d="M123.1504,130.7581 C123.1914,130.7341 123.2184,130.7181 123.2464,130.7021 C123.5244,130.5421 123.8014,130.3871 124.0794,130.2191 C124.2884,130.0931 124.4994,129.9631 124.7064,129.8101 C125.0814,129.5331 125.3854,129.1591 125.5614,128.6531 C125.6944,128.2711 125.7544,127.9091 125.7444,127.5771 C125.7354,127.2731 125.6034,127.1141 125.3494,127.1471 C125.2054,127.1661 125.0454,127.2101 124.8904,127.2921 C124.4624,127.5191 124.0354,127.7721 123.6074,128.0161 C123.5904,128.0251 123.5754,128.0411 123.5574,128.0541 C123.4214,128.9511 123.2884,129.8451 123.1504,130.7581 M122.3314,127.5151 C122.3644,127.4961 122.3914,127.4801 122.4204,127.4641 C123.3694,126.9161 124.3194,126.3641 125.2684,125.8211 C125.7134,125.5671 126.1334,125.4411 126.5014,125.5311 C126.9134,125.6321 127.1324,125.9781 127.1524,126.5371 C127.1804,127.3481 126.9754,128.2201 126.5054,129.1311 C126.1884,129.7461 125.7554,130.2121 125.2864,130.6101 C124.8344,130.9921 124.3744,131.2881 123.9114,131.5591 C123.6174,131.7321 123.3224,131.9021 123.0274,132.0691 C122.9684,132.1021 122.9464,132.1301 122.9354,132.2091 C122.8534,132.8131 122.7664,133.4191 122.6814,134.0251 C122.6764,134.0591 122.6694,134.0941 122.6624,134.1331 C122.1874,134.4061 121.7154,134.6791 121.2374,134.9551 C121.6024,132.4731 121.9664,129.9981 122.3314,127.5151" id="Fill-98" fill="#7874AA"></path>
            <path d="M127.1934,129.6551 C127.6434,126.9231 128.0934,124.1921 128.5454,121.4551 C129.0134,121.1851 129.4794,120.9151 129.9604,120.6381 C129.8114,121.5461 129.6634,122.4511 129.5124,123.3691 C129.5524,123.3461 129.5834,123.3281 129.6134,123.3111 C130.0454,123.0621 130.4754,122.8091 130.9064,122.5661 C131.2924,122.3471 131.6764,122.1571 132.0434,122.1011 C132.4884,122.0341 132.7284,122.3031 132.7414,122.8401 C132.7524,123.2601 132.6584,123.7191 132.5824,124.1721 C132.4384,125.0231 132.2904,125.8751 132.1444,126.7261 C132.1354,126.7811 132.1294,126.8171 132.0744,126.8481 C131.6264,127.1051 131.1774,127.3641 130.7304,127.6221 C130.7214,127.6271 130.7144,127.6291 130.6944,127.6351 C130.7264,127.4431 130.7584,127.2511 130.7914,127.0601 C130.9324,126.2231 131.0794,125.3841 131.2134,124.5511 C131.2414,124.3721 131.2334,124.2031 131.2234,124.0421 C131.2144,123.8931 131.1304,123.8371 131.0054,123.8481 C130.8064,123.8651 130.5964,123.9831 130.3864,124.1021 C130.0554,124.2901 129.7234,124.4881 129.3924,124.6731 C129.3124,124.7171 129.2854,124.7631 129.2704,124.8551 C129.1464,125.6161 129.0194,126.3791 128.8934,127.1411 C128.8034,127.6811 128.7124,128.2231 128.6234,128.7641 C128.6144,128.8141 128.6084,128.8491 128.5564,128.8791 C128.1124,129.1341 127.6674,129.3911 127.2214,129.6471 C127.2144,129.6521 127.2064,129.6521 127.1934,129.6551" id="Fill-100" fill="#7874AA"></path>
            <path d="M106.4189,109.074 C105.8749,109.387 105.3649,109.862 104.9229,110.441 C103.9479,108.564 101.9759,108.041 99.6949,109.357 C99.6009,109.412 99.5049,109.467 99.4099,109.529 C98.4689,107.518 96.4399,106.919 94.0939,108.274 C91.9419,109.516 90.0599,112.085 89.0399,114.89 C88.2939,115.141 87.5049,115.639 86.5529,116.606 C84.2159,118.978 82.7739,123.316 83.3709,126.049 C83.5589,126.907 83.8229,127.407 84.1329,127.743 C84.6769,128.333 85.5399,128.324 86.4299,127.811 L106.5809,116.177 C107.9409,115.391 109.1649,113.508 109.4619,111.63 C109.4859,111.474 109.4999,111.345 109.4999,111.253 C109.4999,109.065 108.1219,108.091 106.4189,109.074" id="Fill-102" fill="#FFDC4A"></path>
            <path d="M106.4189,109.074 C105.8749,109.387 105.3649,109.862 104.9229,110.441 C103.9479,108.564 101.9759,108.041 99.6949,109.357 C99.6009,109.412 99.5049,109.467 99.4099,109.529 C98.4689,107.518 96.4399,106.919 94.0939,108.274 C91.9419,109.516 90.0599,112.085 89.0399,114.89 C88.2939,115.141 87.5049,115.639 86.5529,116.606 C84.2159,118.978 82.7739,123.316 83.3709,126.049 C83.5589,126.907 83.8229,127.407 84.1329,127.743 C84.6769,128.333 85.5399,128.324 86.4299,127.811 L106.5809,116.177 C107.9409,115.391 109.1649,113.508 109.4619,111.63 C109.4859,111.474 109.4999,111.345 109.4999,111.253 C109.4999,109.065 108.1219,108.091 106.4189,109.074 Z" id="Stroke-104" stroke="#000000"></path>
            <path d="M96.6084,115.7298 L95.7594,117.1928 L94.6134,117.8548 L93.7654,117.3708 L93.7654,116.0558 L94.6134,114.5928 L95.7594,113.9308 L96.6084,114.4148 L96.6084,115.7298 Z M98.5004,114.6528 L98.5004,113.3068 L97.7234,113.7548 C97.6574,113.4608 97.5444,113.2228 97.3924,113.0338 L97.9414,112.0858 L97.1184,111.6168 L96.5684,112.5638 C96.3274,112.5288 96.0624,112.5518 95.7734,112.6428 L95.7734,111.7518 L94.5994,112.4298 L94.5994,113.3198 C94.3114,113.5628 94.0454,113.8468 93.8044,114.1598 L93.2554,113.8468 L92.4314,115.2668 L92.9814,115.5808 C92.8304,115.9448 92.7154,116.3138 92.6494,116.6838 L91.8744,117.1318 L91.8744,118.4798 L92.6494,118.0308 C92.7154,118.3238 92.8304,118.5628 92.9814,118.7518 L92.4314,119.6988 L93.2554,120.1688 L93.8044,119.2218 C94.0454,119.2558 94.3114,119.2328 94.5994,119.1428 L94.5994,120.0338 L95.7734,119.3558 L95.7734,118.4648 C96.0624,118.2228 96.3274,117.9388 96.5684,117.6258 L97.1184,117.9388 L97.9414,116.5188 L97.3924,116.2058 C97.5444,115.8408 97.6574,115.4708 97.7234,115.1018 L98.5004,114.6528 Z" id="Fill-106" fill="#433A84"></path>
        </g>
    </g>
</svg>