<?xml version="1.0" encoding="UTF-8"?>
<svg width="416px" height="516px" viewBox="0 0 416 516" version="1.1" xmlns="http://www.w3.org/2000/svg" xmlns:xlink="http://www.w3.org/1999/xlink">
    <!-- Generator: Sketch 52.2 (67145) - http://www.bohemiancoding.com/sketch -->
    <title>Group 10 Copy</title>
    <desc>Created with Sketch.</desc>
    <defs>
        <polygon id="path-1" points="0 0.284090909 9.567 0.284090909 9.567 10.5372727 0 10.5372727"></polygon>
        <polygon id="path-3" points="0.59435 0.943409091 6.3836 0.943409091 6.3836 15.9090909 0.59435 15.9090909"></polygon>
    </defs>
    <g id="Page-1" stroke="none" stroke-width="1" fill="none" fill-rule="evenodd">
        <g id="Group-10-Copy" transform="translate(-86.000000, -18.000000)">
            <g id="Group-7">
                <g id="Group-108">
                    <g id="Group-3"></g>
                    <polygon id="Fill-16" fill="#FFFFFF" points="277 256.209839 87 366 87 147.790161 277 38"></polygon>
                    <polygon id="Stroke-18" stroke="#000000" stroke-width="1.39999998" points="277 256.209839 87 366 87 147.790161 277 38"></polygon>
                    <path d="M167,260 L167,276.920343 C167,281.846922 170.556175,283.831812 174.941996,281.351638 L181.05992,277.894027 C185.445741,275.413853 189,277.398743 189,282.327198 L189,297" id="Stroke-20" stroke="#000000" stroke-width="1.39999998"></path>
                    <path d="M218,193 L230.272557,185.887023 C236.484754,182.285373 241.52162,173.563509 241.52162,166.407252 C241.52162,159.249113 246.558485,150.529131 252.772557,146.927481 L263,141" id="Stroke-22" stroke="#000000" stroke-width="1.39999998"></path>
                    <polygon id="Fill-24" fill="#44E291" points="218 229.807689 138 276 138 184.192311 218 138"></polygon>
                    <polygon id="Stroke-26" stroke="#000000" stroke-width="1.39999998" points="218 229.807689 138 276 138 184.192311 218 138"></polygon>
                    <polygon id="Fill-28" fill="#44E291" points="318 159.866425 262 192 262 128.133575 318 96"></polygon>
                    <polygon id="Stroke-30" stroke="#000000" stroke-width="1.39999998" points="318 159.866425 262 192 262 128.133575 318 96"></polygon>
                    <polygon id="Fill-32" fill="#44E291" points="215 346.866425 159 379 159 315.133575 215 283"></polygon>
                    <polygon id="Stroke-34" stroke="#000000" stroke-width="1.39999998" points="215 346.866425 159 379 159 315.133575 215 283"></polygon>
                    <polygon id="Fill-36" fill="#FFF2BB" points="228 359.581852 193 380 193 339.418148 228 319"></polygon>
                    <polygon id="Stroke-38" stroke="#000000" stroke-width="1.39999998" points="228 359.581852 193 380 193 339.418148 228 319"></polygon>
                    <g id="Group-2" transform="translate(237.000000, 150.000000)">
                        <polygon id="Fill-40" fill="#FBF2D3" points="189.490708 217.250042 0 327 0.507406084 109.749958 190 0"></polygon>
                        <path d="M40.758292,141.931301 L40.758292,142.13686 C40.758292,145.237377 40.7601854,148.339797 40.7563985,151.444121 C40.7563985,151.69536 40.7431444,151.958019 40.7090624,152.228291 C40.6333246,152.799289 40.413685,153.339833 39.9270697,153.745242 C39.1848394,154.360016 38.6698224,154.464699 38.2513711,154.038354 C38.1377644,153.922251 38.0393053,153.785212 37.9370593,153.655785 C37.9124445,153.625332 37.8897232,153.592976 37.8613215,153.553006 C37.1929355,154.407599 36.5340167,155.252675 35.8750979,156.093945 C35.8845652,156.124398 35.8883521,156.141528 35.8959258,156.154852 C36.2992296,156.860985 36.8861974,157.249264 37.7249935,157.192164 C38.68497,157.123644 39.6866022,156.5831 40.6958083,155.739927 C41.5383912,155.035696 42.2238182,154.135423 42.6801384,153.001041 C43.0493601,152.079832 43.1989423,151.211916 43.2008357,150.397292 C43.2084095,147.142606 43.2065161,143.893629 43.2065161,140.644653 C43.2065161,140.60278 43.2008357,140.564713 43.1970488,140.515227 C42.3866545,140.985348 41.5857273,141.451663 40.758292,141.931301 M46.4405197,148.857502 C46.4651345,148.899375 46.4783886,148.929828 46.4954296,148.956475 C46.8854792,149.556022 47.4194307,149.925268 48.1332593,149.961431 C49.6650562,150.04137 51.2669104,149.205811 52.8971664,147.584177 C53.6204623,146.866624 54.1922826,145.989191 54.5709715,144.982331 C54.9061113,144.099188 54.99889,143.295985 54.9629146,142.538462 C54.913685,141.426919 54.5236354,140.711269 53.7454296,140.439094 C53.2304126,140.256374 52.6472317,140.243051 52.0451162,140.279214 C51.5433534,140.307764 51.0321233,140.366767 50.5398276,140.372477 C50.3012536,140.374381 50.0721468,140.326797 49.877122,140.231631 C49.430269,140.012749 49.4226952,138.787007 50.3334422,137.941931 C50.8673936,137.445163 51.5812223,137.140631 52.0470097,137.570782 C52.1530426,137.669755 52.2458214,137.783955 52.3537477,137.898154 C52.9823714,137.066401 53.610995,136.234648 54.2396187,135.404798 C54.2339384,135.383861 54.2339384,135.368635 54.2263646,135.359118 C53.819274,134.774797 53.2815356,134.418875 52.5090102,134.502622 C51.5944764,134.601594 50.6439671,135.111686 49.6896709,135.920599 C48.7921781,136.681929 48.0726691,137.652625 47.595521,138.861237 C47.2414469,139.757703 47.1373074,140.572326 47.1827501,141.337463 C47.2414469,142.323386 47.5690128,143.008583 48.229825,143.322632 C48.7486289,143.568161 49.3583181,143.585291 49.9945155,143.539611 C50.5095325,143.503448 51.0302298,143.452058 51.5338861,143.446348 C51.7724602,143.442541 51.9996735,143.492028 52.1965918,143.585291 C52.5014364,143.729943 52.5771742,144.118222 52.4843954,144.630216 C52.3821494,145.193601 52.0678376,145.665625 51.6626404,146.05771 C51.039697,146.664871 50.4148603,146.992243 49.8032776,147.062666 C49.2352442,147.129282 48.8433011,146.855204 48.5157352,146.468829 C48.4873335,146.438375 48.4589318,146.409825 48.4286367,146.373662 C47.7602507,147.207319 47.1070123,148.025749 46.4405197,148.857502 M29,167 L29,131.086152 C37.7212066,126.02521 49.2806869,119.060942 58,114 L58,149.913848 C49.2806869,154.97479 37.7212066,161.939058 29,167" id="Fill-44" fill="#FFB510"></path>
                        <path d="M139.762407,77.3816584 L139.762407,83.8069742 C138.483531,84.5527183 137.261748,85.265788 136,86 L136,72.5785283 C136.989606,72.001922 137.956375,71.5137287 138.909823,70.8602416 C139.747182,70.2855574 140.224857,70.339374 140.603572,70.9794069 C141.079344,71.7847337 141.684526,72.4420648 142.234519,73.1609006 C142.30874,73.2570016 142.394379,73.3434926 142.516176,73.4857221 C142.683648,73.0744097 142.82067,72.738056 142.957693,72.4036244 C143.576197,70.8698517 144.187088,69.3380011 144.817011,67.8080725 C144.900747,67.6043383 145.068218,67.3121911 145.197628,67.2333882 C146.45557,66.47419 147.711609,65.7515102 149,65 L149,78.4080176 C147.762992,79.1306974 146.512663,79.8591433 145.21095,80.6183416 L145.21095,74.2218561 C145.169082,74.2257002 145.123408,74.2314662 145.08154,74.2353103 C144.22515,76.2688083 143.36876,78.3023064 142.474308,80.4222954 C141.577953,79.3440417 140.723467,78.3119165 139.86898,77.2817133 C139.832821,77.3143877 139.798565,77.3470621 139.762407,77.3816584" id="Fill-46" fill="#FFB510"></path>
                        <path d="M118,85 L118,98.4208494 C116.761639,99.1602317 115.538175,99.8938224 114.258845,100.658301 L114.258845,96.2007722 C113.072626,96.9111969 111.934823,97.5926641 110.757914,98.2972973 L110.757914,102.750965 C109.493482,103.507722 108.266294,104.241313 107,105 L107,91.5637066 C108.242086,90.8204633 109.467412,90.0868726 110.759777,89.3127413 L110.759777,90.7606178 C110.759777,91.6235521 110.750466,92.4903475 110.769088,93.3416988 C110.772812,93.4787645 110.899441,93.6525097 110.975791,93.6100386 C112.042831,92.996139 113.111732,92.3494208 114.227188,91.6814672 L114.227188,87.2567568 C115.504655,86.492278 116.73743,85.7548263 118,85" id="Fill-48" fill="#FFB510"></path>
                        <path d="M132,76 L132,80.2245009 C130.852652,80.8513145 129.715128,81.4707102 128.504912,82.1309043 L128.504912,90.8154249 C127.137525,91.5590706 125.844794,92.2656267 124.495088,93 L124.495088,84.3432966 C123.300589,84.9923639 122.163065,85.6136141 121,86.2459911 L121,81.993673 C124.662083,80.0001091 128.306483,78.0121087 132,76" id="Fill-50" fill="#FFB510"></path>
                        <path d="M156.753081,68.5564463 C157.623116,68.0480865 158.430875,67.5749779 159.240466,67.1000139 C160.040899,66.6324713 160.837668,66.155652 161.638101,65.7122287 C161.75899,65.6435815 161.98062,65.6769774 161.982452,65.7678885 C162.006263,67.0758947 161.998937,68.4024541 161.998937,69.7549881 C158.993193,71.5138389 156.033241,73.2448598 153.031161,75 C153.023834,74.8181779 153.009181,74.649343 153.009181,74.4712316 C153.009181,70.5268045 153.016507,66.5768115 153.000022,62.6398057 C152.998191,62.1796844 153.10809,61.9830197 153.501896,61.764091 C154.441534,61.2464545 155.384835,60.6898561 156.326305,60.1147045 C156.665161,59.9069078 156.762239,59.9755549 156.760407,60.3688844 C156.745754,62.895841 156.753081,65.4135209 156.753081,67.9330561 L156.753081,68.5564463 Z" id="Fill-52" fill="#FFB510"></path>
                        <path d="M46.7492087,231.667714 C46.7587922,231.652604 46.7664591,231.637494 46.7760426,231.624272 C46.1856974,231.1653 45.597269,230.708217 44.9858401,230.230357 C44.3724945,231.408952 43.7783159,232.544105 43.1764705,233.700035 C44.3935782,233.008744 45.5723518,232.338229 46.7492087,231.667714 Z M36.8743443,250.649897 C37.7981962,250.315584 38.7258814,249.979382 39.6650669,249.641292 C39.0517213,248.772455 38.455626,247.928173 37.8614474,247.087669 C37.7560287,247.295434 36.9165118,250.304251 36.8743443,250.649897 Z M53.1471701,241.389236 C52.8002465,240.55062 52.4667398,239.744114 52.1332332,238.931941 C51.5179708,240.499623 50.9180422,242.027642 50.3046966,243.589658 C51.2496321,242.858703 52.1811508,242.137191 53.1471701,241.389236 Z M36.6845905,240.102981 C37.0180972,241.151251 37.4052716,242.127747 37.8518639,243.072134 C38.5322942,241.190915 39.2702256,239.341805 40.086742,237.470029 C38.923302,238.297312 37.8020296,239.162371 36.6845905,240.102981 Z M53.2966731,230.643998 C52.1351499,230.99531 51.0062106,231.408952 49.8351038,231.909477 C50.6688705,232.848198 51.4087187,233.866248 52.0814821,234.963625 C52.0968158,234.954182 52.1121494,234.944738 52.1274831,234.937183 C52.5146575,233.514935 52.9018319,232.092688 53.2966731,230.643998 Z M44.9609229,251.75483 C45.7716891,250.300474 46.5230375,248.844229 47.2437186,247.329432 C45.7122713,248.304039 44.2153246,249.146433 42.6896274,249.918941 C43.4122252,250.610233 44.1559068,251.214641 44.9609229,251.75483 Z M35.394648,251.025763 C35.4061483,250.987988 35.4157318,250.963434 35.4214819,250.940768 C35.8546573,249.176653 36.3836678,247.401205 36.9663462,245.618202 C36.9874299,245.555873 36.9778464,245.476544 36.9567627,245.434991 C36.32425,244.220509 35.7664888,242.930476 35.3122297,241.534672 C35.2930627,241.47612 35.2738956,241.419456 35.2489785,241.347683 C34.810053,241.766991 34.3826278,242.163634 33.9609527,242.579164 C32.9891832,243.54055 32.0576646,244.569932 31.2066475,245.72964 C30.6738035,246.454929 30.1850437,247.210439 29.8362034,248.0415 C29.579365,248.651574 29.4471123,249.223872 29.5103636,249.739508 C29.565948,250.187147 29.7537851,250.493129 30.0106236,250.723559 C30.4227152,251.093759 30.9459756,251.26186 31.5114036,251.346855 C32.7131777,251.528177 34.0261206,251.350633 35.394648,251.025763 Z M54.5482815,240.1502 C54.7514523,239.9651 54.9412061,239.791333 55.1328766,239.615677 C56.3174003,238.51641 57.4597565,237.334037 58.5081941,235.976009 C59.1042894,235.205389 59.6543837,234.395104 60.0722254,233.497936 C60.6453203,232.270233 60.6587372,231.312624 60.1067261,230.706328 C59.7962199,230.366348 59.3898785,230.181249 58.9452029,230.067922 C57.9676833,229.814826 56.8732447,229.873378 55.7347219,230.064145 C55.4050487,230.118919 55.0696253,230.192581 54.7342019,230.2568 C54.7169516,230.315352 54.7035346,230.355016 54.6958678,230.392791 C54.2358586,232.368449 53.655097,234.361106 52.9995838,236.363207 C52.9746667,236.433092 52.9785001,236.521864 53.0015006,236.567195 C53.5017606,237.53047 53.9598531,238.535298 54.356611,239.604344 C54.421779,239.78 54.4831135,239.961323 54.5482815,240.1502 Z M53.6570137,228.794888 C53.6665972,228.759001 53.6761807,228.725003 53.6838475,228.692894 C54.0346046,226.838118 54.2780261,225.030561 54.1783574,223.375994 C54.1400233,222.731922 54.0422714,222.131292 53.8122668,221.640211 C53.6110128,221.211459 53.3215903,220.91681 52.842414,220.914921 C52.3670712,220.911144 51.8648945,221.196349 51.3550509,221.591102 C50.6573703,222.131292 50.0210242,222.816917 49.4076786,223.557317 C48.2538222,224.945566 47.2398852,226.462252 46.2853661,228.033712 C46.1971977,228.179148 46.1071125,228.324583 46.0170274,228.471908 C46.0438613,228.492684 46.0553615,228.504017 46.0687784,228.511572 C46.9926302,229.123535 47.8474807,229.837492 48.6486634,230.630777 C48.7061646,230.689329 48.7713325,230.691218 48.8652511,230.647776 C49.3540109,230.430567 49.8446873,230.202025 50.3315304,230.007481 C51.0713786,229.710944 51.8073933,229.433294 52.5414913,229.163199 C52.9152488,229.025319 53.2832562,228.91577 53.6570137,228.794888 Z M43.9239855,229.644837 C43.8952349,229.625949 43.8703177,229.60895 43.8415672,229.595729 C43.4946435,229.433294 43.1515533,229.257638 42.7950462,229.112202 C41.9785299,228.783555 41.1083458,228.570124 40.1404097,228.579568 C39.5366476,228.585234 38.9118018,228.677784 38.2332882,229.006431 C37.6410264,229.293525 37.1100991,229.756274 36.6730903,230.481564 C36.3510839,231.017976 36.1613301,231.569498 36.0290774,232.122909 C35.7281547,233.382721 35.7128211,234.51032 35.7799058,235.596365 C35.8297401,236.355652 35.927492,237.079053 36.0750783,237.768456 C36.1402463,238.080103 36.2130811,238.387974 36.2839992,238.695844 C36.7363416,238.329422 37.1733503,237.966777 37.6122758,237.619242 C38.7450485,236.720186 39.8874047,235.891014 41.0374277,235.114727 C41.15243,235.035399 41.2233481,234.950404 41.2904328,234.806857 C41.9306122,233.441273 42.6072091,232.087022 43.3278902,230.745992 C43.5214774,230.381459 43.7227314,230.016925 43.9239855,229.644837 Z M43.9278189,253.552944 C43.900985,253.530278 43.881818,253.513279 43.8607342,253.500058 C43.64798,253.348956 43.4313923,253.20352 43.2205547,253.048641 C42.3637876,252.415901 41.5664383,251.696278 40.8150899,250.908659 C40.7863393,250.87655 40.7211714,250.872773 40.6694203,250.893549 C40.5333343,250.942657 40.3934148,251.012542 40.2534953,251.072983 C39.0133872,251.609395 37.7790291,252.081588 36.5619214,252.449899 C36.5216706,252.463121 36.4814198,252.48012 36.4488358,252.491452 C36.4354189,252.516006 36.4315855,252.521673 36.4315855,252.52545 C36.3702509,252.831432 36.3050829,253.139302 36.2475818,253.443395 C35.9562426,255.001634 35.7549886,256.523986 35.7626554,257.955677 C35.7684055,258.820735 35.8412403,259.634797 36.1191626,260.293979 C36.2935827,260.705732 36.5465878,261.007936 36.9586794,261.075932 C37.4455224,261.157149 37.9860333,260.8795 38.5380443,260.46208 C39.2817259,259.901114 39.9544893,259.170159 40.6042523,258.384429 C41.5626049,257.224721 42.4289555,255.974352 43.2416385,254.674876 C43.4716431,254.304676 43.6958976,253.930698 43.9278189,253.552944 Z M46.0304443,252.378126 C46.0381111,252.38757 46.0438613,252.395125 46.0534448,252.400791 C47.065465,252.956091 48.1484034,253.365955 49.3961784,253.449061 C50.1149428,253.498169 50.8624577,253.445283 51.7000578,253.052418 C52.2999865,252.770991 52.8500809,252.313907 53.2947564,251.56973 C53.7087647,250.87655 53.908102,250.177704 54.0403547,249.482635 C54.2684426,248.281374 54.2569424,247.204773 54.1706906,246.165947 C54.0997725,245.306554 53.9656032,244.494381 53.7835162,243.718095 C53.7106814,243.398892 53.6282631,243.087244 53.5496782,242.764264 C53.4979272,242.805817 53.4595931,242.836037 53.421259,242.866258 C52.9554996,243.240235 52.4935737,243.6331 52.023981,243.984412 C51.1173795,244.660593 50.2088613,245.314109 49.3003431,245.982736 C49.2485921,246.020511 49.1853408,246.097951 49.1546735,246.164058 C48.4876602,247.620303 47.7880628,249.067104 47.0328811,250.498795 C46.7051245,251.122091 46.3697011,251.743498 46.0304443,252.378126 Z M44.9685897,234.313887 C44.0524047,234.886186 43.0883021,235.484927 42.1241994,236.091224 C42.0762818,236.119555 42.0111138,236.195106 41.9861967,236.255547 C40.7326716,238.998048 39.6343996,241.75377 38.6875473,244.522713 C38.6664636,244.579376 38.6683803,244.654927 38.6875473,244.690814 C39.4772298,246.092284 40.3704143,247.369096 41.3651842,248.523137 C41.5185207,248.698793 41.6641902,248.806453 41.9631962,248.591133 C42.0015303,248.560913 42.0475312,248.555246 42.087782,248.532581 C43.1419698,247.971615 44.1961576,247.444647 45.2503454,246.840239 C46.2412819,246.271718 47.2322184,245.627646 48.2250716,245.015683 C48.2979064,244.970352 48.3496574,244.915578 48.3956583,244.811695 C49.4651798,242.395953 50.4177822,239.972655 51.257299,237.539914 C51.2937164,237.432254 51.2975498,237.364258 51.2592157,237.294373 C50.327697,235.653028 49.2562589,234.18545 48.0487347,232.887862 C47.9720665,232.804756 47.8934816,232.793424 47.7593123,232.863308 C46.845044,233.343057 45.9307757,233.813362 44.9685897,234.313887 Z M28,250.104041 C28.0268339,249.901943 28.0479176,249.703621 28.0824183,249.501522 C28.2491717,248.553358 28.6363461,247.614637 29.1538564,246.68536 C29.9377888,245.282 30.8942246,244.058074 31.9177451,242.902144 C32.8550139,241.840653 33.8363668,240.879267 34.8522205,239.959434 C34.8388036,239.889549 34.8311368,239.817776 34.8138864,239.753557 C34.6068823,238.937607 34.4535459,238.078215 34.3596273,237.173492 C34.2503751,236.095001 34.2216246,234.969292 34.3768777,233.741588 C34.4995468,232.770758 34.7295514,231.782929 35.1857272,230.761102 C35.8489071,229.280303 36.7785091,228.198035 37.9515326,227.4973 C38.8025496,226.985442 39.605649,226.785232 40.3799979,226.724791 C41.4207687,226.643574 42.3657043,226.802231 43.2397218,227.113879 C43.8147333,227.319755 44.3552441,227.58985 44.9130053,227.831613 C44.9264222,227.839168 44.9417559,227.844835 44.9590062,227.854278 C45.167927,227.516188 45.3710978,227.178097 45.5800186,226.843784 C46.7032078,225.038116 47.9030651,223.309887 49.2850095,221.772425 C49.9731066,221.007471 50.6899543,220.319957 51.4528029,219.798655 C52.5414913,219.060145 53.524761,218.771162 54.3297771,219.199914 C54.8338706,219.46812 55.1539603,219.964868 55.3647979,220.59383 C55.6791375,221.526884 55.7423888,222.637483 55.7040547,223.817967 C55.656137,225.251547 55.4433828,226.749345 55.1462935,228.28303 C55.1386267,228.324583 55.1347933,228.364248 55.1290431,228.403912 C55.5296345,228.326472 55.9244757,228.241477 56.3135669,228.177259 C57.4942572,227.982715 58.6289466,227.927941 59.6582172,228.162149 C60.3712314,228.322695 61.0037441,228.62301 61.4618366,229.216085 C61.8260106,229.695834 62.0291813,230.322907 61.9965973,231.148301 C61.9620966,232.015249 61.6860911,232.925638 61.2490823,233.854915 C60.7104882,235.007067 60.0089742,236.049671 59.236542,237.041277 C57.9887671,238.637292 56.6317399,240.016097 55.2267951,241.294797 C55.1462935,241.36846 55.0657919,241.444011 54.9776234,241.525228 C55.0485415,241.812322 55.1213763,242.093749 55.188461,242.377065 C55.4184656,243.338451 55.5871357,244.345168 55.6618871,245.423658 C55.7404721,246.555034 55.7270551,247.735518 55.4817169,249.029329 C55.2747127,250.117263 54.9239557,251.203308 54.2665259,252.272354 C53.6493469,253.28096 52.9037486,254.011916 52.0623151,254.518107 C50.9947104,255.160291 50.0191075,255.332169 49.0837554,255.33028 C47.8953983,255.328391 46.8431273,255.028076 45.8541075,254.591769 C45.564685,254.461444 45.2790959,254.317897 44.9820067,254.176239 C44.9513394,254.227236 44.9168387,254.280122 44.8842547,254.333007 C44.0064038,255.802474 43.0729684,257.228499 42.0436978,258.575195 C41.2674323,259.591355 40.4509159,260.545186 39.5577314,261.357359 C38.8811345,261.9731 38.189204,262.48118 37.4819398,262.768274 C36.3338335,263.231024 35.5134838,262.985483 34.9633894,262.167644 C34.6030489,261.633121 34.4228786,260.932385 34.3308767,260.15421 C34.1890406,258.994503 34.2484584,257.725246 34.3960447,256.40877 C34.5187138,255.303837 34.7123011,254.176239 34.9461391,253.035419 C34.9557226,252.9882 34.9633894,252.942869 34.9710562,252.893761 C34.595382,252.967423 34.2235413,253.048641 33.8536172,253.112859 C32.6058422,253.333846 31.411735,253.401842 30.3287966,253.152523 C29.6176991,252.990089 28.9890198,252.689774 28.5385941,252.09481 C28.2568385,251.720832 28.0690014,251.252416 28.0210838,250.651786 C28.0191671,250.615899 28.0076668,250.58379 28,250.551681 L28,250.104041 Z" id="Fill-88" fill="#FFB510"></path>
                        <path d="M49,238.482886 C49,240.692428 47.4190035,243.418439 45.4981836,244.522301 C43.5591913,245.637074 41.9981843,244.735071 42.0000016,242.50007 C42.0000016,240.295983 43.5864498,237.586339 45.5290766,236.466111 C47.4317241,235.367705 49,236.2788 49,238.482886" id="Fill-90" fill="#FFB510"></path>
                        <polygon id="Stroke-42" stroke="#000000" stroke-width="1.39999998" points="189.490708 217.250042 0 327 0.507406084 109.749958 190 0"></polygon>
                    </g>
                    <g id="Group-6" transform="translate(311.000000, 204.000000)">
                        <polygon id="Fill-54" fill="#5D5979" points="190 218.209839 0 328 0 109.790161 190 0"></polygon>
                        <polygon id="Stroke-56" stroke="#000000" stroke-width="1.39999998" points="190 218.209839 0 328 0 109.790161 190 0"></polygon>
                        <path d="M38.6784493,137.24447 L38.6784493,144.622814 C39.6753136,143.619767 40.347919,142.713058 40.7018244,141.900798 C41.0520239,141.090427 41.2299031,140.31028 41.2299031,139.562245 C41.2299031,138.834989 41.0557298,138.313631 40.709236,138.000061 C40.3608894,137.684602 39.6845781,137.433368 38.6784493,137.24447 Z M36.7588369,133.62519 L36.7588369,126.214734 C35.8360889,127.004326 35.1245724,127.829809 34.6261403,128.689294 C34.1277081,129.550667 33.8812714,130.35726 33.8812714,131.118518 C33.8812714,131.83444 34.0906499,132.397355 34.5168187,132.803485 C34.9429875,133.211504 35.6915621,133.485406 36.7588369,133.62519 Z M36.7588369,151 L36.7588369,148.481994 C36.1455245,148.842788 35.5081243,149.179026 34.8503421,149.492596 C34.188854,149.806167 33.5699829,150.055512 32.9937286,150.240631 C32.4156214,150.425751 31.7522805,150.540979 31,150.586314 L31,147.507282 C31.6059008,147.514838 32.1969783,147.477058 32.7806442,147.390165 C33.3624572,147.305161 33.9757697,147.146487 34.6224344,146.916032 C35.2672463,146.685577 35.9806157,146.372007 36.7588369,145.979099 L36.7588369,137.04235 L35.2894812,136.978124 C32.5027081,136.874231 31.1093216,135.587837 31.1093216,133.117056 C31.1093216,131.802328 31.5725485,130.2477 32.4990023,128.458839 C33.4236032,126.668088 34.8447834,125.11346 36.7588369,123.791177 L36.7588369,121.129608 L38.6784493,120 L38.6784493,122.661568 C39.7624002,122.024983 41.0409065,121.490403 42.5176739,121.061605 L42.5176739,123.834623 L42.0359179,123.957407 C40.6517959,124.325757 39.5326397,124.711108 38.6784493,125.117238 L38.6784493,133.844312 L40.2200684,133.963317 C41.6671893,134.086101 42.6584949,134.458229 43.1958381,135.083481 C43.7313284,135.710621 44,136.551216 44,137.609043 C44,138.561087 43.7961802,139.605691 43.3885405,140.737188 C42.9809008,141.870575 42.395382,142.981293 41.6356899,144.071233 C40.8759977,145.161172 39.8883979,146.183109 38.6784493,147.142709 L38.6784493,149.870392 L36.7588369,151 Z" id="Fill-58" fill="#C7C6CA"></path>
                        <polygon id="Fill-60" fill="#C7C6CA" points="47 146 47 143.569918 62 135 62 137.430082"></polygon>
                    </g>
                    <path d="M116.739719,167.439861 L121.335752,164.844762 L121.335752,164.59698 C121.335752,163.755275 121.149976,163.187834 120.784228,162.898438 C120.414611,162.609043 119.923077,162.635524 119.305757,162.985446 C118.684567,163.33726 118.148524,163.893352 117.693759,164.655615 C117.238994,165.417878 116.921626,166.346591 116.739719,167.439861 Z M122.868408,169.473193 C121.643445,170.814246 120.482342,171.797811 119.38897,172.414431 C118.558781,172.883516 117.815675,173.070771 117.161587,172.976198 C116.507499,172.883516 115.983067,172.518462 115.588292,171.881036 C115.195452,171.241719 115,170.43406 115,169.454278 C115,168.508543 115.185776,167.498497 115.5612,166.418467 C115.932753,165.340328 116.457184,164.368112 117.128689,163.503709 C117.800194,162.641198 118.54717,161.977292 119.369618,161.513881 C120.46686,160.89537 121.345428,160.834843 122.011127,161.334192 C122.671021,161.837323 123,163.000578 123,164.823956 L123,165.192793 L116.648766,168.777131 C116.648766,169.493999 116.784228,170.076572 117.049347,170.517285 C117.316401,170.959889 117.666667,171.209564 118.10208,171.258742 C118.537494,171.311703 119.032898,171.181192 119.588292,170.867207 C120.577165,170.309223 121.674407,169.319984 122.868408,167.90138 L122.868408,169.473193 Z" id="Fill-62" fill="#C7C6CA"></path>
                    <polygon id="Fill-64" fill="#C7C6CA" points="125.720367 168.014531 124 169 127.504591 161.682563 124.221619 158.69076 126.135434 157.59538 128.453047 159.707899 130.723706 154.968703 132.414023 154 129.315109 160.490313 133 163.847243 131.086185 164.94076 128.368531 162.468703"></polygon>
                    <path d="M136.52757,156.042304 L136.52757,160.524737 C137.078497,160.369973 137.588972,160.16171 138.053215,159.894216 C138.977847,159.36496 139.759933,158.505159 140.389839,157.316721 C141.023597,156.128284 141.339514,154.813743 141.339514,153.38074 C141.339514,152.337514 141.168071,151.651583 140.821334,151.32868 C140.478449,151.000044 140.08548,150.963742 139.650132,151.214039 C139.170479,151.487265 138.648447,152.060467 138.074404,152.937464 C137.502288,153.814462 136.984108,154.850046 136.52757,156.042304 Z M136.52757,153.973048 C136.997592,152.832377 137.558151,151.854114 138.211173,151.036347 C138.862268,150.220491 139.459427,149.656843 140.010354,149.341582 C140.775102,148.904039 141.464724,148.886843 142.077294,149.289994 C142.691789,149.693146 143,150.658034 143,152.190392 C143,153.401757 142.79581,154.597837 142.385504,155.780542 C141.979051,156.965158 141.433903,158.027491 140.757765,158.967541 C140.077775,159.909501 139.235974,160.666127 138.236215,161.241239 C137.949193,161.403646 137.511919,161.619552 136.920539,161.888956 C136.833855,161.92717 136.702865,161.988311 136.52757,162.066649 L136.52757,166.124913 L135,167 L135,152.499921 L136.52757,151.624834 L136.52757,153.973048 Z" id="Fill-66" fill="#C7C6CA"></path>
                    <path d="M146,156 L146,145.83661 L147.555991,144.984857 L147.555991,147.205367 C148.038074,146.10441 148.594625,145.172689 149.221725,144.415781 C149.846865,143.653294 150.546473,143.063762 151.31467,142.643464 C151.87514,142.33475 152.43953,142.120882 153,142 L153,145.667375 L151.508679,146.487513 L151.508679,144.166578 C151.244121,144.261424 151.038354,144.348831 150.887458,144.432519 C150.307391,144.748672 149.739082,145.310308 149.182531,146.111849 C148.62402,146.917109 148.081187,147.958555 147.555991,149.243624 L147.555991,155.148247 L146,156 Z" id="Fill-68" fill="#C7C6CA"></path>
                    <path d="M156.739719,144.439861 L161.335752,141.844762 L161.335752,141.59698 C161.335752,140.755275 161.149976,140.187834 160.784228,139.898438 C160.414611,139.609043 159.923077,139.635524 159.305757,139.985446 C158.684567,140.33726 158.148524,140.893352 157.691824,141.655615 C157.238994,142.417878 156.921626,143.346591 156.739719,144.439861 Z M162.868408,146.473193 C161.643445,147.814246 160.482342,148.797811 159.38897,149.414431 C158.556846,149.883516 157.815675,150.070771 157.161587,149.976198 C156.507499,149.883516 155.981132,149.518462 155.588292,148.881036 C155.195452,148.241719 155,147.43406 155,146.454278 C155,145.508543 155.183841,144.498497 155.5612,143.418467 C155.932753,142.340328 156.457184,141.368112 157.128689,140.503709 C157.798258,139.641198 158.54717,138.977292 159.369618,138.513881 C160.46686,137.89537 161.345428,137.834843 162.011127,138.334192 C162.671021,138.837323 163,140.000578 163,141.823956 L163,142.192793 L156.648766,145.777131 C156.648766,146.493999 156.780358,147.074681 157.049347,147.517285 C157.316401,147.959889 157.666667,148.209564 158.10208,148.258742 C158.537494,148.311703 159.032898,148.181192 159.588292,147.867207 C160.573295,147.309223 161.672472,146.319984 162.868408,144.90138 L162.868408,146.473193 Z" id="Fill-70" fill="#C7C6CA"></path>
                    <path d="M165,145 L165,143.234681 C165.574897,143.335399 166.184143,143.284125 166.82593,143.08635 C167.467717,142.886745 168.013688,142.656008 168.460227,142.39414 C169.185176,141.971123 169.707645,141.527962 170.025826,141.070151 C170.345816,140.61234 170.501291,140.181997 170.501291,139.775461 C170.501291,139.506268 170.428977,139.319482 170.280733,139.215101 C170.130682,139.112551 169.760072,139.090576 169.170713,139.156501 L168.675362,139.213269 L167.681043,139.335963 C166.614411,139.4788 165.94189,139.423863 165.661674,139.174813 C165.379649,138.93492 165.236829,138.521059 165.236829,137.935061 C165.236829,137.111002 165.511622,136.272292 166.061209,135.420763 C166.608988,134.567404 167.49845,133.783631 168.727789,133.063953 C169.647986,132.525567 170.521178,132.172137 171.34375,132 L171.34375,133.514439 C170.396436,133.671926 169.505165,133.997887 168.673554,134.484998 C168.064308,134.84209 167.588843,135.241302 167.247159,135.689956 C166.905475,136.138611 166.735537,136.546978 166.735537,136.915058 C166.735537,137.273982 166.881973,137.475419 167.182076,137.513875 C167.474948,137.557825 167.952221,137.526694 168.615702,137.420482 L169.590134,137.262995 C170.477789,137.120158 171.101498,137.164108 171.463068,137.394844 C171.819215,137.627412 172,138.076067 172,138.740809 C172,139.605156 171.712552,140.485984 171.139463,141.3778 C170.566374,142.271447 169.649793,143.088181 168.391529,143.824341 C167.292355,144.467108 166.162448,144.858994 165,145" id="Fill-72" fill="#C7C6CA"></path>
                    <path d="M175,139 L175,137.236512 C175.574897,137.335399 176.182335,137.284125 176.827738,137.08635 C177.467717,136.888576 178.013688,136.656008 178.462035,136.395971 C179.183368,135.971123 179.707645,135.529793 180.025826,135.070151 C180.345816,134.61234 180.503099,134.183829 180.503099,133.775461 C180.503099,133.506268 180.430785,133.319482 180.280733,133.216932 C180.13249,133.112551 179.76188,133.092407 179.168905,133.158332 L178.675362,133.213269 L177.681043,133.337794 C176.614411,133.480631 175.94189,133.423863 175.661674,133.176645 C175.379649,132.93492 175.238636,132.521059 175.238636,131.936893 C175.238636,131.111002 175.51343,130.272292 176.061209,129.420763 C176.60718,128.569235 177.496643,127.783631 178.727789,127.063953 C179.647986,126.525567 180.521178,126.172137 181.341942,126 L181.341942,127.51627 C180.396436,127.673757 179.506973,127.997887 178.671746,128.486829 C178.064308,128.84209 177.590651,129.241302 177.248967,129.689956 C176.907283,130.138611 176.735537,130.546978 176.735537,130.91689 C176.735537,131.275813 176.881973,131.475419 177.180269,131.515706 C177.474948,131.559656 177.954029,131.526694 178.615702,131.420482 L179.590134,131.264826 C180.479597,131.120158 181.101498,131.164108 181.46126,131.396676 C181.819215,131.629244 182,132.076067 182,132.740809 C182,133.605156 181.71436,134.485984 181.139463,135.379631 C180.568182,136.271447 179.651601,137.090013 178.391529,137.824341 C177.294163,138.467108 176.162448,138.858994 175,139" id="Fill-74" fill="#C7C6CA"></path>
                    <g id="Group-11" transform="translate(318.000000, 78.000000)">
                        <path d="M26.6343874,30.1382927 C27.1205534,30.1496545 27.4762846,30.2310803 27.7035573,30.3749957 C27.9288538,30.5226983 28.0988142,30.7044861 28.2134387,30.9298273 C28.3241107,31.1532749 28.3814229,31.4486801 28.3814229,31.8160431 C28.3814229,32.1455335 28.326087,32.6037904 28.2252964,33.1927073 L28.027668,34.285328 C27.9229249,34.8799257 27.8715415,35.305991 27.8715415,35.5654174 C27.8715415,35.9176313 27.9940711,36.1467597 28.243083,36.2546963 C28.4920949,36.3607392 29.0059289,36.1997812 29.7826087,35.7699287 L31,35.0957988 L31,36.4364841 L29.7687747,37.1181885 C28.3320158,37.9116167 27.4110672,38.1691495 26.9960474,37.8926805 C26.583004,37.6124242 26.3754941,37.1541674 26.3754941,36.5141227 C26.3754941,36.1732705 26.416996,35.7869713 26.4940711,35.3514379 L26.6343874,34.5826268 L26.7667984,33.7551134 L26.8636364,33.2438351 C26.9011858,33.0109194 26.9189723,32.7931527 26.9189723,32.5924286 C26.9189723,32.0565332 26.7549407,31.6872767 26.4288538,31.4884462 C26.1007905,31.2877221 25.5237154,31.4183821 24.6996047,31.8747454 L24,32.2610446 L24,30.9203592 L24.6996047,30.53406 C25.5158103,30.0833777 26.0889328,29.5796738 26.4209486,29.0191613 C26.7529644,28.462436 26.9189723,27.9019235 26.9189723,27.3433046 C26.9189723,27.1368997 26.9011858,26.9456437 26.8636364,26.7695367 L26.7667984,26.3718758 L26.6343874,25.6939587 L26.4940711,25.0804247 C26.416996,24.7263171 26.3754941,24.3778904 26.3754941,24.0389318 C26.3754941,23.404568 26.583004,22.7190763 26.9960474,21.9786696 C27.4110672,21.2401565 28.3320158,20.4751326 29.7687747,19.6817044 L31,19 L31,20.3387917 L29.7826087,21.0129217 C29.0098814,21.4389869 28.4980237,21.8461159 28.2490119,22.2305215 C27.9960474,22.6168207 27.8715415,22.9879708 27.8715415,23.3458657 C27.8715415,23.5996112 27.9229249,23.9688678 28.027668,24.4479545 L28.2252964,25.3247021 C28.326087,25.7981079 28.3814229,26.1957689 28.3814229,26.5252593 C28.3814229,26.8964095 28.3241107,27.2524107 28.2134387,27.6008374 C28.0988142,27.9473705 27.9288538,28.3204143 27.7035573,28.7161816 C27.4762846,29.1119489 27.1205534,29.5853547 26.6343874,30.1382927" id="Fill-76" fill="#000000"></path>
                        <path d="M36.0007722,30.8376771 C35.7243243,31.0229974 35.4895753,31.0499858 35.2934363,30.9168431 C35.0972973,30.7890981 35,30.5390057 35,30.1719636 C35,29.7995239 35.0988417,29.4162888 35.2965251,29.0240576 C35.4957529,28.6300272 35.7305019,28.3421511 36.0007722,28.1604293 C36.2710425,27.9787075 36.5042471,27.9517191 36.7034749,28.0776649 C36.9027027,28.2036107 37,28.4537031 37,28.8261428 C37,29.1931848 36.9027027,29.5728215 36.7081081,29.9668519 C36.5104247,30.3626816 36.2756757,30.6523569 36.0007722,30.8376771" id="Fill-78" fill="#000000"></path>
                        <path d="M46,24.8376771 C45.7253086,25.0229974 45.4907407,25.0499858 45.2947531,24.9168431 C45.0972222,24.7890981 45,24.5390057 45,24.1719636 C45,23.7995239 45.0987654,23.4162888 45.2978395,23.0240576 C45.4953704,22.6300272 45.7299383,22.3421511 46,22.1604293 C46.2716049,21.9787075 46.5046296,21.9517191 46.7021605,22.0776649 C46.9012346,22.2036107 47,22.4537031 47,22.8261428 C47,23.1931848 46.9027778,23.5728215 46.7067901,23.9668519 C46.5092593,24.3626816 46.2746914,24.6523569 46,24.8376771" id="Fill-80" fill="#000000"></path>
                        <path d="M55.0007722,19.8376771 C54.7243243,20.0229974 54.4895753,20.0499858 54.2934363,19.9168431 C54.0972973,19.7890981 54,19.5390057 54,19.1719636 C54,18.7995239 54.0972973,18.4162888 54.2965251,18.0240576 C54.4957529,17.6300272 54.7305019,17.3421511 55.0007722,17.1604293 C55.2710425,16.9787075 55.5042471,16.9517191 55.7034749,17.0776649 C55.9011583,17.2036107 56,17.4537031 56,17.8261428 C56,18.1931848 55.9027027,18.5728215 55.7065637,18.9668519 C55.5104247,19.3626816 55.2756757,19.6523569 55.0007722,19.8376771" id="Fill-82" fill="#000000"></path>
                        <path d="M64.3648915,7.86897073 C63.877712,7.85571725 63.5207101,7.77619638 63.2938856,7.63230146 C63.0650888,7.48651319 62.8974359,7.30285783 62.7869822,7.07944204 C62.678501,6.85413289 62.6213018,6.55876964 62.6213018,6.18956557 C62.6213018,5.86012194 62.6725838,5.40382358 62.7712032,4.81877714 L62.9664694,3.72631177 C63.0729783,3.1299052 63.1242604,2.70200716 63.1242604,2.44072428 C63.1242604,2.08666705 63.0019724,1.85757119 62.7534517,1.74965 C62.504931,1.64172881 61.9921105,1.80077056 61.2169625,2.23056196 L60,2.90459605 L60,1.56599464 L61.2327416,0.882493783 C62.6666667,0.0891783781 63.5897436,-0.170211146 64.0078895,0.10811192 C64.4220907,0.38832834 64.6331361,0.844626699 64.6331361,1.47890035 C64.6331361,1.82538417 64.5897436,2.21730848 64.504931,2.65656666 L64.3648915,3.42526846 L64.2327416,4.25077088 L64.1360947,4.7544031 C64.0986193,4.99296572 64.0808679,5.21448816 64.0808679,5.41518371 C64.0808679,5.94532288 64.2445759,6.31074024 64.5700197,6.50764907 C64.8994083,6.70834462 65.4753452,6.57770318 66.3017751,6.11951146 L67,5.73326721 L67,7.07376197 L66.3017751,7.46000623 C65.4852071,7.91251788 64.9112426,8.4199368 64.5798817,8.98036964 C64.2465483,9.54269583 64.0808679,10.1031287 64.0808679,10.6635615 C64.0808679,10.8642571 64.0986193,11.0516991 64.1360947,11.2277811 L64.2327416,11.6329589 L64.3648915,12.312673 L64.504931,12.9261198 C64.5897436,13.2763903 64.6331361,13.6209808 64.6331361,13.9617845 C64.6331361,14.6017382 64.4220907,15.2871324 64.0078895,16.0236472 C63.5897436,16.7582686 62.6666667,17.5231837 61.2327416,18.3164991 L60,19 L60,17.6595052 L61.2169625,16.9854711 C61.9921105,16.5556797 62.504931,16.1505019 62.7534517,15.7680444 C63.0019724,15.3855869 63.1242604,15.0144894 63.1242604,14.6585388 C63.1242604,14.4048294 63.0729783,14.039412 62.9664694,13.5622868 L62.7712032,12.6837704 C62.6725838,12.2085385 62.6213018,11.8090408 62.6213018,11.4795972 C62.6213018,11.1103931 62.678501,10.7525492 62.7869822,10.4079587 C62.8974359,10.0595815 63.0650888,9.68848411 63.2938856,9.29087973 C63.5207101,8.8951687 63.877712,8.4199368 64.3648915,7.86897073" id="Fill-84" fill="#000000"></path>
                        <path d="M0,57 L6.27272727,53.3067218 C9.44872005,51.4360254 12.0227273,46.9074774 12.0227273,43.1911041 C12.0227273,39.4766555 14.5967345,34.9481075 17.7727273,33.0774111 L23,30" id="Stroke-86" stroke="#000000" stroke-width="1.29919998"></path>
                    </g>
                    <path d="M141,306.761699 C140.639753,307.893628 140.029811,308.850241 139.259759,309.797327 C136.150961,313.616159 133.065035,317.467386 129.986734,321.326235 C129.005108,322.553445 128.088289,323.121315 127.114288,322.978394 C125.991613,322.812607 124.838442,322.721138 123.580436,322.58584 C124.270433,321.808353 124.807944,321.162353 125.375953,320.583049 C125.539875,320.417262 125.806725,320.384866 125.987801,320.394394 C126.510064,320.421073 127.047575,320.432507 127.514562,320.575427 C128.162626,320.775515 128.694419,320.44394 129.413007,319.533061 C132.352165,315.803793 135.329445,312.12407 138.312443,308.453876 C138.869015,307.767858 139.112992,307.236194 139.105367,306.472047 C139.067246,302.424542 139.072964,298.35036 139.101555,294.262838 C139.107274,293.578726 138.90523,293.329091 138.398216,293.289074 C135.291324,293.054684 132.19968,292.784088 129.11566,292.490625 C128.675358,292.448702 128.345608,292.593528 127.882434,293.174737 C124.777447,297.062171 121.659119,300.930548 118.527447,304.781775 C118.045212,305.374418 117.858417,305.835575 117.862229,306.472047 C117.885102,310.59387 117.883196,314.730937 117.864135,318.877533 C117.860323,319.464459 117.98803,319.775073 118.464547,319.782695 C119.270814,319.79794 120.037054,319.914182 120.829979,319.963728 C122.208066,320.051386 123.374581,318.545958 123.336459,316.821386 C123.24878,312.771976 123.330741,308.619663 123.290714,304.539764 C123.281183,303.615545 123.616651,303.304932 124.302836,302.899038 C125.027142,302.468371 125.301616,302.529351 125.292086,303.421174 C125.255871,307.609693 125.29018,311.758194 125.271119,315.93528 C125.257777,319.323445 123.237344,322.059893 120.526914,322.28666 C119.282251,322.391468 118.062367,322.336206 116.981625,322.037026 C116.474611,321.896011 116.068618,321.154731 116.055276,320.421073 C115.969503,316.011504 116.005718,311.529522 116.019061,307.060879 C116.022873,305.919421 116.526075,304.835132 117.393336,303.760371 C120.898597,299.417498 124.388609,295.047947 127.88434,290.687923 C128.282708,290.457345 128.67917,290.228673 129.077539,290 C132.445563,290.301086 135.804056,290.623133 139.187328,290.888012 C139.970723,290.950897 140.628317,291.16623 141,291.911321 L141,306.761699 Z" id="Fill-92" fill="#C7C6CA"></path>
                    <path d="M129.68985,312.588178 C129.154541,312.75301 128.648861,312.891913 128.157008,312.971551 C127.179229,313.128974 126.444413,312.623367 126.169844,311.695494 C125.875523,310.704652 125.915029,310.23979 126.679475,309.802708 C127.455772,309.358218 128.050341,309.037815 128.26565,310.026805 C128.362441,310.467591 129.069602,310.728729 129.55948,310.528708 C130.880964,309.991616 132.232077,309.180422 133.573314,308.432197 C133.814302,308.298851 134.152081,307.972891 134.270599,307.708049 C134.52739,307.146881 134.829613,306.470886 134.807884,306.024544 C134.792082,305.69488 134.34171,305.437447 134.003932,305.520789 C133.018251,305.759702 131.987138,306.198636 130.977754,306.541263 C130.114543,306.835738 129.237504,307.176513 128.396021,307.369126 C127.260217,307.628412 126.523425,307.211702 126.39898,305.954166 C126.274536,304.691074 126.673549,303.376125 127.712563,302.029691 C129.458739,299.7702 133.42319,297.645909 135.135786,298.049654 C136.002948,298.25523 136.403936,298.992343 136.546159,300.027634 C136.607393,300.488792 136.417764,300.775859 135.963442,301.035144 C135.208872,301.46667 134.479982,301.931532 134.329859,300.894389 C134.296278,300.666588 134.059241,300.54991 133.86566,300.472124 C132.960967,300.107272 129.87553,301.670395 128.994541,303.009421 C128.719972,303.427982 128.542194,304.087309 128.57775,304.472533 C128.599478,304.748487 129.014294,304.931839 129.318492,304.844793 C130.430592,304.526242 131.568372,304.068788 132.6943,303.681712 C133.387635,303.44465 134.088871,303.187216 134.762452,303.031645 C135.941713,302.761247 136.830604,302.983492 136.970851,304.350298 C137.117024,305.78563 136.729863,307.365422 135.436033,308.726672 C134.912576,309.27858 134.353562,309.776779 133.792574,310.247198 C132.457263,311.369535 131.04689,312.171469 129.68985,312.588178" id="Fill-94" fill="#C7C6CA"></path>
                    <path d="M254.552023,228.007288 C255.176228,227.637837 255.781855,227.289334 256.385624,226.917979 C256.733024,226.704688 257.080424,226.476161 257.424108,226.219069 C258.104046,225.706789 258.663229,225.02121 259.003198,224.084251 C259.265141,223.364393 259.374748,222.682622 259.37289,222.046557 C259.371033,221.319081 259.066361,221.021997 258.477454,221.151495 C258.245235,221.202914 257.996296,221.286707 257.75293,221.421918 C256.968959,221.859927 256.184987,222.330311 255.399158,222.787364 C255.373149,222.802599 255.348999,222.825451 255.309986,222.852113 C255.059189,224.562252 254.808393,226.270487 254.552023,228.007288 M253.032381,221.833266 C253.091829,221.798987 253.138273,221.770421 253.186575,221.741855 C254.955155,220.696347 256.723735,219.643221 258.492316,218.60533 C259.213124,218.180652 259.906065,217.944508 260.53027,218.011161 C261.581758,218.127329 262.03505,218.990016 261.997895,220.414498 C261.962597,221.623783 261.663499,222.913053 261.106174,224.240411 C260.550706,225.565864 259.73701,226.61899 258.77841,227.495008 C257.858822,228.338652 256.913226,228.96329 255.965772,229.534607 C255.375007,229.890727 254.787957,230.233516 254.180472,230.593446 C254.003986,231.873194 253.827499,233.147228 253.652871,234.430785 C252.770438,234.950683 251.899152,235.466772 251,236 C251.676222,231.275216 252.352444,226.559954 253.032381,221.833266" id="Fill-96" fill="#C7C6CA"></path>
                    <path d="M232.556052,240.008231 C232.632267,239.962531 232.682457,239.932065 232.734506,239.901598 C233.251277,239.596932 233.766188,239.301787 234.282959,238.981888 C234.671467,238.741963 235.063692,238.494422 235.448482,238.203085 C236.145565,237.675632 236.710667,236.963476 237.037831,235.99997 C237.285063,235.27258 237.396596,234.583273 237.378008,233.951091 C237.361278,233.372226 237.115904,233.069464 236.643747,233.132301 C236.376067,233.168481 236.078645,233.252264 235.790517,233.408405 C234.994913,233.84065 234.201168,234.322403 233.405564,234.787018 C233.373963,234.804156 233.34608,234.834622 233.31262,234.859377 C233.059811,236.56741 232.812579,238.269731 232.556052,240.008231 M231.033623,233.833033 C231.094967,233.796854 231.145157,233.766387 231.199064,233.735921 C232.963149,232.69244 234.729092,231.641342 236.493177,230.607382 C237.320382,230.123725 238.101115,229.883801 238.785186,230.055175 C239.551048,230.247496 239.958144,230.906336 239.995322,231.970762 C240.047371,233.515038 239.666299,235.175467 238.792621,236.910159 C238.203354,238.081219 237.398455,238.968559 236.526637,239.726415 C235.68642,240.453805 234.831331,241.017437 233.970666,241.533465 C233.424153,241.862885 232.875781,242.186593 232.327409,242.504588 C232.217735,242.567425 232.176839,242.620742 232.156392,242.771171 C232.003963,243.921285 231.84224,245.075207 231.684234,246.229129 C231.67494,246.293871 231.661927,246.360516 231.648915,246.434779 C230.765943,246.954615 229.888548,247.474451 229,248 C229.678494,243.273869 230.355129,238.561068 231.033623,233.833033" id="Fill-98" fill="#C7C6CA"></path>
                    <path d="M240,238 C240.810974,232.849285 241.621948,227.700455 242.436526,222.540313 C243.27994,222.031274 244.119748,221.522236 244.986589,221 C244.718067,222.711878 244.451346,224.418099 244.17922,226.14883 C244.251306,226.105467 244.307173,226.071532 244.361238,226.039481 C245.139773,225.570034 245.914704,225.093046 246.691437,224.634912 C247.387073,224.222025 248.079104,223.863813 248.740498,223.758234 C249.542461,223.631917 249.974981,224.139071 249.998409,225.151492 C250.018233,225.943329 249.848829,226.808695 249.711865,227.662748 C249.452353,229.267162 249.185633,230.873461 248.922517,232.477875 C248.906297,232.581568 248.895484,232.64944 248.796365,232.707885 C247.988996,233.192414 247.179824,233.680714 246.374256,234.167129 C246.358037,234.176555 246.345421,234.180326 246.309378,234.191638 C246.367047,233.829655 246.424717,233.467672 246.484188,233.107575 C246.738293,231.529555 247.003211,229.947765 247.244702,228.377287 C247.295162,228.039814 247.280745,227.721193 247.262723,227.417656 C247.246504,227.136742 247.095122,227.031163 246.869851,227.051902 C246.511221,227.083953 246.132766,227.306421 245.754311,227.530775 C245.157795,227.885217 244.559476,228.258512 243.96296,228.607297 C243.818787,228.690252 243.770128,228.776977 243.743096,228.950427 C243.519627,230.385161 243.290752,231.823666 243.06368,233.260286 C242.901485,234.278363 242.737488,235.300211 242.577095,236.320173 C242.560876,236.414439 242.550063,236.480426 242.45635,236.536986 C241.656189,237.017744 240.854226,237.502273 240.050461,237.984917 C240.037845,237.994344 240.023428,237.994344 240,238" id="Fill-100" fill="#C7C6CA"></path>
                    <path d="M198.286528,201.470712 C196.43037,197.925093 192.676171,196.937155 188.333713,199.423056 C188.154761,199.52695 187.972,199.630844 187.791144,199.747961 C185.999714,195.949217 182.137001,194.817717 177.670799,197.377288 C173.573925,199.723404 169.991064,204.576199 168.049238,209.874795 C166.629039,210.348929 165.126979,211.289643 163.314607,213.116289 C158.865539,217.596955 156.120329,225.79136 157.256868,230.953949 C157.614774,232.574696 158.117364,233.519187 158.707527,234.153885 C159.743168,235.268385 161.386106,235.251384 163.080445,234.282336 L201.442948,212.305915 C204.032051,210.821175 206.362243,207.264221 206.927657,203.716712 C206.973347,203.422031 207,203.178352 207,203.004566 C207,198.871473 204.37663,197.031604 201.134541,198.888474 C200.0989,199.479725 199.127986,200.376992 198.286528,201.470712 Z" id="Fill-102" fill="#433A84"></path>
                    <path d="M201.134541,198.888474 C200.0989,199.479725 199.127986,200.376992 198.286528,201.470712 C196.43037,197.925093 192.676171,196.937155 188.333713,199.423056 C188.154761,199.52695 187.972,199.630844 187.791144,199.747961 C185.999714,195.949217 182.137001,194.817717 177.670799,197.377288 C173.573925,199.723404 169.991064,204.576199 168.049238,209.874795 C166.629039,210.348929 165.126979,211.289643 163.314607,213.116289 C158.865539,217.596955 156.120329,225.79136 157.256868,230.953949 C157.614774,232.574696 158.117364,233.519187 158.707527,234.153885 C159.743168,235.268385 161.386106,235.251384 163.080445,234.282336 L201.442948,212.305915 C204.032051,210.821175 206.362243,207.264221 206.927657,203.716712 C206.973347,203.422031 207,203.178352 207,203.004566 C207,198.871473 204.37663,197.031604 201.134541,198.888474 Z" id="Stroke-104" stroke="#000000" stroke-width="1.39999998"></path>
                    <path d="M182.287957,211.695042 L180.622246,214.43218 L178.37383,215.67072 L176.710081,214.765201 L176.710081,212.304958 L178.37383,209.56782 L180.622246,208.32928 L182.287957,209.234799 L182.287957,211.695042 Z M186,209.680075 L186,207.161833 L184.475551,208 C184.346061,207.449953 184.124359,207.004677 183.826139,206.651076 L184.90326,204.877456 L183.28856,204 L182.209478,205.771749 C181.736644,205.706268 181.216722,205.749298 180.649713,205.919551 L180.649713,204.252572 L178.346363,205.521048 L178.346363,207.186155 C177.781316,207.640786 177.259433,208.172123 176.786598,208.757717 L175.709478,208.172123 L174.092816,210.828812 L175.171899,211.416277 C174.875641,212.097287 174.650015,212.787652 174.520525,213.479888 L173,214.318054 L173,216.840037 L174.520525,216 C174.650015,216.548176 174.875641,216.995323 175.171899,217.348924 L174.092816,219.120674 L175.709478,220 L176.786598,218.228251 C177.259433,218.291862 177.781316,218.248831 178.346363,218.080449 L178.346363,219.747428 L180.649713,218.478952 L180.649713,216.811974 C181.216722,216.359214 181.736644,215.827877 182.209478,215.242283 L183.28856,215.827877 L184.90326,213.171188 L183.826139,212.585594 C184.124359,211.902713 184.346061,211.210477 184.475551,210.520112 L186,209.680075 Z" id="Fill-106" fill="#FFF2BB"></path>
                </g>
                <g id="Group-4" transform="translate(150.500000, 427.500000) scale(-1, 1) translate(-150.500000, -427.500000) translate(108.000000, 397.000000)">
                    <g id="Group-9" transform="translate(67.000000, 0.000000)">
                        <path d="M10.7433,11.62375 L8.2368,1.38738636 C12.86955,1.93284091 17.0478,4.47147727 17.7138,7.19193182 C18.3798,9.91011364 15.29505,11.8419318 10.7433,11.62375" id="Fill-1" fill="#3F3F3F"></path>
                        <g id="Group-5" transform="translate(0.000000, 0.988977)">
                            <mask id="mask-2" fill="white">
                                <use xlink:href="#path-1"></use>
                            </mask>
                            <g id="Clip-4"></g>
                            <path d="M7.0605,0.300909091 L9.567,10.5372727 C4.93425,9.98954545 0.756,7.45318182 0.09,4.73272727 C-0.576,2.01454545 2.50875,0.0804545455 7.0605,0.300909091" id="Fill-3" fill="#3F3F3F" mask="url(#mask-2)"></path>
                        </g>
                        <g id="Group-8" transform="translate(5.500000, 7.807159)">
                            <mask id="mask-4" fill="white">
                                <use xlink:href="#path-3"></use>
                            </mask>
                            <g id="Clip-7"></g>
                            <polygon id="Fill-6" fill="#3F3F3F" mask="url(#mask-4)" points="6.3836 2.98886364 4.86485 5.57068182 4.86485 3.80931818 5.7491 6.67295455 6.0461 7.64113636 5.7491 8.15022727 4.23035 10.7297727 4.23035 9.54340909 5.11235 12.4184091 5.2946 13.0093182 5.11235 13.3206818 3.5936 15.9093182 2.2211 15.2956818 3.1031 12.4184091 3.1031 13.3184091 1.58435 10.7297727 1.34585 10.3229545 1.58435 9.54340909 2.46635 6.67522727 2.46635 8.15022727 0.94985 5.57295455 0.59435 4.96613636 0.94985 3.80931818 1.83185 0.943409091"></polygon>
                        </g>
                    </g>
                    <g id="Group-5" transform="translate(25.500000, 45.500000) scale(-1, 1) translate(-25.500000, -45.500000) translate(0.000000, 30.000000)">
                        <path d="M39.53367,17.1207833 C42.30807,17.1156167 45.08757,17.7338944 47.19217,18.9670056 C49.30527,20.2035611 50.35587,21.82245 50.34737,23.4465056 C50.34227,24.1078389 50.15867,24.76745 49.80677,25.4063944 L47.16497,23.8598389 C46.20787,23.3001167 44.94647,23.0211167 43.68337,23.0280056 C42.42197,23.0262833 41.15887,23.3087278 40.19497,23.8736167 C38.26377,25.0016722 38.25357,26.82895 40.17287,27.9518389 L42.81297,29.4966722 C39.05937,30.2131167 34.78047,29.7067833 31.80547,27.9673389 C29.70087,26.7342278 28.64177,25.1101722 28.65197,23.4861167 C28.65707,22.5165056 29.04467,21.5486167 29.80117,20.65995 L16.49867,12.8772278 C12.43567,14.0690056 7.37647,13.6780611 4.00537,11.7061167 C1.89907,10.4747278 0.84167,8.84895 0.85017,7.22661667 C0.85357,6.56528333 1.03207,5.90050556 1.39077,5.26672778 L4.03087,6.81328333 C5.95017,7.93445 9.07307,7.92928333 11.00427,6.79950556 C12.93377,5.67145 12.94227,3.84417222 11.02467,2.72300556 L8.38457,1.17645 C9.47257,0.971505556 10.60137,0.864727778 11.73187,0.861283333 C14.50627,0.856116667 17.28577,1.47439444 19.39037,2.70750556 C21.50517,3.94233889 22.55577,5.56295 22.54727,7.18528333 C22.54217,8.15661667 22.15287,9.12278333 21.39467,10.0148944 L34.69717,17.7958944 C36.22037,17.3515611 37.87277,17.1242278 39.53367,17.1207833" id="Fill-1" fill="#FFFFFF"></path>
                        <path d="M39.53367,17.1207833 C42.30807,17.1156167 45.08757,17.7338944 47.19217,18.9670056 C49.30527,20.2035611 50.35587,21.82245 50.34737,23.4465056 C50.34227,24.1078389 50.15867,24.76745 49.80677,25.4063944 L47.16497,23.8598389 C46.20787,23.3001167 44.94647,23.0211167 43.68337,23.0280056 C42.42197,23.0262833 41.15887,23.3087278 40.19497,23.8736167 C38.26377,25.0016722 38.25357,26.82895 40.17287,27.9518389 L42.81297,29.4966722 C39.05937,30.2131167 34.78047,29.7067833 31.80547,27.9673389 C29.70087,26.7342278 28.64177,25.1101722 28.65197,23.4861167 C28.65707,22.5165056 29.04467,21.5486167 29.80117,20.65995 L16.49867,12.8772278 C12.43567,14.0690056 7.37647,13.6780611 4.00537,11.7061167 C1.89907,10.4747278 0.84167,8.84895 0.85017,7.22661667 C0.85357,6.56528333 1.03207,5.90050556 1.39077,5.26672778 L4.03087,6.81328333 C5.95017,7.93445 9.07307,7.92928333 11.00427,6.79950556 C12.93377,5.67145 12.94227,3.84417222 11.02467,2.72300556 L8.38457,1.17645 C9.47257,0.971505556 10.60137,0.864727778 11.73187,0.861283333 C14.50627,0.856116667 17.28577,1.47439444 19.39037,2.70750556 C21.50517,3.94233889 22.55577,5.56295 22.54727,7.18528333 C22.54217,8.15661667 22.15287,9.12278333 21.39467,10.0148944 L34.69717,17.7958944 C36.22037,17.3515611 37.87277,17.1242278 39.53367,17.1207833 Z" id="Stroke-3" stroke="#3F3F3F" stroke-width="1.70000005"></path>
                    </g>
                </g>
            </g>
            <g id="Group-15" transform="translate(298.000000, 18.000000)">
                <path d="M17.6287,45.1916 L7.2487,48.5916 L5.8827,49.0346 C4.9727,49.3296 3.9977,49.4126 3.0657,49.2016 C2.3877,49.0466 1.7217,48.7986 1.1387,48.4626 C1.1327,48.4586 1.1277,48.4556 1.1217,48.4516 C0.3297,47.9846 0.1097,46.9336 0.5817,46.1446 L1.3687,44.8326 L5.1687,38.4926 C8.6287,42.1316 13.6287,44.1316 17.6287,45.1916" id="Fill-1" fill="#E1FFEF"></path>
                <path d="M63.1277,19.5842 C58.1057,22.4832 48.6067,21.7002 41.9097,17.8342 C35.2137,13.9682 33.8567,8.4832 38.8787,5.5842 C43.9007,2.6852 53.4007,3.4682 60.0967,7.3342 C66.7927,11.2002 68.1497,16.6852 63.1277,19.5842 Z M69.6467,20.8482 C74.1767,16.6482 71.8217,10.1042 63.5607,5.3342 C54.3137,-0.0048 41.1947,-1.0868 34.2597,2.9172 C27.3247,6.9212 29.1987,14.4952 38.4457,19.8342 C46.7067,24.6042 58.0447,25.9632 65.3157,23.3482 L87.5217,36.1672 L91.8517,33.6672 L69.6467,20.8482 Z" id="Fill-3" fill="#6D68AF"></path>
                <path d="M63.1277,19.5842 C58.1057,22.4832 48.6067,21.7002 41.9097,17.8342 C35.2137,13.9682 33.8567,8.4832 38.8787,5.5842 C43.9007,2.6852 53.4007,3.4682 60.0967,7.3342 C66.7927,11.2002 68.1497,16.6852 63.1277,19.5842 Z M69.6467,20.8482 C74.1767,16.6482 71.8217,10.1042 63.5607,5.3342 C54.3137,-0.0048 41.1947,-1.0868 34.2597,2.9172 C27.3247,6.9212 29.1987,14.4952 38.4457,19.8342 C46.7067,24.6042 58.0447,25.9632 65.3157,23.3482 L87.5217,36.1672 L91.8517,33.6672 L69.6467,20.8482 Z" id="Stroke-5" stroke="#363091"></path>
                <path d="M31.7986,28.6672 C36.9006,31.6132 37.9346,35.7922 34.1076,38.0012 C30.2816,40.2102 23.0436,39.6132 17.9426,36.6672 C12.8406,33.7222 11.8066,29.5432 15.6326,27.3342 C19.4586,25.1252 26.6966,25.7222 31.7986,28.6672" id="Fill-7" fill="#DFDEED"></path>
                <path d="M31.7986,28.6672 C36.9006,31.6132 37.9346,35.7922 34.1076,38.0012 C30.2816,40.2102 23.0436,39.6132 17.9426,36.6672 C12.8406,33.7222 11.8066,29.5432 15.6326,27.3342 C19.4586,25.1252 26.6966,25.7222 31.7986,28.6672 Z" id="Stroke-9" stroke="#363091"></path>
                <path d="M5.1189,46.6672 C6.3939,47.4032 6.6529,48.4482 5.6969,49.0012 C4.7399,49.5532 2.9309,49.4032 1.6549,48.6672 C0.3799,47.9312 0.1209,46.8872 1.0769,46.3342 C2.0339,45.7812 3.8439,45.9312 5.1189,46.6672" id="Fill-11" fill="#44E291"></path>
                <path d="M5.1189,46.6672 C6.3939,47.4032 6.6529,48.4482 5.6969,49.0012 C4.7399,49.5532 2.9309,49.4032 1.6549,48.6672 C0.3799,47.9312 0.1209,46.8872 1.0769,46.3342 C2.0339,45.7812 3.8439,45.9312 5.1189,46.6672 Z" id="Stroke-13" stroke="#000000"></path>
            </g>
        </g>
    </g>
</svg>