<?xml version="1.0" encoding="UTF-8"?>
<svg width="343px" height="511px" viewBox="0 0 343 511" version="1.1" xmlns="http://www.w3.org/2000/svg" xmlns:xlink="http://www.w3.org/1999/xlink">
    <!-- Generator: Sketch 52.2 (67145) - http://www.bohemiancoding.com/sketch -->
    <title>Group 140</title>
    <desc>Created with Sketch.</desc>
    <defs>
        <polygon id="path-1" points="0.579269208 0.5558 14.004 0.5558 14.004 24.9552945 0.579269208 24.9552945"></polygon>
    </defs>
    <g id="Page-1" stroke="none" stroke-width="1" fill="none" fill-rule="evenodd">
        <g id="Group-140" transform="translate(1.000000, 0.000000)">
            <path d="M140.3449,350.825 L116.6649,488.065 L77.4538878,509.309334 C78.9412293,502.893111 80.0182333,497.755 80.6849,493.895 L103.8449,359.615 L140.3449,350.825 Z" id="Fill-1" fill="#E7E5F7"></path>
            <path d="M140.3449,350.825 L116.6649,488.065 L78.4538878,509.384927 C79.2745626,502.918309 80.0182333,497.755 80.6849,493.895 L103.8449,359.615 L140.3449,350.825 Z" id="Stroke-3" stroke="#4636C0" stroke-width="2" stroke-linecap="round" stroke-linejoin="round"></path>
            <polygon id="Fill-5" fill="#E0DDF4" points="207.5548 435.5848 168.7148 458.0158 145.0448 348.1058 181.5348 314.7658"></polygon>
            <polygon id="Stroke-7" stroke="#4636C0" stroke-width="2" stroke-linecap="round" stroke-linejoin="round" points="207.5548 435.5848 168.7148 458.0158 145.0448 348.1058 181.5348 314.7658"></polygon>
            <g id="Group-12" transform="translate(106.000000, 40.155000)">
                <path d="M58.6681,0.3087 C59.1221,2.5667 59.3621,5.0577 59.3621,7.7617 L59.3621,46.5307 C59.3621,65.1357 47.9801,86.7897 33.9391,94.8967 L25.8971,99.5387 C11.8561,107.6457 0.4731,99.1357 0.4731,80.5307 L0.4731,54.5477" id="Fill-9" fill="#FDFDFE"></path>
                <path d="M58.6681,0.3087 C59.1221,2.5667 59.3621,5.0577 59.3621,7.7617 L59.3621,46.5307 C59.3621,65.1357 47.9801,86.7897 33.9391,94.8967 L25.8971,99.5387 C11.8561,107.6457 0.4731,99.1357 0.4731,80.5307 L0.4731,54.5477" id="Stroke-11" stroke="#4636C0" stroke-width="2" stroke-linecap="round" stroke-linejoin="round"></path>
            </g>
            <g id="Group-16" transform="translate(133.000000, 115.155000)">
                <path d="M14.1486,0.2814 C12.5336,2.4074 10.6726,4.1624 8.6916,5.3054 L5.1446,7.3534 C3.3736,8.3764 1.6996,8.8004 0.2106,8.6914" id="Fill-13" fill="#FDFDFE"></path>
                <path d="M14.1486,0.2814 C12.5336,2.4074 10.6726,4.1624 8.6916,5.3054 L5.1446,7.3534 C3.3736,8.3764 1.6996,8.8004 0.2106,8.6914" id="Stroke-15" stroke="#4636C0" stroke-width="2" stroke-linecap="round" stroke-linejoin="round"></path>
            </g>
            <g id="Group-20" transform="translate(148.000000, 79.155000)">
                <path d="M9.6193,0.674 C8.7283,2.284 7.6203,3.743 6.3543,4.883 L4.0893,6.925 C2.9583,7.944 1.8243,8.597 0.7593,8.901" id="Fill-17" fill="#FDFDFE"></path>
                <path d="M9.6193,0.674 C8.7283,2.284 7.6203,3.743 6.3543,4.883 L4.0893,6.925 C2.9583,7.944 1.8243,8.597 0.7593,8.901" id="Stroke-19" stroke="#4636C0" stroke-width="2" stroke-linecap="round" stroke-linejoin="round"></path>
            </g>
            <g id="Group-24" transform="translate(149.000000, 68.155000)">
                <path d="M0.3463,10.1906 C1.0483,8.4696 2.0063,6.8136 3.1803,5.3896 L5.2853,2.8406 C6.3353,1.5696 7.4443,0.6216 8.5343,0.0056" id="Fill-21" fill="#FDFDFE"></path>
                <path d="M0.3463,10.1906 C1.0483,8.4696 2.0063,6.8136 3.1803,5.3896 L5.2853,2.8406 C6.3353,1.5696 7.4443,0.6216 8.5343,0.0056" id="Stroke-23" stroke="#4636C0" stroke-width="2" stroke-linecap="round" stroke-linejoin="round"></path>
            </g>
            <path d="M253.1974,203.5008 L253.1014,203.6538 C242.9524,219.9498 228.3404,225.9448 220.4634,217.0448 L154.5364,142.5438 L154.6314,142.3918 C164.7804,126.0948 179.3934,120.0998 187.2694,128.9998 L253.1974,203.5008 Z" id="Fill-25" fill="#7064CE"></path>
            <path d="M253.1974,203.5008 L253.1014,203.6538 C242.9524,219.9498 228.3404,225.9448 220.4634,217.0448 L154.5364,142.5438 L154.6314,142.3918 C164.7804,126.0948 179.3934,120.0998 187.2694,128.9998 L253.1974,203.5008 Z" id="Stroke-27" stroke="#4636C0" stroke-width="2" stroke-linecap="round" stroke-linejoin="round"></path>
            <path d="M40.0861,302.2176 L59.7961,307.5086 L112.7491,169.8686 C101.8641,166.9466 87.4071,179.5236 80.4591,197.9576 L40.0861,302.2176 Z" id="Fill-29" fill="#F6F5FC"></path>
            <path d="M40.0861,302.2176 L59.7961,307.5086 L112.7491,169.8686 C101.8641,166.9466 87.4071,179.5236 80.4591,197.9576 L40.0861,302.2176 Z" id="Stroke-31" stroke="#4636C0" stroke-width="2" stroke-linecap="round" stroke-linejoin="round"></path>
            <path d="M182.6837,326.6776 L87.4207,358.7276 L87.4207,216.1556 C87.4207,196.0316 99.7327,172.6086 114.9207,163.8386 L155.1827,140.5946 C170.3707,131.8246 182.6837,141.0316 182.6837,161.1556 L182.6837,326.6776 Z" id="Fill-33" fill="#F6F5FC"></path>
            <path d="M182.6837,326.6776 L87.4207,358.7276 L87.4207,216.1556 C87.4207,196.0316 99.7327,172.6086 114.9207,163.8386 L155.1827,140.5946 C170.3707,131.8246 182.6837,141.0316 182.6837,161.1556 L182.6837,326.6776 Z" id="Stroke-35" stroke="#4636C0" stroke-width="2" stroke-linecap="round" stroke-linejoin="round"></path>
            <path d="M182.6837,326.6776 L136.3507,343.0996 L136.3507,187.9056 L136.3507,151.4666 L161.5137,136.9396 C168.9007,132.6736 182.6837,141.0316 182.6837,161.1556 L182.6837,326.6776 Z" id="Fill-37" fill="#7064CE"></path>
            <path d="M182.6837,326.6776 L136.3507,343.0996 L136.3507,187.9056 L136.3507,151.4666 L161.5137,136.9396 C168.9007,132.6736 182.6837,141.0316 182.6837,161.1556 L182.6837,326.6776 Z" id="Stroke-39" stroke="#4636C0" stroke-width="2" stroke-linecap="round" stroke-linejoin="round"></path>
            <polygon id="Fill-41" fill="#F9F9FD" points="164.5246 266.5995 155.3786 246.5005 291.2876 58.7675 301.1686 68.5895"></polygon>
            <polygon id="Stroke-43" stroke="#4636C0" stroke-width="2" stroke-linecap="round" stroke-linejoin="round" points="164.5246 266.5995 155.3786 246.5005 291.2876 58.7675 301.1686 68.5895"></polygon>
            <path d="M188.9787,270.6082 C187.8187,272.5102 186.5627,274.3882 185.2197,276.2072 C176.6807,287.7652 166.1417,294.9932 156.2257,297.1802 C154.5447,310.6912 148.5097,325.9032 138.6367,339.2752 C137.8137,340.3852 136.9737,341.4772 136.1247,342.5232 L136.1247,229.0952 C137.0777,227.5912 138.0907,226.1122 139.1567,224.6722 C155.4117,202.6672 178.8987,196.3612 191.6207,210.5902 C192.3387,211.3882 192.9977,212.2302 193.6117,213.1282 C181.5227,233.0062 179.5127,256.9542 188.9787,270.6082" id="Fill-45" fill="#F9F9FD"></path>
            <path d="M188.9787,270.6082 C187.8187,272.5102 186.5627,274.3882 185.2197,276.2072 C176.6807,287.7652 166.1417,294.9932 156.2257,297.1802 C154.5447,310.6912 148.5097,325.9032 138.6367,339.2752 C137.8137,340.3852 136.9737,341.4772 136.1247,342.5232 L136.1247,229.0952 C137.0777,227.5912 138.0907,226.1122 139.1567,224.6722 C155.4117,202.6672 178.8987,196.3612 191.6207,210.5902 C192.3387,211.3882 192.9977,212.2302 193.6117,213.1282 C181.5227,233.0062 179.5127,256.9542 188.9787,270.6082 Z" id="Stroke-47" stroke="#4636C0" stroke-width="2" stroke-linecap="round" stroke-linejoin="round"></path>
            <g id="Group-52" transform="translate(158.000000, 132.155000)">
                <path d="M0.7248,127.9259 L93.6058,0.0369" id="Fill-49" fill="#E7E5F7"></path>
                <path d="M0.7248,127.9259 L93.6058,0.0369" id="Stroke-51" stroke="#4636C0" stroke-width="2" stroke-linecap="round" stroke-linejoin="round"></path>
            </g>
            <polygon id="Fill-53" fill="#7064CE" points="31.8952 302.4442 0.0002 320.8582 0.0002 291.6002 31.8952 273.1852"></polygon>
            <polygon id="Stroke-55" stroke="#4636C0" stroke-width="2" stroke-linecap="round" stroke-linejoin="round" points="31.8952 302.4442 0.0002 320.8582 0.0002 291.6002 31.8952 273.1852"></polygon>
            <polygon id="Fill-57" fill="#F6F5FC" points="67.5783 317.244 18.0163 345.858 18.0163 300.394 67.5783 271.78"></polygon>
            <polygon id="Stroke-59" stroke="#4636C0" stroke-width="2" stroke-linecap="round" stroke-linejoin="round" points="67.5783 317.244 18.0163 345.858 18.0163 300.394 67.5783 271.78"></polygon>
            <polygon id="Fill-61" fill="#F6F5FC" points="100.382 374.4823 55.985 400.1153 13.313 375.4793 57.711 349.8453"></polygon>
            <polygon id="Stroke-63" stroke="#4636C0" stroke-width="2" stroke-linecap="round" stroke-linejoin="round" points="100.382 374.4823 55.985 400.1153 13.313 375.4793 57.711 349.8453"></polygon>
            <polygon id="Fill-65" fill="#7064CE" points="164.4992 339.1463 54.3162 402.7603 54.3162 301.6873 164.4992 238.0733"></polygon>
            <polygon id="Stroke-67" stroke="#4636C0" stroke-width="2" stroke-linecap="round" stroke-linejoin="round" points="164.4992 339.1463 54.3162 402.7603 54.3162 301.6873 164.4992 238.0733"></polygon>
            <g id="Group-72" transform="translate(275.000000, 109.155000)">
                <path d="M0.9074,12.881 L8.9434,0.302 C10.6404,2.338 10.5394,6.301 8.7174,9.154 L3.9804,16.568" id="Fill-69" fill="#FDFDFE"></path>
                <path d="M0.9074,12.881 L8.9434,0.302 C10.6404,2.338 10.5394,6.301 8.7174,9.154 L3.9804,16.568" id="Stroke-71" stroke="#4636C0" stroke-width="2" stroke-linecap="round" stroke-linejoin="round"></path>
            </g>
            <path d="M268.6369,143.9413 L260.3159,148.7463 L260.3159,94.2403 C263.2479,92.5453 265.6269,94.3243 265.6269,98.2113 L265.6269,110.1873 L274.9789,104.7883 L274.9789,92.1123 C277.8179,90.4723 280.4049,92.0293 280.4049,95.7913 L280.4049,101.6553 L280.4049,121.5533 C280.4049,130.1663 275.1359,140.1893 268.6369,143.9413" id="Fill-73" fill="#FDFDFE"></path>
            <path d="M268.6369,143.9413 L260.3159,148.7463 L260.3159,94.2403 C263.2479,92.5453 265.6269,94.3243 265.6269,98.2113 L265.6269,110.1873 L274.9789,104.7883 L274.9789,92.1123 C277.8179,90.4723 280.4049,92.0293 280.4049,95.7913 L280.4049,101.6553 L280.4049,121.5533 C280.4049,130.1663 275.1359,140.1893 268.6369,143.9413 Z" id="Stroke-75" stroke="#4636C0" stroke-width="2" stroke-linecap="round" stroke-linejoin="round"></path>
            <path d="M226.7345,222.4481 L258.7485,137.5111 L277.4605,142.5341 L257.3915,195.7801 C250.7955,213.2821 237.0695,225.2211 226.7345,222.4481" id="Fill-77" fill="#7064CE"></path>
            <path d="M226.7345,222.4481 L258.7485,137.5111 L277.4605,142.5341 L257.3915,195.7801 C250.7955,213.2821 237.0695,225.2211 226.7345,222.4481 Z" id="Stroke-79" stroke="#4636C0" stroke-width="2" stroke-linecap="round" stroke-linejoin="round"></path>
            <g id="Group-84" transform="translate(139.000000, 0.155000)">
                <path d="M20.8263,8.6642 C20.8263,8.6642 29.8983,1.1812 30.6803,0.8452 L30.6803,1.6232 C30.6803,15.0482 21.3373,31.3192 9.8033,37.9782 L3.2043,41.7882 C2.3933,42.2562 1.5973,42.6662 0.8153,43.0022 L0.8153,42.2242" id="Fill-81" fill="#FDFDFE"></path>
                <path d="M20.8263,8.6642 C20.8263,8.6642 29.8983,1.1812 30.6803,0.8452 L30.6803,1.6232 C30.6803,15.0482 21.3373,31.3192 9.8033,37.9782 L3.2043,41.7882 C2.3933,42.2562 1.5973,42.6662 0.8153,43.0022 L0.8153,42.2242" id="Stroke-83" stroke="#4636C0" stroke-width="2" stroke-linecap="round" stroke-linejoin="round"></path>
            </g>
            <path d="M174.0109,11.0653 L174.0109,11.5963 C174.0109,20.7523 167.1059,32.1563 158.5819,37.0783 C158.5819,37.0783 152.5179,40.5443 151.9399,40.7993" id="Stroke-85" stroke="#4636C0" stroke-width="2" stroke-linecap="round" stroke-linejoin="round"></path>
            <path d="M176.8312,26.411 L176.7002,26.742 C174.5902,32.088 168.2252,37.172 162.0642,38.601" id="Stroke-87" stroke="#2144AD" stroke-width="2" stroke-linecap="round" stroke-linejoin="round"></path>
            <g id="Group-92" transform="translate(97.000000, 20.155000)">
                <path d="M36.4508,8.4542 L47.0758,2.3202 C48.2748,1.6282 49.4458,1.0352 50.5858,0.5712 L50.4758,1.9372 C49.5908,12.9332 44.9138,25.1882 39.3688,35.6032 C33.0218,47.5232 24.4038,57.6872 15.3008,62.9432 C15.3008,62.9432 1.4398,70.8622 0.2998,71.3272 C0.2998,71.3272 2.5418,65.0762 2.8708,63.1102" id="Fill-89" fill="#FDFDFE"></path>
                <path d="M36.4508,8.4542 L47.0758,2.3202 C48.2748,1.6282 49.4458,1.0352 50.5858,0.5712 L50.4758,1.9372 C49.5908,12.9332 44.9138,25.1882 39.3688,35.6032 C33.0218,47.5232 24.4038,57.6872 15.3008,62.9432 C15.3008,62.9432 1.4398,70.8622 0.2998,71.3272 C0.2998,71.3272 2.5418,65.0762 2.8708,63.1102" id="Stroke-91" stroke="#4636C0" stroke-width="2" stroke-linecap="round" stroke-linejoin="round"></path>
            </g>
            <g id="Group-96" transform="translate(109.000000, 61.155000)">
                <path d="M12.63,0.0421 C8.987,3.4691 5.057,6.4651 0.993,8.8111" id="Fill-93" fill="#FDFDFE"></path>
                <path d="M12.63,0.0421 C8.987,3.4691 5.057,6.4651 0.993,8.8111" id="Stroke-95" stroke="#4636C0" stroke-width="2" stroke-linecap="round" stroke-linejoin="round"></path>
            </g>
            <g id="Group-100" transform="translate(105.000000, 32.155000)">
                <path d="M0.7448,27.9591 C4.4498,17.7511 11.1188,7.6871 19.2258,0.2841" id="Fill-97" fill="#FDFDFE"></path>
                <path d="M0.7448,27.9591 C4.4498,17.7511 11.1188,7.6871 19.2258,0.2841" id="Stroke-99" stroke="#4636C0" stroke-width="2" stroke-linecap="round" stroke-linejoin="round"></path>
            </g>
            <path d="M315.6554,51.2811 L332.7914,27.1011 C334.2844,24.9951 334.3264,22.4651 332.9164,21.9131 C327.8594,19.9361 320.3664,23.7511 314.7734,31.6421 L314.1264,32.5561 C310.0914,38.2501 304.9094,41.9181 300.1794,42.8301 C295.6984,43.6941 290.5864,47.3461 286.4694,53.1561 L286.4664,53.1611 C281.1774,60.6231 278.7754,69.8641 280.8984,75.7331 C284.4324,85.5031 296.2594,82.3331 304.2864,71.0091 C305.5574,69.2141 306.6434,67.3421 307.5364,65.4521 C309.8584,60.5321 312.5094,55.7191 315.6554,51.2811" id="Fill-101" fill="#F9F9FD"></path>
            <path d="M315.6554,51.2811 L332.7914,27.1011 C334.2844,24.9951 334.3264,22.4651 332.9164,21.9131 C327.8594,19.9361 320.3664,23.7511 314.7734,31.6421 L314.1264,32.5561 C310.0914,38.2501 304.9094,41.9181 300.1794,42.8301 C295.6984,43.6941 290.5864,47.3461 286.4694,53.1561 L286.4664,53.1611 C281.1774,60.6231 278.7754,69.8641 280.8984,75.7331 C284.4324,85.5031 296.2594,82.3331 304.2864,71.0091 C305.5574,69.2141 306.6434,67.3421 307.5364,65.4521 C309.8584,60.5321 312.5094,55.7191 315.6554,51.2811 Z" id="Stroke-103" stroke="#4636C0" stroke-width="2" stroke-linecap="round" stroke-linejoin="round"></path>
            <g id="Group-108" transform="translate(182.000000, 155.155000)">
                <path d="M0.1066,63.7863 L46.2226,0.2893" id="Fill-105" fill="#E7E5F7"></path>
                <path d="M0.1066,63.7863 L46.2226,0.2893" id="Stroke-107" stroke="#4636C0" stroke-width="2" stroke-linecap="round" stroke-linejoin="round"></path>
            </g>
            <polygon id="Fill-109" fill="#E0DDF4" points="136.4831 102.1317 111.3681 116.6317 111.3681 100.7317 136.4831 86.2317"></polygon>
            <polygon id="Stroke-111" stroke="#4636C0" stroke-width="2" stroke-linecap="round" stroke-linejoin="round" points="136.4831 102.1317 111.3681 116.6317 111.3681 100.7317 136.4831 86.2317"></polygon>
            <g id="Group-116" transform="translate(119.000000, 98.155000)">
                <path d="M0.1623,5.5294 L5.3583,0.0454" id="Fill-113" fill="#FDFDFE"></path>
                <path d="M0.1623,5.5294 L5.3583,0.0454" id="Stroke-115" stroke="#4636C0" stroke-width="2" stroke-linecap="round" stroke-linejoin="round"></path>
            </g>
            <g id="Group-120" transform="translate(123.000000, 98.155000)">
                <path d="M0.4928,6.0109 L5.6888,0.5269" id="Fill-117" fill="#FDFDFE"></path>
                <path d="M0.4928,6.0109 L5.6888,0.5269" id="Stroke-119" stroke="#4636C0" stroke-width="2" stroke-linecap="round" stroke-linejoin="round"></path>
            </g>
            <g id="Group-124" transform="translate(136.000000, 92.155000)">
                <path d="M0.4831,3.2687 L5.6791,0.0197" id="Fill-121" fill="#FDFDFE"></path>
                <path d="M0.4831,3.2687 L5.6791,0.0197" id="Stroke-123" stroke="#4636C0" stroke-width="2" stroke-linecap="round" stroke-linejoin="round"></path>
            </g>
            <g id="Group-128" transform="translate(98.000000, 100.155000)">
                <path d="M12.1252,7.92 L0.1252,0.92" id="Fill-125" fill="#FDFDFE"></path>
                <path d="M12.1252,7.92 L0.1252,0.92" id="Stroke-127" stroke="#4636C0" stroke-width="2" stroke-linecap="round" stroke-linejoin="round"></path>
            </g>
            <g id="Group-131" transform="translate(328.000000, 82.155000)">
                <mask id="mask-2" fill="white">
                    <use xlink:href="#path-1"></use>
                </mask>
                <g id="Clip-130"></g>
                <path d="M14.0041,0.5558 C11.7191,4.4428 9.0701,6.5728 6.0561,7.0768 C6.1801,7.7628 6.2941,8.4238 6.4191,9.0758 C6.9011,11.5798 7.3971,14.0748 7.8671,16.5878 C8.0461,17.5408 8.1081,18.5748 7.7081,19.8258 C7.1551,21.5558 6.2081,22.9468 4.8901,24.0388 C2.9991,25.6078 0.8871,25.1298 0.6121,22.8538 C0.3381,20.5878 1.8081,17.6478 3.9401,16.2038 C4.5871,15.7658 5.2111,15.5128 5.8611,15.3968 C5.4221,11.8298 4.9861,8.2908 4.5441,4.7028 C7.5901,4.6048 10.7351,3.1908 14.0041,0.5558" id="Fill-129" fill="#7064CE" mask="url(#mask-2)"></path>
            </g>
            <path d="M217.2287,83.5243 C216.7957,80.0113 216.3607,76.4783 215.9177,72.8893 C218.9627,72.7873 222.1057,71.3793 225.4367,68.6593 C224.3547,70.5483 223.1397,72.0713 221.6947,73.2553 C220.2467,74.4423 218.8377,75.0433 217.4267,75.2493 C217.5487,75.9183 217.6577,76.5453 217.7767,77.1653 C218.2607,79.6773 218.7517,82.1843 219.2327,84.7003 C219.3577,85.3583 219.4187,86.0623 219.3247,86.8603 C219.0697,89.0133 217.5127,91.5143 215.7777,92.5613 C213.9437,93.6693 212.3777,93.1303 212.0237,91.2723 C211.5487,88.7823 213.4577,85.2293 215.9267,84.0283 C216.3567,83.8193 216.7817,83.6953 217.2287,83.5243" id="Fill-132" fill="#7064CE"></path>
            <path d="M312.2502,86.8758 C315.3012,86.7718 318.4402,85.3648 321.7042,82.6988 C320.5312,84.9748 317.5732,88.7068 313.7652,89.2428 C313.8032,89.4638 313.8362,89.6668 313.8722,89.8668 C314.2772,92.0748 314.6802,94.2868 315.0922,96.4888 C315.2642,97.4088 315.4902,98.2858 315.6362,99.2268 C315.8172,100.3998 315.6612,101.7028 314.9532,103.1858 C313.6412,105.9308 311.1602,107.6818 309.5652,106.9728 C307.9212,106.2418 307.8382,103.3818 309.4232,100.7758 C310.5462,98.9318 311.8872,97.9858 313.3202,97.6168 C313.3832,97.6018 313.4422,97.5958 313.5042,97.5838 C313.5102,97.5818 313.5202,97.5708 313.5632,97.5328 C313.1282,93.9998 312.6922,90.4628 312.2502,86.8758" id="Fill-134" fill="#7064CE"></path>
            <path d="M240.1593,61.034 C239.7223,57.48 239.2853,53.939 238.8453,50.367 C240.3453,50.326 241.8853,49.961 243.5033,49.242 C245.1133,48.526 246.7133,47.492 248.3233,46.175 C246.8493,48.901 243.9723,52.208 240.3613,52.739 C240.3843,52.878 240.4023,52.997 240.4243,53.114 C240.8913,55.612 241.3633,58.106 241.8243,60.609 C241.9923,61.521 242.1923,62.415 242.2753,63.388 C242.4323,65.231 241.3853,67.602 239.7723,69.191 C238.2553,70.686 236.5463,71.056 235.6083,70.095 C234.6013,69.059 234.6273,66.951 235.7163,64.814 C236.6273,63.026 237.8443,61.937 239.2233,61.338 C239.5313,61.204 239.8333,61.138 240.1593,61.034" id="Fill-136" fill="#7064CE"></path>
            <path d="M250.9367,64.1717 C251.0367,64.7207 251.1267,65.2497 251.2277,65.7717 C251.7247,68.3487 252.2257,70.9227 252.7217,73.5017 C252.8567,74.2007 252.9287,74.9447 252.8307,75.7907 C252.5897,77.8597 251.1477,80.2187 249.4127,81.3927 C247.7787,82.4977 246.1917,82.1847 245.6597,80.6517 C244.7937,78.1617 246.8637,74.0657 249.6047,72.8527 C249.9777,72.6877 250.3437,72.5847 250.7377,72.4447 C250.3017,68.9117 249.8667,65.3797 249.4247,61.7997 C250.9357,61.7417 252.4737,61.3847 254.0917,60.6627 C255.7047,59.9437 257.3007,58.9097 258.8917,57.6407 C256.6107,61.5277 253.9597,63.6587 250.9367,64.1717" id="Fill-138" fill="#7064CE"></path>
        </g>
    </g>
</svg>