<?xml version="1.0" encoding="UTF-8"?>
<svg width="491px" height="543px" viewBox="0 0 491 543" version="1.1" xmlns="http://www.w3.org/2000/svg" xmlns:xlink="http://www.w3.org/1999/xlink">
    <!-- Generator: Sketch 52.2 (67145) - http://www.bohemiancoding.com/sketch -->
    <title>Group</title>
    <desc>Created with Sketch.</desc>
    <g id="Page-1" stroke="none" stroke-width="1" fill="none" fill-rule="evenodd">
        <g id="Group">
            <g id="Group-33">
                <g id="Group-32">
                    <path d="M112.813882,103.470464 C136.064539,75.3701241 243.01756,167.476795 311.219487,37.9030037 C379.421413,-91.6707875 535.975836,145.620975 477.074172,231.483126 C418.172508,317.345276 439.873121,323.589796 481.724303,398.524037 C523.575486,473.458278 404.222114,548.392519 311.219487,542.147998 C218.216859,535.903478 238.367429,454.724718 109.713794,514.047658 C-18.9398402,573.370599 -25.1400154,415.696467 43.0619113,347.006747 C111.263838,278.317026 117.464013,248.655556 115.913969,212.749565 C114.363926,176.843575 89.5632249,131.570805 112.813882,103.470464 Z" id="Stroke-29" fill="#F4F5F7"></path>
                    <path d="M224.7303,307.724 L224.7303,285.224 C224.7303,280.53 228.0263,274.822 232.0913,272.474 C236.1573,270.127 239.4533,272.03 239.4533,276.724 L239.4533,299.224 L224.7303,307.724 Z" id="Stroke-3" stroke="#333161" stroke-width="2" fill="#FFDA83" stroke-linecap="round" stroke-linejoin="round"></path>
                    <polygon id="Stroke-5" stroke="#333161" stroke-width="2" fill="#44E291" stroke-linecap="round" stroke-linejoin="round" points="208.3074 283.9745 196.1024 274.5205 218.3434 237.2415 231.7704 244.6115"></polygon>
                    <path d="M310.3709,227.1591 C302.1609,226.2191 295.7809,218.2391 295.7809,209.7791 C295.7809,200.6691 303.1709,193.2791 312.2809,193.2791 C315.3709,193.2791 318.5379,194.0271 322.4029,196.0591" id="Stroke-7" stroke="#333161" stroke-width="2" fill="#C7C6CA" stroke-linecap="round" stroke-linejoin="round"></path>
                    <path d="M296.7811,261.2792 C292.5871,259.9802 287.4101,256.1172 287.5311,252.0292 C287.9011,238.9392 298.7411,228.3692 311.6011,227.3592" id="Stroke-9" stroke="#333161" stroke-width="2" stroke-linecap="round" stroke-linejoin="round"></path>
                    <path d="M325.4012,229.6893 C324.0712,229.4193 322.6912,229.2793 321.2812,229.2793 C322.3402,229.2793 323.3802,229.1793 324.3802,228.9793 C324.7312,229.1993 325.0712,229.4393 325.4012,229.6893 Z" id="Stroke-11" stroke="#333161" stroke-width="2" stroke-linecap="round" stroke-linejoin="round"></path>
                    <path d="M335.7811,212.7792 C335.7811,220.8292 330.0111,227.5392 322.3811,228.9792 C321.3811,229.1792 320.3411,229.2792 319.2811,229.2792 C315.2011,229.2792 311.4811,227.7992 308.6011,225.3592 C308.5211,225.2992 308.4511,225.2292 308.3711,225.1592 C304.9411,222.1392 302.7811,217.7092 302.7811,212.7792 C302.7811,203.6692 310.1711,196.2792 319.2811,196.2792 C319.9311,196.2792 320.5611,196.3192 321.1911,196.3992 C321.9271,196.4832 322.6471,196.6162 323.3501,196.7942 C330.4931,198.6022 335.7811,205.0772 335.7811,212.7792 Z" id="Stroke-13" stroke="#333161" stroke-width="2" fill="#F4F5F7" stroke-linecap="round" stroke-linejoin="round"></path>
                    <path d="M344.0311,256.0292 C344.2811,264.7792 332.9511,262.7792 319.2811,262.7792 C307.3711,262.7792 297.2411,264.2992 295.0011,258.8992 L294.9911,258.8992 C294.6611,258.1092 294.5011,257.1592 294.5311,256.0292 C294.9211,242.3692 305.6111,229.2792 319.2811,229.2792 C320.6911,229.2792 322.0711,229.4192 323.4011,229.6892 C335.0411,231.9792 343.6811,243.7792 344.0311,256.0292 Z" id="Stroke-15" stroke="#333161" stroke-width="2" stroke-linecap="round" stroke-linejoin="round"></path>
                    <polygon id="Stroke-17" stroke="#333161" stroke-width="2" fill="#D8D8D8" stroke-linecap="round" stroke-linejoin="round" points="149.8729 345.5287 140.5919 334.2797 135.5939 374.4377 147.0179 392.6527"></polygon>
                    <polygon id="Stroke-19" stroke="#333161" stroke-width="2" stroke-linecap="round" stroke-linejoin="round" points="147.0174 392.6527 149.8724 345.5287 208.4214 345.5287 211.4524 392.6527"></polygon>
                    <path d="M149.7811,346.2792 L177.0011,372.6482 C179.5841,375.1512 183.7481,374.9352 186.0591,372.1802 L208.4221,345.5292 L197.3461,334.2792 L140.5921,334.2792" id="Stroke-21" stroke="#333161" stroke-width="2" stroke-linecap="round" stroke-linejoin="round"></path>
                    <polygon id="Stroke-23" stroke="#333161" stroke-width="1.861" fill="#44E291" stroke-linecap="round" stroke-linejoin="round" points="276.0721 357.4667 265.0341 347.8587 260.7051 393.5157 273.5981 406.0187"></polygon>
                    <polygon id="Stroke-25" stroke="#333161" stroke-width="1.861" stroke-linecap="round" stroke-linejoin="round" points="273.5985 406.0184 276.0725 357.4664 326.7765 328.1924 329.4005 373.8014"></polygon>
                    <path d="M275.992,358.2631 L299.565,371.0221 C301.802,372.2331 305.408,369.9361 307.41,366.0251 L326.776,328.1921 L314.185,319.4801 L265.034,347.8581" id="Stroke-27" stroke="#333161" stroke-width="1.861" stroke-linecap="round" stroke-linejoin="round"></path>
                    <polyline id="Stroke-1" stroke="#333161" stroke-width="2" stroke-linecap="round" stroke-linejoin="round" points="224.7303 300.4921 208.3073 309.9741 208.3073 283.9741 231.6903 244.4741 249.8763 259.9741 249.8763 285.9741 239.4533 291.9921"></polyline>
                    <polygon id="Stroke-2" stroke="#333161" stroke-width="2" stroke-linecap="round" stroke-linejoin="round" points="208.3074 283.9745 196.1024 274.5205 196.6164 299.2245 208.3074 309.9745"></polygon>
                </g>
            </g>
            <text id="Test-Image" font-family="Menlo-Regular, Menlo" font-size="14" font-weight="normal" fill="#73717C">
                <tspan x="276" y="158">Test Image</tspan>
            </text>
        </g>
    </g>
</svg>