<?xml version="1.0" encoding="UTF-8"?>
<svg width="35px" height="35px" viewBox="0 0 35 35" version="1.1" xmlns="http://www.w3.org/2000/svg" xmlns:xlink="http://www.w3.org/1999/xlink">
    <!-- Generator: Sketch 52.2 (67145) - http://www.bohemiancoding.com/sketch -->
    <title>linkedin</title>
    <desc>Created with Sketch.</desc>
    <g id="linkedin" stroke="none" stroke-width="1" fill="none" fill-rule="evenodd">
        <g id="Group" transform="translate(5.000000, 4.000000)">
            <g id="Group-5" stroke="#333161" stroke-linecap="round" stroke-linejoin="round" stroke-width="1.20000005">
                <path d="M3.125,23.2638889 C1.73611111,21.875 0.347222222,20.6854167 0.347222222,19.2180556 L0.347222222,3.00416667 C0.347222222,1.53680556 1.53680556,0.347222222 3.00416667,0.347222222 L18.3208333,0.347222222 C19.2909722,0.347222222 20.2194444,0.736805556 20.9020833,1.42708333 C21.1027778,1.63055556 21.8145833,2.32291667 22.6583333,3.125" id="Stroke-1"></path>
                <path d="M21.9956944,24.6527778 L5.78180556,24.6527778 C4.31444444,24.6527778 3.12486111,23.4631944 3.12486111,21.9958333 L3.12486111,5.78194444 C3.12486111,4.31458333 4.31444444,3.125 5.78180556,3.125 L21.9956944,3.125 C23.4630556,3.125 24.6526389,4.31458333 24.6526389,5.78194444 L24.6526389,21.9958333 C24.6526389,23.4631944 23.4630556,24.6527778 21.9956944,24.6527778 Z" id="Stroke-3"></path>
            </g>
            <g id="Group-5" transform="translate(9.523810, 9.523810)" fill="#333161">
                <path d="M1.55018315,2.25931818 L2.79487179,2.25931818 L2.79487179,0.757045455 L1.55018315,0.757045455 L1.55018315,2.25931818 Z M0.331135531,3.15174242 L0.331135531,4.14037879 L1.55018315,4.14037879 L1.55018315,7.08280303 L0,7.08280303 L0,8.07143939 L4.34139194,8.07143939 L4.34139194,7.08280303 L2.79487179,7.08280303 L2.79487179,3.15174242 L0.331135531,3.15174242 Z" id="Fill-1"></path>
                <path d="M9.17970696,4.8780303 L9.17970696,8.07121212 L7.94380952,8.07121212 L7.94380952,5.07575758 C7.94380952,4.71818182 7.89472527,4.46287879 7.79655678,4.30909091 C7.69912088,4.15530303 7.54014652,4.07878788 7.3189011,4.07878788 C7.09545788,4.07878788 6.9189011,4.18257576 6.78996337,4.39015152 C6.66102564,4.59848485 6.59728938,4.88712121 6.59728938,5.25606061 L6.59728938,8.07121212 L5.36065934,8.07121212 L5.36065934,3.15151515 L6.59728938,3.15151515 L6.59728938,3.88939394 C6.68520147,3.61742424 6.83538462,3.40681818 7.04710623,3.25681818 C7.25956044,3.10757576 7.5159707,3.03257576 7.816337,3.03257576 C8.26688645,3.03257576 8.60681319,3.18787879 8.83538462,3.49621212 C9.06542125,3.80530303 9.17970696,4.26590909 9.17970696,4.8780303" id="Fill-2"></path>
            </g>
        </g>
    </g>
</svg>