<?xml version="1.0" encoding="UTF-8"?>
<svg width="35px" height="35px" viewBox="0 0 35 35" version="1.1" xmlns="http://www.w3.org/2000/svg" xmlns:xlink="http://www.w3.org/1999/xlink">
    <!-- Generator: Sketch 52.2 (67145) - http://www.bohemiancoding.com/sketch -->
    <title>medium</title>
    <desc>Created with Sketch.</desc>
    <g id="medium" stroke="none" stroke-width="1" fill="none" fill-rule="evenodd">
        <g id="icons-02" transform="translate(16.000000, 14.000000)" fill="#333161">
            <polygon id="Path" points="3.55714286 0.08 2.67428571 3.45777778 1.79142857 0.08 0.0428571429 0.08 0.0428571429 7.77777778 1.30285714 7.77777778 1.30285714 1.61777778 2.1 4.97777778 3.26571429 4.97777778 4.05428571 1.61777778 4.05428571 7.77777778 5.31428571 7.77777778 5.31428571 0.08"></polygon>
        </g>
        <g id="Group" transform="translate(5.000000, 4.000000)" stroke="#333161" stroke-linecap="round" stroke-linejoin="round" stroke-width="1.20000005">
            <g id="Group-5">
                <path d="M3.125,23.2638889 C1.73611111,21.875 0.347222222,20.6854167 0.347222222,19.2180556 L0.347222222,3.00416667 C0.347222222,1.53680556 1.53680556,0.347222222 3.00416667,0.347222222 L18.3208333,0.347222222 C19.2909722,0.347222222 20.2194444,0.736805556 20.9020833,1.42708333 C21.1027778,1.63055556 21.8145833,2.32291667 22.6583333,3.125" id="Stroke-1"></path>
                <path d="M21.9956944,24.6527778 L5.78180556,24.6527778 C4.31444444,24.6527778 3.12486111,23.4631944 3.12486111,21.9958333 L3.12486111,5.78194444 C3.12486111,4.31458333 4.31444444,3.125 5.78180556,3.125 L21.9956944,3.125 C23.4630556,3.125 24.6526389,4.31458333 24.6526389,5.78194444 L24.6526389,21.9958333 C24.6526389,23.4631944 23.4630556,24.6527778 21.9956944,24.6527778 Z" id="Stroke-3"></path>
            </g>
        </g>
    </g>
</svg>