<?xml version="1.0" encoding="UTF-8"?>
<svg width="35px" height="35px" viewBox="0 0 35 35" version="1.1" xmlns="http://www.w3.org/2000/svg" xmlns:xlink="http://www.w3.org/1999/xlink">
    <!-- Generator: Sketch 52.2 (67145) - http://www.bohemiancoding.com/sketch -->
    <title>twitter</title>
    <desc>Created with Sketch.</desc>
    <g id="twitter" stroke="none" stroke-width="1" fill="none" fill-rule="evenodd">
        <g id="Group" transform="translate(5.000000, 4.000000)">
            <g id="Group-5" stroke="#333161" stroke-linecap="round" stroke-linejoin="round" stroke-width="1.20000005">
                <path d="M3.125,23.2638889 C1.73611111,21.875 0.347222222,20.6854167 0.347222222,19.2180556 L0.347222222,3.00416667 C0.347222222,1.53680556 1.53680556,0.347222222 3.00416667,0.347222222 L18.3208333,0.347222222 C19.2909722,0.347222222 20.2194444,0.736805556 20.9020833,1.42708333 C21.1027778,1.63055556 21.8145833,2.32291667 22.6583333,3.125" id="Stroke-1"></path>
                <path d="M21.9956944,24.6527778 L5.78180556,24.6527778 C4.31444444,24.6527778 3.12486111,23.4631944 3.12486111,21.9958333 L3.12486111,5.78194444 C3.12486111,4.31458333 4.31444444,3.125 5.78180556,3.125 L21.9956944,3.125 C23.4630556,3.125 24.6526389,4.31458333 24.6526389,5.78194444 L24.6526389,21.9958333 C24.6526389,23.4631944 23.4630556,24.6527778 21.9956944,24.6527778 Z" id="Stroke-3"></path>
            </g>
            <g id="Group-3" transform="translate(11.904762, 10.714286)" fill="#333161">
                <path d="M2.66460317,-7.93650794e-06 L2.66460317,1.46348413 L4.42730159,1.46348413 L4.42730159,2.49840476 L2.66460317,2.49840476 L2.66460317,4.9380873 C2.66460317,5.16745238 2.72015873,5.33253175 2.83285714,5.43253175 C2.9447619,5.53253175 3.13126984,5.5817381 3.3915873,5.5817381 L4.42730159,5.5817381 L4.42730159,6.61745238 L3.2947619,6.61745238 C2.52174603,6.61745238 1.99873016,6.49364286 1.72571429,6.24681746 C1.45269841,5.99999206 1.31619048,5.54205556 1.31619048,4.87300794 L1.31619048,2.49840476 L0.000317460317,2.49840476 L0.000317460317,1.46348413 L1.31619048,1.46348413 L1.31619048,-7.93650794e-06 L2.66460317,-7.93650794e-06 Z" id="Fill-1"></path>
            </g>
        </g>
    </g>
</svg>