<?xml version="1.0" encoding="UTF-8"?>
<svg width="35px" height="35px" viewBox="0 0 35 35" version="1.1" xmlns="http://www.w3.org/2000/svg" xmlns:xlink="http://www.w3.org/1999/xlink">
    <!-- Generator: Sketch 52.2 (67145) - http://www.bohemiancoding.com/sketch -->
    <title>git</title>
    <desc>Created with Sketch.</desc>
    <g id="git" stroke="none" stroke-width="1" fill="none" fill-rule="evenodd">
        <g id="Group" transform="translate(5.000000, 4.000000)">
            <g id="Group-5" stroke="#333161" stroke-linecap="round" stroke-linejoin="round" stroke-width="1.20000005">
                <path d="M3.125,23.2638889 C1.73611111,21.875 0.347222222,20.6854167 0.347222222,19.2180556 L0.347222222,3.00416667 C0.347222222,1.53680556 1.53680556,0.347222222 3.00416667,0.347222222 L18.3208333,0.347222222 C19.2909722,0.347222222 20.2194444,0.736805556 20.9020833,1.42708333 C21.1027778,1.63055556 21.8145833,2.32291667 22.6583333,3.125" id="Stroke-1"></path>
                <path d="M21.9956944,24.6527778 L5.78180556,24.6527778 C4.31444444,24.6527778 3.12486111,23.4631944 3.12486111,21.9958333 L3.12486111,5.78194444 C3.12486111,4.31458333 4.31444444,3.125 5.78180556,3.125 L21.9956944,3.125 C23.4630556,3.125 24.6526389,4.31458333 24.6526389,5.78194444 L24.6526389,21.9958333 C24.6526389,23.4631944 23.4630556,24.6527778 21.9956944,24.6527778 Z" id="Stroke-3"></path>
            </g>
            <g id="Group-7" transform="translate(5.952381, 9.523810)" fill="#333161">
                <path d="M3.16325595,4.61736264 C3.16325595,4.19245421 3.0781369,3.85252747 2.907125,3.59538462 C2.7368869,3.33970696 2.51248214,3.21150183 2.23468452,3.21150183 C1.95920833,3.21150183 1.737125,3.33897436 1.56766071,3.59391941 C1.39897024,3.84886447 1.314625,4.19025641 1.314625,4.61736264 C1.314625,5.04813187 1.39897024,5.39025641 1.56766071,5.64520147 C1.737125,5.90014652 1.95920833,6.02761905 2.23468452,6.02761905 C2.51248214,6.02761905 2.7368869,5.89941392 2.907125,5.64300366 C3.0781369,5.38732601 3.16325595,5.04520147 3.16325595,4.61736264 Z M4.47795833,6.71553114 C4.47795833,7.4774359 4.2961131,8.02761905 3.93242262,8.36608059 C3.56873214,8.70454212 2.97908929,8.87377289 2.16272024,8.87377289 C1.88801786,8.87377289 1.6148631,8.85472527 1.34557738,8.81663004 C1.07706548,8.7785348 0.803136905,8.71919414 0.525339286,8.64007326 L0.525339286,7.49794872 C0.772958333,7.62761905 1.02599405,7.72432234 1.28289881,7.78659341 C1.53980357,7.84886447 1.80522024,7.8796337 2.07760119,7.8796337 C2.44825595,7.8796337 2.72218452,7.79684982 2.8986131,7.63128205 C3.07504167,7.46571429 3.16325595,7.20710623 3.16325595,6.85619048 L3.16325595,6.34190476 C3.03480357,6.56901099 2.86379167,6.73750916 2.65176786,6.84739927 C2.43897024,6.95802198 2.18051786,7.01369963 1.8756369,7.01369963 C1.30147024,7.01369963 0.844922619,6.80051282 0.506767857,6.3756044 C0.168613095,5.95142857 -7.73809524e-05,5.37487179 -7.73809524e-05,4.64739927 C-7.73809524e-05,3.89428571 0.168613095,3.29648352 0.506767857,2.85472527 C0.844922619,2.41296703 1.298375,2.19172161 1.86635119,2.19172161 C2.15343452,2.19172161 2.40879167,2.25545788 2.63319643,2.3829304 C2.85760119,2.51040293 3.03480357,2.69062271 3.16325595,2.92285714 L3.16325595,2.31479853 L4.47795833,2.31479853 L4.47795833,6.71553114 Z" id="Fill-1"></path>
                <path d="M7.37130952,1.45260073 L8.6860119,1.45260073 L8.6860119,-0.000146520147 L7.37130952,-0.000146520147 L7.37130952,1.45260073 Z M6.08369048,2.31487179 L8.68678571,2.31487179 L8.68678571,6.1170696 L10.3195238,6.1170696 L10.3195238,7.07311355 L5.73392857,7.07311355 L5.73392857,6.1170696 L7.37130952,6.1170696 L7.37130952,3.27091575 L6.08369048,3.27091575 L6.08369048,2.31487179 Z" id="Fill-4"></path>
                <path d="M13.7207262,0.964395604 L13.7207262,2.31531136 L15.4393571,2.31531136 L15.4393571,3.27062271 L13.7207262,3.27062271 L13.7207262,5.52263736 C13.7207262,5.73435897 13.7748929,5.88673993 13.8847738,5.97904762 C13.993881,6.07135531 14.1757262,6.11677656 14.4295357,6.11677656 L15.4393571,6.11677656 L15.4393571,7.07282051 L14.335131,7.07282051 C13.5814405,7.07282051 13.0715,6.9585348 12.8053095,6.73069597 C12.539119,6.50285714 12.4060238,6.08014652 12.4060238,5.4625641 L12.4060238,3.27062271 L11.1230476,3.27062271 L11.1230476,2.31531136 L12.4060238,2.31531136 L12.4060238,0.964395604 L13.7207262,0.964395604 Z" id="Fill-6"></path>
            </g>
        </g>
    </g>
</svg>