<?xml version="1.0" encoding="UTF-8"?>
<svg width="35px" height="35px" viewBox="0 0 35 35" version="1.1" xmlns="http://www.w3.org/2000/svg" xmlns:xlink="http://www.w3.org/1999/xlink">
    <!-- Generator: Sketch 52.2 (67145) - http://www.bohemiancoding.com/sketch -->
    <title>linkedin_active</title>
    <desc>Created with Sketch.</desc>
    <g id="linkedin_active" stroke="none" stroke-width="1" fill="none" fill-rule="evenodd">
        <g id="Group" transform="translate(7.000000, 4.000000)">
            <polygon id="Path-3" fill="#44E291" fill-rule="nonzero" points="14.832902 0.279006207 18.305451 1.47761043 4.70270677 9.64150026 3.58945455 26.8861851 0.542829703 24.7612354 1.14390408 8.24523366"></polygon>
            <g id="Group-5" stroke="#333161" stroke-linecap="round" stroke-linejoin="round" stroke-width="1.68000007">
                <path d="M3.70624242,27.2534957 C2.65654545,26.680713 0.277757576,25.8449739 0.277757576,24.5965391 L0.277757576,10.8016696 C0.277757576,9.55262609 1.17715152,8.01932174 2.28563636,7.37653913 L13.8626061,0.663843478 C14.5959394,0.238365217 15.2971515,0.162886957 15.8129091,0.451408696 C15.9650303,0.536017391 18.2201818,1.3754087 18.8577576,1.68827826" id="Stroke-1"></path>
                <path d="M18.0191515,20.2443043 L5.43066667,27.5443913 C4.41369697,28.1336087 3.58945455,27.5078696 3.58945455,26.1462174 L3.58945455,12.761 C3.58945455,11.3993478 4.41369697,9.81795652 5.43066667,9.22813043 L18.0191515,1.92865217 C19.0361212,1.33882609 19.8603636,1.96456522 19.8603636,3.32621739 L19.8603636,16.7114348 C19.8603636,18.073087 19.0361212,19.655087 18.0191515,20.2443043 Z" id="Stroke-3"></path>
            </g>
            <g id="Group-4" transform="translate(8.235294, 10.956522)" fill="#333161">
                <path d="M1.37185027,1.21409498 L1.37185027,2.65623545 L2.47313369,2.02019532 L2.47313369,0.577305686 L1.37185027,1.21409498 Z M0.293026738,4.13583411 L0.293026738,5.08427559 L1.37185027,4.46097124 L1.37185027,7.28531906 L0.000299465241,8.07868361 L0.000299465241,9.02712508 L3.84168984,6.80735251 L3.84168984,5.85891104 L2.47313369,6.64927893 L2.47313369,2.87574047 L0.293026738,4.13583411 Z" id="Fill-1"></path>
                <path d="M8.12419251,1.26825953 L8.12419251,4.33383813 L7.02964706,4.96613244 L7.02964706,2.09009231 C7.02964706,1.74772441 6.9862246,1.52672107 6.90012834,1.42932977 C6.81403209,1.3311893 6.67328342,1.3394301 6.47713369,1.45255385 C6.27948663,1.56642676 6.12301604,1.75671438 6.00921925,2.02191839 C5.8946738,2.28712241 5.8377754,2.59727625 5.8377754,2.95163077 L5.8377754,5.65386488 L4.74397861,6.2861592 L4.74397861,1.56417926 L5.8377754,0.93188495 L5.8377754,1.63984482 C5.91638503,1.33343679 6.04964706,1.05399866 6.23681283,0.802279599 C6.42397861,0.550560535 6.65157219,0.347537124 6.91734759,0.193958528 C7.31638503,-0.0360347826 7.61659893,-0.0615063545 7.81948663,0.117543813 C8.02237433,0.297343144 8.12419251,0.68091505 8.12419251,1.26825953" id="Fill-2"></path>
            </g>
        </g>
    </g>
</svg>